<?xml version="1.0" encoding="UTF-8"?>
<svg width="262.36" height="262.36" version="1.1" viewBox="0 0 262.36 262.36" xml:space="preserve" xmlns="http://www.w3.org/2000/svg">
<style type="text/css">
	.st0{fill:#181825;}
	.st1{fill-rule:evenodd;clip-rule:evenodd;fill:#F4D78A;}
	.st2{fill-rule:evenodd;clip-rule:evenodd;fill:#E26350;}
	.st3{fill-rule:evenodd;clip-rule:evenodd;fill:#F5D149;}
	.st4{fill:#F4D78A;}
	.st5{opacity:0.6;}
	.st6{clip-path:url(#SVGID_2_);}
	.st7{clip-path:url(#SVGID_4_);}
	.st8{clip-path:url(#SVGID_6_);}
	.st9{clip-path:url(#SVGID_8_);}
	.st10{fill:#E26350;}
	.st11{clip-path:url(#SVGID_10_);}
	.st12{clip-path:url(#SVGID_12_);}
	.st13{clip-path:url(#SVGID_14_);}
	.st14{clip-path:url(#SVGID_16_);}
	.st15{fill:none;stroke:#000000;stroke-width:10;stroke-linecap:round;stroke-miterlimit:10;}
	.st16{clip-path:url(#SVGID_18_);}
	.st17{clip-path:url(#SVGID_20_);}
	.st18{clip-path:url(#SVGID_22_);}
	.st19{clip-path:url(#SVGID_24_);}
	.st20{fill:#F9F6F6;}
	.st21{fill:none;stroke:#181825;stroke-width:10;stroke-linecap:round;stroke-miterlimit:10;}
	.st22{opacity:0.76;}
	.st23{fill:#AA6E00;}
	.st24{fill:#E9B31F;}
	.st25{fill:#EAB41F;}
	.st26{clip-path:url(#SVGID_26_);}
	.st27{fill:#181825;stroke:#181825;stroke-width:2;stroke-miterlimit:10;}
	.st28{fill:#7B2F28;}
	.st29{fill-rule:evenodd;clip-rule:evenodd;fill:#181825;}
	.st30{fill:#F9F6F6;stroke:#F9F6F6;stroke-miterlimit:10;}
	.st31{fill:none;stroke:#F9F6F6;stroke-width:8;stroke-linecap:round;stroke-linejoin:round;stroke-miterlimit:10;}
	.st32{fill:none;stroke:#181825;stroke-width:8;stroke-linecap:round;stroke-linejoin:round;stroke-miterlimit:10;}
	.st33{clip-path:url(#SVGID_28_);}
	.st34{fill:none;}
	.st35{opacity:0.5;}
	.st36{fill:none;stroke:#F9F6F6;stroke-width:8;stroke-miterlimit:10;}
	.st37{fill:#171825;}
	.st38{clip-path:url(#SVGID_36_);}
	.st39{clip-path:url(#SVGID_38_);}
	.st40{clip-path:url(#SVGID_40_);}
	.st41{clip-path:url(#SVGID_42_);}
	.st42{fill:none;stroke:#F9F6F6;stroke-width:12;stroke-linecap:round;stroke-miterlimit:10;}
	.st43{fill:none;stroke:#E26350;stroke-width:3;stroke-miterlimit:10;}
	.st44{opacity:0.5;fill:#F4D78A;}
	.st45{opacity:0.5;fill:#79769F;}
	.st46{font-family:'Poppins-Bold';}
	.st47{font-size:118.4928px;}
	.st48{fill:none;stroke:#181825;stroke-width:3;stroke-miterlimit:10;}
	.st49{clip-path:url(#SVGID_44_);}
	.st50{clip-path:url(#SVGID_46_);}
	.st51{clip-path:url(#SVGID_48_);}
	.st52{clip-path:url(#SVGID_50_);}
	.st53{font-size:140px;}
</style>













<g transform="translate(880.18,188.18)">
		
			
				<path class="st28" d="m-617.82-57c0 72.45-58.73 131.18-131.18 131.18-41.76 0-78.96-19.51-102.97-49.91-17.67-22.35-28.21-50.58-28.21-81.27 0-72.45 58.73-131.18 131.18-131.18 36.35 0 69.24 14.78 92.99 38.66 23.61 23.72 38.19 56.42 38.19 92.52z"/>
			
			
				<path class="st10" d="m-627.8-68.25c0 72.45-58.73 131.18-131.18 131.18-36.35 0-69.24-14.78-92.99-38.66-17.67-22.35-28.21-50.58-28.21-81.27 0-72.45 58.73-131.18 131.18-131.18 36.35 0 69.24 14.78 92.99 38.66 17.67 22.34 28.21 50.57 28.21 81.27z"/>
			
		
		
			
				
					
						
							<path class="st0" d="m-686.01 10.02c-0.28-1.4-0.82-2.71-1.46-3.99-10.68-21.36-22.22-42.29-32.79-63.71-3.87-7.86-8.09-15.56-12.12-23.34-0.76-1.49-1.38-3.01-1.38-4.73v-34.88c0-1.87 0.7-3.28 2.44-4.15 2.15-1.06 3.36-2.89 3.79-5.21 0.51-2.83 0.44-5.66-0.17-8.48-0.54-2.62-2.13-4.12-4.75-4.62-1.23-0.23-2.46-0.3-3.69-0.3h-36.17c-0.71 0-1.43-0.01-2.13 0.08-2.59 0.34-4.84 1.21-5.6 4.04-0.77 2.87-1.08 5.79-0.6 8.75 0.3 1.96 0.91 3.91 2.81 4.89 2.82 1.45 3.76 3.74 3.74 6.75-0.06 10.73-0.06 21.46-0.06 32.19 0.01 1.89-0.35 3.7-1.25 5.35-5 9.2-9.81 18.52-14.45 27.89-10.09 20.34-21.17 40.18-31.17 60.55-0.3 0.59-0.56 1.21-0.76 1.84-1.15 3.69 0.51 6.89 4.17 8.1 1.66 0.54 3.36 0.56 5.07 0.56h58.39c18.76 0 37.51 0.02 56.26-0.01 2.69-0.01 5.42 0.27 8.03-0.7 3.07-1.14 4.49-3.66 3.85-6.87zm-8.54 2.76c-0.96 0.06-1.9 0.1-2.84 0.1-18.75 0.01-37.51 0.01-56.26 0.01-19.22 0-38.44 0-57.67-0.01-0.85 0-1.72-0.01-2.55-0.16-2.06-0.34-3.07-1.91-2.55-3.96 0.14-0.59 0.36-1.19 0.65-1.72 7.86-14.19 14.51-28.97 21.91-43.39 7.08-13.79 14.18-27.58 21.77-41.08 2.07-3.68 2.71-7.49 2.64-11.6-0.21-10.86-0.16-21.74-0.02-32.6 0.01-1.04-0.02-2.09-0.15-3.13-0.22-1.95-1.23-3.31-3.08-4.08-3.1-1.27-4.33-4.75-2.81-7.77 0.53-1.03 1.39-1.68 2.52-1.91 0.79-0.15 1.61-0.23 2.41-0.24 11.1-0.01 22.21 0.04 33.32-0.02 4.75-0.02 5.84 2.53 5.1 7.16-0.18 1.14-1 2.03-2.09 2.35-3.51 1.03-4.27 3.67-4.26 6.85 0.05 10.11 0.08 20.22 0.08 30.32 0.01 2.61-0.18 5.23 0 7.83 0.12 1.64 0.64 3.13 1.39 4.58 14.37 27.74 28.73 55.47 43.07 83.21 0.81 1.56 1.58 3.14 2.24 4.77 1.05 2.63-0.03 4.29-2.82 4.49z"/>
							<path class="st0" d="m-695.03 19c-0.47 0-0.93-0.01-1.39-0.01-0.5-0.01-1-0.02-1.49-0.01-13.41 0.03-26.82 0.02-40.23 0.02h-74.42c-1.69 0-3.6 0-5.5-0.63-4.42-1.46-6.45-5.41-5.07-9.85 0.24-0.73 0.52-1.41 0.85-2.06 5.19-10.56 10.76-21.17 16.15-31.42 5-9.51 10.16-19.34 15.01-29.11 4.76-9.62 9.64-19.02 14.48-27.94 0.73-1.33 1.09-2.9 1.08-4.67 0-10.56 0-21.47 0.06-32.2 0.02-2.77-0.87-4.41-2.98-5.5-2.54-1.31-3.23-3.85-3.55-5.92-0.47-2.94-0.26-5.99 0.64-9.32 1.04-3.88 4.36-4.75 6.77-5.06 0.72-0.1 1.42-0.1 2.1-0.1h36.37c1.5 0 2.75 0.1 3.95 0.33 3.19 0.6 5.22 2.58 5.87 5.71 0.65 3.02 0.71 6.05 0.18 9.01-0.52 2.86-2.09 5.01-4.54 6.22-1.17 0.58-1.67 1.45-1.67 2.89v34.88c0 1.49 0.59 2.85 1.23 4.09 1.43 2.77 2.89 5.53 4.35 8.3 2.6 4.91 5.28 9.99 7.78 15.07 5.6 11.34 11.57 22.74 17.35 33.77 5.12 9.78 10.42 19.89 15.44 29.93 0.83 1.66 1.32 3 1.58 4.34 0.78 3.91-1 7.07-4.76 8.44-1.9 0.68-3.79 0.8-5.64 0.8zm-2.71-2.83c0.45 0 0.91 0.01 1.37 0.01 2.13 0.03 4.13 0.07 6-0.63 2.46-0.9 3.49-2.71 2.98-5.26-0.22-1.09-0.63-2.21-1.34-3.64-5.01-10.02-10.3-20.12-15.42-29.89-5.78-11.04-11.76-22.45-17.38-33.83-2.48-5.04-5.16-10.1-7.74-15-1.46-2.77-2.93-5.54-4.37-8.33-0.76-1.49-1.54-3.28-1.54-5.37v-34.88c0-2.52 1.08-4.33 3.22-5.4 1.68-0.83 2.67-2.21 3.03-4.21 0.47-2.6 0.41-5.27-0.16-7.93-0.43-2.05-1.55-3.14-3.65-3.54-1.02-0.19-2.11-0.28-3.43-0.28h-36.38c-0.61 0-1.19 0-1.72 0.07-2.71 0.35-3.95 1.2-4.44 3.02-0.79 2.94-0.98 5.61-0.57 8.16 0.33 2.16 0.93 3.28 2.07 3.86 3.06 1.57 4.53 4.19 4.49 8-0.06 10.72-0.06 21.63-0.06 32.18 0.01 2.24-0.46 4.26-1.42 6.02-4.82 8.89-9.68 18.26-14.43 27.84-4.86 9.81-10.04 19.65-15.04 29.17-5.38 10.24-10.95 20.83-16.13 31.37-0.27 0.54-0.5 1.09-0.69 1.66-0.91 2.93 0.34 5.37 3.28 6.34 1.48 0.49 3.08 0.49 4.63 0.49h74.42c13.41 0.01 26.81 0.01 40.22-0.02 0.08 0.02 0.14 0.02 0.2 0.02zm-55.91-1.88c-19.22 0-38.44 0-57.67-0.01-0.89 0-1.85-0.01-2.79-0.18-1.37-0.22-2.5-0.91-3.16-1.94-0.68-1.03-0.85-2.36-0.5-3.74 0.18-0.73 0.44-1.42 0.78-2.04 4.87-8.79 9.35-17.96 13.68-26.83 2.65-5.43 5.4-11.05 8.2-16.52 7.88-15.36 14.49-28.14 21.8-41.13 1.75-3.12 2.53-6.58 2.46-10.89-0.18-9.4-0.19-19.46-0.02-32.64 0.01-1.09-0.03-2.06-0.14-2.95-0.16-1.45-0.87-2.38-2.23-2.94-1.83-0.75-3.22-2.16-3.89-3.97-0.69-1.85-0.56-3.88 0.37-5.72 0.74-1.42 1.94-2.33 3.48-2.65 0.91-0.17 1.8-0.26 2.67-0.27 3.97-0.01 7.92 0 11.87 0 7.03 0.01 14.31 0.01 21.46-0.03 2.47-0.01 4.27 0.62 5.4 1.94 1.65 1.93 1.42 4.83 1.1 6.84-0.27 1.67-1.45 3-3.09 3.47-2.38 0.7-3.26 2.19-3.25 5.5 0.06 12.27 0.08 21.63 0.08 30.33 0 0.93-0.02 1.87-0.04 2.81-0.04 1.7-0.08 3.31 0.04 4.92 0.1 1.3 0.49 2.59 1.24 4.04 14.37 27.73 28.73 55.47 43.07 83.21 1 1.93 1.71 3.43 2.29 4.89 0.87 2.16 0.44 3.59-0.07 4.4-0.51 0.82-1.61 1.83-3.94 2h-0.01c-1.05 0.07-2.01 0.1-2.93 0.1h-56.26zm-13.01-151.63h-3.93c-0.68 0.01-1.44 0.09-2.15 0.22-0.68 0.14-1.19 0.53-1.53 1.18-0.57 1.12-0.65 2.35-0.24 3.46 0.4 1.07 1.23 1.91 2.33 2.36 2.31 0.95 3.67 2.75 3.94 5.22 0.12 1.01 0.17 2.09 0.15 3.3-0.16 13.15-0.15 23.19 0.02 32.56 0.09 4.83-0.81 8.75-2.82 12.31-7.28 12.94-13.88 25.7-21.75 41.03-2.79 5.45-5.53 11.06-8.18 16.47-4.35 8.9-8.85 18.11-13.75 26.95-0.22 0.39-0.4 0.87-0.52 1.37-0.11 0.45-0.18 1.06 0.13 1.53 0.3 0.46 0.87 0.64 1.29 0.71 0.74 0.13 1.52 0.14 2.32 0.14 37.99 0.03 75.96 0.03 113.93 0 0.86 0 1.76-0.03 2.75-0.09 0.89-0.07 1.53-0.32 1.77-0.69 0.24-0.38 0.18-1.04-0.15-1.88-0.55-1.36-1.22-2.8-2.18-4.64-14.35-27.74-28.7-55.47-43.07-83.21-0.93-1.8-1.42-3.43-1.54-5.13-0.12-1.75-0.08-3.5-0.04-5.19 0.02-0.91 0.04-1.82 0.04-2.73 0-8.7-0.03-18.05-0.08-30.32-0.01-2.85 0.52-6.81 5.26-8.2 0.59-0.17 1.01-0.64 1.1-1.22 0.37-2.3 0.22-3.79-0.46-4.58-0.55-0.65-1.67-0.94-3.26-0.96-7.17 0.04-14.44 0.03-21.48 0.03h-7.9z"/>
						
						
							<path class="st30" d="m-691.73 8.3c-0.65-1.62-1.43-3.21-2.24-4.77-14.35-27.74-28.7-55.47-43.07-83.21-0.75-1.45-1.27-2.94-1.39-4.58-0.18-2.6 0.01-5.21 0-7.83 0-10.1-0.04-20.21-0.08-30.32-0.01-3.18 0.75-5.82 4.26-6.85 1.09-0.31 1.91-1.21 2.09-2.35 0.74-4.63-0.35-7.18-5.1-7.16-11.12 0.06-22.22 0.01-33.32 0.02-0.8 0.01-1.62 0.1-2.41 0.24-1.13 0.23-1.98 0.88-2.52 1.91-1.52 3.01-0.29 6.5 2.81 7.77 1.85 0.76 2.87 2.13 3.08 4.08 0.12 1.04 0.16 2.09 0.15 3.13-0.13 10.86-0.18 21.74 0.02 32.6 0.07 4.11-0.57 7.92-2.64 11.6-7.6 13.5-14.7 27.29-21.77 41.08-7.39 14.42-14.04 29.2-21.91 43.39-0.29 0.53-0.51 1.12-0.65 1.72-0.52 2.04 0.5 3.62 2.55 3.96 0.83 0.15 1.71 0.16 2.55 0.16 19.23 0.01 38.45 0.01 57.67 0.01 18.75 0 37.51 0 56.26-0.01 0.94 0 1.89-0.04 2.84-0.1 2.79-0.21 3.87-1.87 2.82-4.49zm-39.92-53.35c0.83 5.25-2.75 10.21-8 11.04-0.51 0.08-1.03 0.12-1.52 0.12-4.66 0-8.76-3.37-9.52-8.1-0.85-5.25 2.75-10.2 7.98-11.04 5.27-0.83 10.21 2.73 11.06 7.98zm-23.72-29.75c1.75-0.28 3.51 0.15 4.94 1.17 1.44 1.04 2.38 2.58 2.66 4.32 0.06 0.36 0.08 0.73 0.08 1.08 0 1.38-0.44 2.72-1.26 3.86-1.03 1.44-2.56 2.38-4.32 2.66-0.35 0.06-0.71 0.08-1.06 0.08-1.38 0-2.72-0.44-3.86-1.26-1.44-1.04-2.38-2.56-2.66-4.32-0.58-3.6 1.88-7.01 5.48-7.59zm-14.26 19.5c3.21-0.52 6.22 1.67 6.73 4.86v0.01c0.51 3.19-1.67 6.21-4.86 6.73-0.31 0.05-0.63 0.07-0.94 0.07-1.22 0-2.42-0.39-3.43-1.11-1.27-0.92-2.1-2.27-2.35-3.82-0.53-3.21 1.66-6.22 4.85-6.74zm63.13 57.45c-1.1 1.86-3.3 1.87-5.65 1.87-7.96 0.01-29.28 0.01-48.81 0.01h-34.99c-2.61 0-4.87 0-6.01-1.86s-0.14-3.81 1.12-6.25l1.69-3.29c4.09-7.97 8.32-16.21 12.59-24.4 0.16-0.31 0.31-0.63 0.45-0.94 1.04-2.24 2.78-5.99 9.13-3.92 3.51 1.14 23.84 7.58 29.53 8.76 5.96 1.23 12.2 0.83 19.66-1.23 2.42-0.68 5.9-1.04 8.25 3.48 2.77 5.35 5.75 10.7 8.61 15.88l0.38 0.68c0.98 1.74 1.95 3.5 2.91 5.25 1.15 2.11 2.25 4.1 1.14 5.96z"/>
						
					
				
				
					<path class="st0" d="m-707.64-3.81c-0.97-1.75-1.94-3.51-2.91-5.25l-0.38-0.68c-2.87-5.18-5.84-10.54-8.61-15.88-2.35-4.52-5.83-4.16-8.25-3.48-7.45 2.07-13.69 2.47-19.66 1.23-5.68-1.17-26.02-7.62-29.53-8.76-6.35-2.07-8.09 1.68-9.13 3.92-0.13 0.31-0.29 0.63-0.45 0.94-4.27 8.19-8.5 16.43-12.59 24.4l-1.69 3.29c-1.27 2.44-2.26 4.39-1.12 6.25s3.4 1.86 6.01 1.86h34.99c19.52 0 40.85 0 48.81-0.01 2.35 0 4.55-0.01 5.65-1.87 1.11-1.86 0.01-3.85-1.14-5.96zm-4.52 2.67c-11.7 0.02-52.29 0.02-73.6 0.01h-10.79c0.11-0.23 0.22-0.45 0.3-0.59l1.8-3.52c4.08-7.92 8.29-16.11 12.47-24.14 0.21-0.39 0.39-0.77 0.57-1.17 0.85-1.83 0.83-1.83 2.85-1.17 3.54 1.16 24.18 7.69 30.07 8.91 6.8 1.39 13.81 0.98 22.07-1.33 1.55-0.42 1.67-0.31 2.3 0.91 2.81 5.39 5.79 10.79 8.68 16 1.09 1.97 2.18 3.94 3.27 5.91 0.04 0.05 0.06 0.12 0.11 0.18-0.03 0-0.02 0.01-0.1 0z"/>
				
				
					<path class="st0" d="m-712.05-1.14c-0.04 0-0.02 0.01-0.11 0-11.7 0.02-52.29 0.02-73.6 0.01h-10.79c0.11-0.23 0.22-0.45 0.3-0.59l1.8-3.52c4.08-7.92 8.29-16.11 12.47-24.14 0.21-0.39 0.39-0.77 0.57-1.17 0.85-1.83 0.83-1.83 2.85-1.17 3.54 1.16 24.18 7.69 30.07 8.91 6.8 1.39 13.81 0.98 22.07-1.33 1.55-0.42 1.67-0.31 2.3 0.91 2.81 5.39 5.79 10.79 8.68 16 1.09 1.97 2.18 3.94 3.27 5.91 0.04 0.05 0.07 0.12 0.12 0.18z"/>
				
				
					
						<path class="st0" d="m-731.65-45.05c-0.85-5.25-5.79-8.82-11.06-7.98-5.24 0.85-8.83 5.79-7.98 11.04 0.76 4.73 4.86 8.1 9.52 8.1 0.5 0 1.02-0.04 1.52-0.12 5.26-0.83 8.84-5.79 8-11.04zm-8.61 7.15c-3.1 0.5-6.04-1.62-6.53-4.72-0.5-3.1 1.62-6.02 4.72-6.52 0.3-0.05 0.6-0.07 0.91-0.07 2.75 0 5.16 2 5.61 4.79 0.5 3.1-1.61 6.03-4.71 6.52z"/>
					
					
						<path class="st0" d="m-740.26-37.9c-3.1 0.5-6.04-1.62-6.53-4.72-0.5-3.1 1.62-6.02 4.72-6.52 0.3-0.05 0.6-0.07 0.91-0.07 2.75 0 5.16 2 5.61 4.79 0.5 3.1-1.61 6.03-4.71 6.52z"/>
					
				
				
					
						<path class="st0" d="m-747.77-69.31c-0.28-1.74-1.22-3.28-2.66-4.32-1.43-1.03-3.18-1.45-4.94-1.17-3.6 0.58-6.06 3.99-5.48 7.6 0.28 1.75 1.22 3.28 2.66 4.32 1.14 0.82 2.48 1.26 3.86 1.26 0.35 0 0.71-0.02 1.06-0.08 1.75-0.28 3.29-1.22 4.32-2.66 0.82-1.14 1.26-2.48 1.26-3.86 0-0.36-0.02-0.73-0.08-1.09zm-4.37 2.62c-0.42 0.58-1.04 0.96-1.74 1.08-0.71 0.11-1.42-0.06-2-0.47-0.58-0.42-0.97-1.04-1.08-1.75-0.23-1.45 0.76-2.83 2.21-3.06 0.14-0.02 0.29-0.04 0.44-0.04 1.28 0 2.43 0.93 2.64 2.25 0.11 0.7-0.06 1.41-0.47 1.99z"/>
					
					
						<path class="st0" d="m-752.14-66.69c-0.42 0.58-1.04 0.96-1.74 1.08-0.71 0.11-1.42-0.06-2-0.47-0.58-0.42-0.97-1.04-1.08-1.75-0.23-1.45 0.76-2.83 2.21-3.06 0.14-0.02 0.29-0.04 0.44-0.04 1.28 0 2.43 0.93 2.64 2.25 0.11 0.7-0.06 1.41-0.47 1.99z"/>
					
				
				
					
						<path class="st0" d="m-762.9-50.43v-0.01c-0.51-3.19-3.52-5.38-6.73-4.86-3.19 0.52-5.38 3.53-4.86 6.74 0.24 1.55 1.08 2.9 2.35 3.82 1.02 0.73 2.21 1.11 3.43 1.11 0.31 0 0.63-0.02 0.94-0.07 3.2-0.52 5.37-3.54 4.87-6.73zm-5.5 2.83c-0.51 0.07-1.02-0.05-1.43-0.35-0.42-0.29-0.69-0.74-0.77-1.25-0.17-1.05 0.54-2.03 1.6-2.2 0.1-0.02 0.21-0.02 0.3-0.02 0.93 0 1.74 0.67 1.9 1.61 0.17 1.05-0.54 2.04-1.6 2.21z"/>
					
					
						<path class="st0" d="m-768.4-47.6c-0.51 0.07-1.02-0.05-1.43-0.35-0.42-0.29-0.69-0.74-0.77-1.25-0.17-1.05 0.54-2.03 1.6-2.2 0.1-0.02 0.21-0.02 0.3-0.02 0.93 0 1.74 0.67 1.9 1.61 0.17 1.05-0.54 2.04-1.6 2.21z"/>
					
				
			
		
	</g>





































</svg>
