<?xml version="1.0" encoding="UTF-8"?>
<svg width="262.36" height="262.36" version="1.1" viewBox="0 0 262.36 262.36" xml:space="preserve" xmlns="http://www.w3.org/2000/svg">
<style type="text/css">
	.st0{fill:#181825;}
	.st1{fill-rule:evenodd;clip-rule:evenodd;fill:#F4D78A;}
	.st2{fill-rule:evenodd;clip-rule:evenodd;fill:#E26350;}
	.st3{fill-rule:evenodd;clip-rule:evenodd;fill:#F5D149;}
	.st4{fill:#F4D78A;}
	.st5{opacity:0.6;}
	.st6{clip-path:url(#SVGID_2_);}
	.st7{clip-path:url(#SVGID_4_);}
	.st8{clip-path:url(#SVGID_6_);}
	.st9{clip-path:url(#SVGID_8_);}
	.st10{fill:#E26350;}
	.st11{clip-path:url(#SVGID_10_);}
	.st12{clip-path:url(#SVGID_12_);}
	.st13{clip-path:url(#SVGID_14_);}
	.st14{clip-path:url(#SVGID_16_);}
	.st15{fill:none;stroke:#000000;stroke-width:10;stroke-linecap:round;stroke-miterlimit:10;}
	.st16{clip-path:url(#SVGID_18_);}
	.st17{clip-path:url(#SVGID_20_);}
	.st18{clip-path:url(#SVGID_22_);}
	.st19{clip-path:url(#SVGID_24_);}
	.st20{fill:#F9F6F6;}
	.st21{fill:none;stroke:#181825;stroke-width:10;stroke-linecap:round;stroke-miterlimit:10;}
	.st22{opacity:0.76;}
	.st23{fill:#AA6E00;}
	.st24{fill:#E9B31F;}
	.st25{fill:#EAB41F;}
	.st26{clip-path:url(#SVGID_26_);}
	.st27{fill:#181825;stroke:#181825;stroke-width:2;stroke-miterlimit:10;}
	.st28{fill:#7B2F28;}
	.st29{fill-rule:evenodd;clip-rule:evenodd;fill:#181825;}
	.st30{fill:#F9F6F6;stroke:#F9F6F6;stroke-miterlimit:10;}
	.st31{fill:none;stroke:#F9F6F6;stroke-width:8;stroke-linecap:round;stroke-linejoin:round;stroke-miterlimit:10;}
	.st32{fill:none;stroke:#181825;stroke-width:8;stroke-linecap:round;stroke-linejoin:round;stroke-miterlimit:10;}
	.st33{clip-path:url(#SVGID_28_);}
	.st34{fill:none;}
	.st35{opacity:0.5;}
	.st36{fill:none;stroke:#F9F6F6;stroke-width:8;stroke-miterlimit:10;}
	.st37{fill:#171825;}
	.st38{clip-path:url(#SVGID_36_);}
	.st39{clip-path:url(#SVGID_38_);}
	.st40{clip-path:url(#SVGID_40_);}
	.st41{clip-path:url(#SVGID_42_);}
	.st42{fill:none;stroke:#F9F6F6;stroke-width:12;stroke-linecap:round;stroke-miterlimit:10;}
	.st43{fill:none;stroke:#E26350;stroke-width:3;stroke-miterlimit:10;}
	.st44{opacity:0.5;fill:#F4D78A;}
	.st45{opacity:0.5;fill:#79769F;}
	.st46{font-family:'Poppins-Bold';}
	.st47{font-size:118.4928px;}
	.st48{fill:none;stroke:#181825;stroke-width:3;stroke-miterlimit:10;}
	.st49{clip-path:url(#SVGID_44_);}
	.st50{clip-path:url(#SVGID_46_);}
	.st51{clip-path:url(#SVGID_48_);}
	.st52{clip-path:url(#SVGID_50_);}
	.st53{font-size:140px;}
</style>














<g transform="translate(1692.2 -737.38)">
			
				
					<path class="st28" d="m-1429.8 868.56c0 72.45-58.73 131.18-131.18 131.18-41.76 0-78.96-19.51-102.97-49.91-17.67-22.35-28.21-50.58-28.21-81.27 0-72.45 58.73-131.18 131.18-131.18 36.35 0 69.24 14.78 92.99 38.66 23.61 23.72 38.19 56.42 38.19 92.52z"/>
				
				
					<path class="st10" d="m-1439.8 857.31c0 72.45-58.73 131.18-131.18 131.18-36.35 0-69.24-14.78-92.99-38.66-17.67-22.35-28.21-50.58-28.21-81.27 0-72.45 58.73-131.18 131.18-131.18 36.35 0 69.24 14.78 92.99 38.66 17.67 22.34 28.21 50.57 28.21 81.27z"/>
				
			
			
				
					<path class="st0" d="m-1480 803.32-15.74-15.76c-3.25-3.25-8.53-3.25-11.79 0l-11.6 11.51-9.72 9.72-27.22 27.26-37.31 37.45-32.42 32.38-1.91 2.03c-0.27 0.26-0.47 0.58-0.61 0.92l-7.98 19.63-7.87 19.68c-0.14 0.33-0.21 0.7-0.21 1.06 0.01 0.68 0.29 1.33 0.77 1.81 0.5 0.59 1.23 0.94 2.01 0.97 0.36-0.01 0.72-0.09 1.05-0.22l19.66-7.84 19.63-7.86c0.34-0.14 0.66-0.34 0.92-0.62l1.91-1.91 32.56-32.53 37.31-37.31 27.21-27.25 9.73-9.73 11.62-11.6c3.25-3.25 3.25-8.53 0-11.79z"/>
					<path class="st0" d="m-1641.6 953.99h-0.07c-1.3-0.05-2.54-0.64-3.4-1.61-0.82-0.85-1.28-1.96-1.3-3.13 0-0.65 0.13-1.29 0.37-1.86l7.86-19.65 7.98-19.64c0.25-0.63 0.62-1.17 1.08-1.61l1.85-1.96 32.46-32.42 37.31-37.45 36.95-36.98 11.6-11.52c4.03-4.02 10.59-4.02 14.61 0.01l15.74 15.76c4.02 4.04 4.02 10.59 0 14.61l-21.35 21.33-64.52 64.56-34.48 34.44c-0.39 0.42-0.94 0.8-1.58 1.06l-39.3 15.71c-0.53 0.22-1.12 0.35-1.73 0.37zm140-166.86c-1.62 0-3.25 0.62-4.49 1.85l-11.6 11.51-36.94 36.97-37.31 37.45-32.43 32.38-1.87 1.99c-0.09 0.09-0.16 0.16-0.21 0.3l-7.98 19.63-7.87 19.67c-0.05 0.12-0.07 0.22-0.07 0.32 0 0.17 0.1 0.31 0.18 0.39l0.11 0.11c0.13 0.15 0.31 0.25 0.51 0.27 0.09-0.01 0.18-0.03 0.26-0.07l39.32-15.71c0.12-0.05 0.18-0.1 0.19-0.12l120.41-120.39c2.46-2.46 2.46-6.49 0-8.96l-15.73-15.75c-1.24-1.22-2.86-1.84-4.48-1.84z"/>
				
				
					
						<path class="st20" d="m-1589.6 802.66c-10.43-10.18-27.13-9.99-37.31 0.43-10.02 10.26-10.02 26.64 0 36.88l29.58 29.58 3.95-3.95 29.42-29.41 3.95-3.96z"/>
						<path class="st0" d="m-1597.4 872.38-30.99-30.99c-10.71-10.95-10.71-28.75-0.02-39.7 10.94-11.19 28.94-11.39 40.14-0.46l31.01 31.01-5.36 5.37zm-10.71-75.22c-6.34 0-12.67 2.45-17.44 7.33-9.19 9.4-9.19 24.69 0 34.09l28.15 28.15 34.48-34.48-28.16-28.16c-4.73-4.63-10.88-6.93-17.03-6.93z"/>
					
					
						<path class="st20" d="m-1478.4 913.89-46.25-46.25-28.03 28.08-9.21 9.23 46.16 46.23c1.08 1.09 2.85 1.1 3.94 0.02 0 0 0.01-0.01 0.01-0.02l33.36-33.35c1.09-1.1 1.1-2.85 0.02-3.94z"/>
						<path class="st0" d="m-1513.7 954h-0.03c-1.28-0.01-2.48-0.51-3.37-1.42l-47.56-47.64 40.06-40.14 47.68 47.68c1.85 1.86 1.83 4.9-0.03 6.76l-33.38 33.37c-0.91 0.9-2.1 1.39-3.37 1.39zm-45.31-49.06 44.75 44.82c0.21 0.21 0.43 0.23 0.56 0.24 0.11 0 0.29-0.02 0.47-0.16l0.08-0.08 33.36-33.35c0.31-0.31 0.32-0.8 0.02-1.11l-44.83-44.83z"/>
					
				
				
					
						<path class="st20" d="m-1604.2 931.17-1.6 1.58-16.18 6.53c-1.64-4.63-5.28-8.28-9.93-9.92l6.5-16.22 1.58-1.6c1.08-1.06 2.81-1.06 3.89 0 1.09 1.08 1.1 2.83 0.02 3.93l-0.02 0.02c-1.08 1.08-1.07 2.85 0.01 3.93 0.27 0.26 0.57 0.46 0.91 0.6 0.33 0.14 0.7 0.2 1.06 0.19 0.73 0 1.42-0.29 1.95-0.8 1.09-1.09 2.86-1.09 3.95 0s1.09 2.86 0 3.95c-1.08 1.09-1.08 2.83 0 3.93 0.78 0.78 1.97 1.03 3.01 0.61 0.34-0.14 0.65-0.34 0.91-0.61 1.08-1.09 2.85-1.1 3.94-0.02 0 0.01 0.01 0.01 0.01 0.02 1.05 1.07 1.05 2.8-0.01 3.88z"/>
					
					
						<path class="st20" d="m-1485.8 812.9c-0.01 0.01-0.01 0.01-0.02 0.01l-9.65 9.63-19.63-19.68 9.63-9.63c1.08-1.09 2.83-1.09 3.93-0.01 0.01 0 0.01 0.01 0.02 0.01l15.7 15.74c1.09 1.09 1.1 2.84 0.02 3.93z"/>
					
					
						<polygon class="st20" points="-1524.8 812.62 -1519.1 806.81 -1499.4 826.46 -1505.2 832.24"/>
					
				
				
					
						<path class="st0" d="m-1570.4 830.85-9.15 9.15c-1.08 1.09-2.83 1.1-3.93 0.02l-0.02-0.02c-1.06-1.08-1.03-2.83 0-3.95l9.15-9.15z"/>
					
					
						<path class="st0" d="m-1592.6 825.51c0 6.91-5.61 12.52-12.52 12.52-6.9 0-12.5-5.61-12.5-12.52 0.01-6.9 5.61-12.49 12.5-12.52 6.92 0.01 12.52 5.61 12.52 12.52z"/>
					
					
						<path class="st0" d="m-1543.4 909.51-3.58 3.58-3.95-3.95 3.58-3.58c1.09-1.09 2.86-1.09 3.95 0s1.09 2.86 0 3.95z"/>
					
					
						<path class="st0" d="m-1535 917.85-3.58 3.58-3.95-3.95 3.58-3.58c1.09-1.09 2.86-1.09 3.95 0 1.09 1.08 1.09 2.86 0 3.95z"/>
					
					
						<path class="st0" d="m-1526.7 926.18-3.59 3.59-3.95-3.95 3.59-3.59c1.08-1.09 2.86-1.09 3.95 0 1.09 1.1 1.09 2.86 0 3.95z"/>
					
					
						<path class="st0" d="m-1518.4 934.53-3.58 3.58-3.95-3.95 3.58-3.58c1.09-1.09 2.86-1.09 3.95 0s1.09 2.86 0 3.95z"/>
					
					
						<path class="st0" d="m-1487 914.26-9.15 9.15c-1.08 1.09-2.85 1.1-3.94 0.02 0-0.01-0.01-0.01-0.01-0.02-1.09-1.08-1.1-2.83-0.02-3.93l9.17-9.17z"/>
					
					
						<path class="st0" d="m-1495.3 905.92-9.15 9.15c-0.52 0.51-1.24 0.8-1.98 0.8s-1.44-0.29-1.97-0.8c-1.09-1.08-1.1-2.85-0.02-3.94 0.01 0 0.01-0.01 0.02-0.01l9.15-9.16z"/>
					
					
						<path class="st0" d="m-1503.6 897.58-9.15 9.15c-1.08 1.09-2.83 1.1-3.93 0.01-0.01 0-0.01-0.01-0.02-0.01-1.09-1.08-1.09-2.85-0.01-3.94l9.16-9.16z"/>
					
					
						<path class="st0" d="m-1512 889.24-9.16 9.15c-1.08 1.09-2.83 1.1-3.93 0.02l-0.02-0.02c-1.09-1.08-1.09-2.83-0.01-3.93 0-0.01 0.01-0.01 0.01-0.02l9.16-9.15z"/>
					
					
						<path class="st0" d="m-1520.3 880.89-9.15 9.16c-1.08 1.08-2.85 1.09-3.94 0.01l-0.01-0.01c-1.09-1.09-1.1-2.85-0.02-3.94l9.17-9.17z"/>
					
				
			
		</g>




































</svg>
