<?xml version="1.0" encoding="UTF-8" standalone="no"?>
<svg
   xmlns:dc="http://purl.org/dc/elements/1.1/"
   xmlns:cc="http://creativecommons.org/ns#"
   xmlns:rdf="http://www.w3.org/1999/02/22-rdf-syntax-ns#"
   xmlns:svg="http://www.w3.org/2000/svg"
   xmlns="http://www.w3.org/2000/svg"
   xmlns:sodipodi="http://sodipodi.sourceforge.net/DTD/sodipodi-0.dtd"
   xmlns:inkscape="http://www.inkscape.org/namespaces/inkscape"
   width="1780.2"
   height="547.69"
   version="1.1"
   viewBox="0 0 1780.2 547.69"
   xml:space="preserve"
   id="svg1615"
   sodipodi:docname="psicotl.svg"
   inkscape:version="1.0.2 (e86c870879, 2021-01-15)"><metadata
   id="metadata1621"><rdf:RDF><cc:Work
       rdf:about=""><dc:format>image/svg+xml</dc:format><dc:type
         rdf:resource="http://purl.org/dc/dcmitype/StillImage" /><dc:title></dc:title></cc:Work></rdf:RDF></metadata><defs
   id="defs1619" /><sodipodi:namedview
   pagecolor="#ffffff"
   bordercolor="#666666"
   borderopacity="1"
   objecttolerance="10"
   gridtolerance="10"
   guidetolerance="10"
   inkscape:pageopacity="0"
   inkscape:pageshadow="2"
   inkscape:window-width="1366"
   inkscape:window-height="734"
   id="namedview1617"
   showgrid="false"
   inkscape:zoom="0.67487858"
   inkscape:cx="1664.1933"
   inkscape:cy="273.845"
   inkscape:window-x="0"
   inkscape:window-y="18"
   inkscape:window-maximized="1"
   inkscape:current-layer="svg1615" />
<style
   type="text/css"
   id="style1487">
	.st0{fill:#181825;}
	.st1{fill:#F9F6F6;}
	.st2{font-family:'Bebas-Regular';}
	.st3{font-size:46.5487px;}
	.st4{fill-rule:evenodd;clip-rule:evenodd;fill:#F4D78A;}
	.st5{fill-rule:evenodd;clip-rule:evenodd;fill:#E26350;}
	.st6{fill-rule:evenodd;clip-rule:evenodd;fill:#F5D149;}
	.st7{fill:#F4D78A;}
	.st8{opacity:0.6;}
	.st9{clip-path:url(#SVGID_2_);}
	.st10{clip-path:url(#SVGID_4_);}
	.st11{clip-path:url(#SVGID_6_);}
	.st12{clip-path:url(#SVGID_8_);}
	.st13{fill:#E26350;}
	.st14{fill:#E9B31F;}
	.st15{font-family:'Poppins-BoldItalic';}
	.st16{font-size:186.1652px;}
	.st17{font-family:'Poppins-SemiBold';}
	.st18{font-size:56.5942px;}
	.st19{font-family:'Poppins-Light';}
	.st20{font-size:33px;}
	.st21{font-family:'Poppins-ExtraBoldItalic';}
	.st22{font-size:118.4928px;}
	.st23{fill:#AA6E00;}
	.st24{font-size:45px;}
	.st25{font-family:'Poppins-Bold';}
	.st26{fill:none;stroke:#F9F6F6;stroke-width:12;stroke-linecap:round;stroke-miterlimit:10;}
	.st27{fill:none;stroke:#E9B31F;stroke-width:3;stroke-miterlimit:10;}
	.st28{font-size:30px;}
	.st29{enable-background:new    ;}
	.st30{font-family:'Poppins-Medium';}
	.st31{font-size:64.6956px;}
	.st32{letter-spacing:-1.8;}
	.st33{fill:none;stroke:#181825;stroke-width:3;stroke-miterlimit:10;}
	.st34{fill:#EAB41F;}
	.st35{font-size:82px;}
	.st36{font-size:57px;}
	.st37{fill:none;stroke:#F9F6F6;stroke-width:8;stroke-miterlimit:10;}
	.st38{fill:#171825;}
	.st39{clip-path:url(#SVGID_10_);}
	.st40{clip-path:url(#SVGID_12_);}
	.st41{clip-path:url(#SVGID_14_);}
	.st42{clip-path:url(#SVGID_16_);}
	.st43{fill:#F7F5F5;}
	.st44{font-size:34.9334px;}
	.st45{fill:none;}
	.st46{clip-path:url(#SVGID_18_);}
	.st47{fill:#181825;stroke:#181825;stroke-width:2;stroke-miterlimit:10;}
	.st48{font-family:'Poppins-Regular';}
	.st49{font-size:36.1931px;}
	.st50{font-size:50.3301px;}
</style>


























<g
   transform="translate(-106.11,-2267.8)"
   id="g1613">
	<line
   class="st26"
   x1="241.3"
   x2="1678.7"
   y1="2542.1001"
   y2="2542.1001"
   id="line1489" />
	
		
			<path
   class="st14"
   d="m 241.3,2500.5 c -23.5,0 -42.5,19 -42.5,42.5 0,23.5 19,42.5 42.5,42.5 23.5,0 42.5,-19 42.5,-42.5 0,-23.5 -19,-42.5 -42.5,-42.5 z m 0,74 c -17.4,0 -31.5,-14.1 -31.5,-31.5 0,-17.4 14.1,-31.5 31.5,-31.5 17.4,0 31.5,14.1 31.5,31.5 0,17.4 -14.1,31.5 -31.5,31.5 z"
   id="path1491" />
			<circle
   class="st1"
   cx="241.3"
   cy="2543"
   r="20.5"
   id="circle1493" />
		
		
			
				<line
   class="st27"
   x1="241.3"
   x2="241.3"
   y1="2585.5"
   y2="2683.8"
   id="line1495" />
				
					<circle
   class="st14"
   cx="241.3"
   cy="2683.2"
   r="11.3"
   id="circle1497" />
				
			
		
	
	
		
			<path
   class="st14"
   d="m 528.8,2499.5 c -23.5,0 -42.5,19 -42.5,42.5 0,23.5 19,42.5 42.5,42.5 23.5,0 42.5,-19 42.5,-42.5 0,-23.5 -19,-42.5 -42.5,-42.5 z m 0,74 c -17.4,0 -31.5,-14.1 -31.5,-31.5 0,-17.4 14.1,-31.5 31.5,-31.5 17.4,0 31.5,14.1 31.5,31.5 0,17.4 -14.1,31.5 -31.5,31.5 z"
   id="path1499" />
			<circle
   class="st1"
   cx="528.79999"
   cy="2542"
   r="20.5"
   id="circle1501" />
		
		
			
				<line
   class="st27"
   x1="527.79999"
   x2="527.79999"
   y1="2499.5"
   y2="2401.2"
   id="line1503" />
				
					<circle
   class="st14"
   cx="527.79999"
   cy="2401.8"
   r="11.3"
   id="circle1505" />
				
			
		
	
	
		
			<path
   class="st14"
   d="m 816.3,2498.5 c -23.5,0 -42.5,19 -42.5,42.5 0,23.5 19,42.5 42.5,42.5 23.5,0 42.5,-19 42.5,-42.5 0,-23.5 -19,-42.5 -42.5,-42.5 z m 0,74 c -17.4,0 -31.5,-14.1 -31.5,-31.5 0,-17.4 14.1,-31.5 31.5,-31.5 17.4,0 31.5,14.1 31.5,31.5 0,17.4 -14.1,31.5 -31.5,31.5 z"
   id="path1507" />
			<circle
   class="st1"
   cx="816.29999"
   cy="2541"
   r="20.5"
   id="circle1509" />
		
		
			
				<line
   class="st27"
   x1="818.29999"
   x2="818.29999"
   y1="2583.5"
   y2="2681.8"
   id="line1511" />
				
					<circle
   class="st14"
   cx="818.29999"
   cy="2681.2"
   r="11.3"
   id="circle1513" />
				
			
		
	
	
		
			<path
   class="st14"
   d="m 1391.2,2496.5 c -23.5,0 -42.5,19 -42.5,42.5 0,23.5 19,42.5 42.5,42.5 23.5,0 42.5,-19 42.5,-42.5 0,-23.5 -19,-42.5 -42.5,-42.5 z m 0,74 c -17.4,0 -31.5,-14.1 -31.5,-31.5 0,-17.4 14.1,-31.5 31.5,-31.5 17.4,0 31.5,14.1 31.5,31.5 0,17.4 -14.1,31.5 -31.5,31.5 z"
   id="path1515" />
			<circle
   class="st1"
   cx="1391.2"
   cy="2539"
   r="20.5"
   id="circle1517" />
		
		
			
				<line
   class="st27"
   x1="1392.2"
   x2="1392.2"
   y1="2582.5"
   y2="2680.8"
   id="line1519" />
				
					<circle
   class="st14"
   cx="1392.2"
   cy="2680.2"
   r="11.3"
   id="circle1521" />
				
			
		
	
	
		
			<path
   class="st14"
   d="m 1103.7,2497.5 c -23.5,0 -42.5,19 -42.5,42.5 0,23.5 19,42.5 42.5,42.5 23.5,0 42.5,-19 42.5,-42.5 0,-23.5 -19,-42.5 -42.5,-42.5 z m 0,74 c -17.4,0 -31.5,-14.1 -31.5,-31.5 0,-17.4 14.1,-31.5 31.5,-31.5 17.4,0 31.5,14.1 31.5,31.5 0,17.4 -14.1,31.5 -31.5,31.5 z"
   id="path1523" />
			<circle
   class="st1"
   cx="1103.7"
   cy="2540"
   r="20.5"
   id="circle1525" />
		
		
			
				<line
   class="st27"
   x1="1104.7"
   x2="1104.7"
   y1="2497.5"
   y2="2399.2"
   id="line1527" />
				
					<circle
   class="st14"
   cx="1104.7"
   cy="2399.8"
   r="11.3"
   id="circle1529" />
				
			
		
	
	
		
			<path
   class="st14"
   d="m 1678.7,2497.5 c -23.5,0 -42.5,19 -42.5,42.5 0,23.5 19,42.5 42.5,42.5 23.5,0 42.5,-19 42.5,-42.5 0,-23.5 -19,-42.5 -42.5,-42.5 z m 0,74 c -17.4,0 -31.5,-14.1 -31.5,-31.5 0,-17.4 14.1,-31.5 31.5,-31.5 17.4,0 31.5,14.1 31.5,31.5 0,17.4 -14.1,31.5 -31.5,31.5 z"
   id="path1531" />
			<circle
   class="st1"
   cx="1678.7"
   cy="2540"
   r="20.5"
   id="circle1533" />
		
		
			
				<line
   class="st27"
   x1="1679.7"
   x2="1679.7"
   y1="2497.5"
   y2="2399.2"
   id="line1535" />
				
					<circle
   class="st14"
   cx="1679.7"
   cy="2399.8"
   r="11.3"
   id="circle1537" />
				
			
		
	

	<text
   class="st14 st25 st28"
   transform="translate(144.54,2735.3)"
   id="text1541"><tspan
     font-family="Poppins"
     font-weight="bold"
     id="tspan1539">May 1st, 2021</tspan></text>
<text
   class="st29"
   transform="translate(105,2771.3)"
   font-family="'Poppins Medium'"
   id="text1551"><tspan
     class="st1 st30 st28"
     x="0"
     y="0"
     id="tspan1547"><tspan
       id="tspan1543">Case Release </tspan><tspan
       id="tspan1545">and</tspan></tspan><tspan
     class="st1 st30 st28"
     x="45.099998"
     y="36"
     id="tspan1549">Registration</tspan></text><text
   class="st29"
   transform="translate(371.35,2290.9)"
   font-family="'Poppins Medium'"
   id="text1563"><tspan
     class="st1 st30 st28"
     x="0"
     y="0"
     id="tspan1559"><tspan
   id="tspan1553">Abstract</tspan> <tspan
   id="tspan1555">S</tspan><tspan
   id="tspan1557">ubmission</tspan></tspan><tspan
     class="st1 st30 st28"
     x="89.300003"
     y="36"
     id="tspan1561">Deadline</tspan></text>
	<text
   class="st14 st25 st28"
   transform="translate(416.03,2363.3)"
   id="text1567"><tspan
     font-family="Poppins"
     font-weight="bold"
     id="tspan1565">June 16th, 2021</tspan></text>
<text
   class="st29"
   transform="translate(1030.2,2290.9)"
   font-family="'Poppins Medium'"
   id="text1577"><tspan
     class="st1 st30 st28"
     x="0"
     y="0"
     id="tspan1573"><tspan
       id="tspan1569">Full Pape</tspan><tspan
       id="tspan1571">r</tspan></tspan><tspan
     class="st1 st30 st28"
     x="-85.300003"
     y="36"
     id="tspan1575">Submission Deadline</tspan></text>
	<text
   class="st14 st25 st28"
   transform="translate(944.26,2363.3)"
   id="text1581"><tspan
     font-family="Poppins"
     font-weight="bold"
     id="tspan1579">September 18th, 2021</tspan></text>
<text
   class="st1 st30 st28"
   transform="translate(1591.8,2327.3)"
   id="text1585"><tspan
     font-family="'Poppins Medium'"
     id="tspan1583">Grand Final</tspan></text>
	<text
   class="st14 st25 st28"
   transform="translate(1520,2363.3)"
   font-family="Poppins"
   id="text1589"><tspan
     font-family="Poppins"
     font-weight="bold"
     id="tspan1587">November 26th, 2021</tspan></text>

	<text
   class="st14 st25 st28"
   transform="translate(707.81,2735.3)"
   font-family="Poppins"
   id="text1593"><tspan
     font-family="Poppins"
     font-weight="bold"
     id="tspan1591">July 20th, 2021</tspan></text>
<text
   class="st29"
   transform="translate(684.1,2771.3)"
   font-family="'Poppins Medium'"
   id="text1603"><tspan
     class="st1 st30 st28"
     x="0"
     y="0"
     id="tspan1599"><tspan
       id="tspan1595">Selected Abstrac</tspan><tspan
       id="tspan1597">t</tspan></tspan><tspan
     class="st1 st30 st28"
     x="16.799999"
     y="36"
     id="tspan1601">Announcement</tspan></text>
	<text
   class="st14 st25 st28"
   transform="translate(1252.1,2735.3)"
   id="text1607"><tspan
     font-family="Poppins"
     font-weight="bold"
     id="tspan1605">October 25th, 2021</tspan></text>
<text
   class="st1 st30 st28"
   transform="translate(1217.9,2771.3)"
   id="text1611"><tspan
     font-family="'Poppins Medium'"
     id="tspan1609">Finalist Announcement</tspan></text></g>

























</svg>
