<?xml version="1.0" encoding="UTF-8"?>
<svg width="262.36" height="262.36" version="1.1" viewBox="0 0 262.36 262.36" xml:space="preserve" xmlns="http://www.w3.org/2000/svg">
<style type="text/css">
	.st0{fill:#181825;}
	.st1{fill-rule:evenodd;clip-rule:evenodd;fill:#F4D78A;}
	.st2{fill-rule:evenodd;clip-rule:evenodd;fill:#E26350;}
	.st3{fill-rule:evenodd;clip-rule:evenodd;fill:#F5D149;}
	.st4{fill:#F4D78A;}
	.st5{opacity:0.6;}
	.st6{clip-path:url(#SVGID_2_);}
	.st7{clip-path:url(#SVGID_4_);}
	.st8{clip-path:url(#SVGID_6_);}
	.st9{clip-path:url(#SVGID_8_);}
	.st10{fill:#E26350;}
	.st11{clip-path:url(#SVGID_10_);}
	.st12{clip-path:url(#SVGID_12_);}
	.st13{clip-path:url(#SVGID_14_);}
	.st14{clip-path:url(#SVGID_16_);}
	.st15{fill:none;stroke:#000000;stroke-width:10;stroke-linecap:round;stroke-miterlimit:10;}
	.st16{clip-path:url(#SVGID_18_);}
	.st17{clip-path:url(#SVGID_20_);}
	.st18{clip-path:url(#SVGID_22_);}
	.st19{clip-path:url(#SVGID_24_);}
	.st20{fill:#F9F6F6;}
	.st21{fill:none;stroke:#181825;stroke-width:10;stroke-linecap:round;stroke-miterlimit:10;}
	.st22{opacity:0.76;}
	.st23{fill:#AA6E00;}
	.st24{fill:#E9B31F;}
	.st25{fill:#EAB41F;}
	.st26{clip-path:url(#SVGID_26_);}
	.st27{fill:#181825;stroke:#181825;stroke-width:2;stroke-miterlimit:10;}
	.st28{fill:#7B2F28;}
	.st29{fill-rule:evenodd;clip-rule:evenodd;fill:#181825;}
	.st30{fill:#F9F6F6;stroke:#F9F6F6;stroke-miterlimit:10;}
	.st31{fill:none;stroke:#F9F6F6;stroke-width:8;stroke-linecap:round;stroke-linejoin:round;stroke-miterlimit:10;}
	.st32{fill:none;stroke:#181825;stroke-width:8;stroke-linecap:round;stroke-linejoin:round;stroke-miterlimit:10;}
	.st33{clip-path:url(#SVGID_28_);}
	.st34{fill:none;}
	.st35{opacity:0.5;}
	.st36{fill:none;stroke:#F9F6F6;stroke-width:8;stroke-miterlimit:10;}
	.st37{fill:#171825;}
	.st38{clip-path:url(#SVGID_36_);}
	.st39{clip-path:url(#SVGID_38_);}
	.st40{clip-path:url(#SVGID_40_);}
	.st41{clip-path:url(#SVGID_42_);}
	.st42{fill:none;stroke:#F9F6F6;stroke-width:12;stroke-linecap:round;stroke-miterlimit:10;}
	.st43{fill:none;stroke:#E26350;stroke-width:3;stroke-miterlimit:10;}
	.st44{opacity:0.5;fill:#F4D78A;}
	.st45{opacity:0.5;fill:#79769F;}
	.st46{font-family:'Poppins-Bold';}
	.st47{font-size:118.4928px;}
	.st48{fill:none;stroke:#181825;stroke-width:3;stroke-miterlimit:10;}
	.st49{clip-path:url(#SVGID_44_);}
	.st50{clip-path:url(#SVGID_46_);}
	.st51{clip-path:url(#SVGID_48_);}
	.st52{clip-path:url(#SVGID_50_);}
	.st53{font-size:140px;}
</style>














<g transform="translate(1109.2 -1476.8)">
		
			
				<path class="st28" d="m-846.82 1608c0 72.45-58.73 131.18-131.18 131.18-41.76 0-78.96-19.51-102.97-49.91-17.67-22.35-28.21-50.58-28.21-81.27 0-72.45 58.73-131.18 131.18-131.18 36.35 0 69.24 14.78 92.99 38.66 23.61 23.72 38.19 56.42 38.19 92.52z"/>
			
			
				<path class="st10" d="m-856.8 1596.8c0 72.45-58.73 131.18-131.18 131.18-36.35 0-69.24-14.78-92.99-38.66-17.67-22.35-28.21-50.58-28.21-81.27 0-72.45 58.73-131.18 131.18-131.18 36.35 0 69.24 14.78 92.99 38.66 17.67 22.34 28.21 50.57 28.21 81.27z"/>
			
		
		
			
				
					
						<polygon class="st20" points="-992.93 1665.6 -977.93 1703.7 -962.98 1665.6 -977.96 1645.8"/>
						<path class="st10" d="m-977.93 1710.6-17.84-45.34 17.81-23.5 17.81 23.48zm-12.16-44.56 12.15 30.88 12.11-30.9-12.13-16z"/>
					
					
						<polygon class="st20" points="-1020 1547.4 -997.73 1558.4 -992.97 1534.4 -1023 1506.6"/>
						<path class="st10" d="m-995.91 1562.1-26.43-13.15-3.63-48.61 35.72 33.13zm-21.66-16.35 18.02 8.96 3.85-19.47-24.34-22.57z"/>
					
					
						<polygon class="st20" points="-1024.4 1589.4 -1038.6 1570.8 -1079.1 1576.9 -1045.3 1600"/>
						<path class="st10" d="m-1045.5 1602.9-40.32-27.49 48.25-7.3 16.93 22.19zm-26.98-24.45 27.36 18.66 16.87-8.55-11.49-15.06z"/>
					
					
						<polygon class="st20" points="-1059.1 1664.7 -1019.9 1652.6 -1015.5 1629.2 -1038.6 1629.2"/>
						<path class="st10" d="m-1064.4 1669 24.35-42.25h27.53l-5.22 27.85zm27.24-37.25-16.55 28.72 31.61-9.76 3.56-18.96z"/>
					
					
						<polygon class="st20" points="-941.19 1629.2 -936 1652.6 -896.85 1664.6 -917.35 1629.2"/>
						<path class="st10" d="m-891.5 1668.9-46.63-14.33-6.18-27.81 28.4-0.09zm-42.38-18.25 31.68 9.73-16.59-28.69-19.29 0.06z"/>
					
					
						<polygon class="st20" points="-876.9 1576.8 -917.4 1570.7 -930.92 1589.4 -910.71 1599.9"/>
						<path class="st10" d="m-910.53 1602.8-24.11-12.52 16.11-22.28 48.3 7.25zm-16.66-14.29 16.31 8.47 27.32-18.68-32.7-4.91z"/>
					
					
						<polygon class="st20" points="-933.11 1506.5 -963.1 1534.4 -957.21 1557.4 -936.11 1547.3"/>
						<path class="st10" d="m-958.88 1561-7.01-27.4 35.75-33.23-3.57 48.64zm-1.43-25.76 4.77 18.64 17.05-8.13 2.43-33.05z"/>
					
				
				
					
						<polygon class="st0" points="-977.96 1553.4 -971.92 1553.4 -955.56 1553.4 -978 1496.3 -1000.4 1553.4"/>
						<path class="st10" d="m-951.89 1555.9h-52.21l26.11-66.46zm-44.88-5h37.54l-18.77-47.79z"/>
					
					
						<polygon class="st0" points="-1028.4 1588.5 -1000.4 1553.4 -1059.1 1535.3"/>
						<path class="st10" d="m-1028.8 1592.9-35.69-61.85 68.24 21.03zm-25-53.33 25.66 44.47 23.41-29.35z"/>
					
					
						<polygon class="st0" points="-1028.4 1588.5 -1079.1 1623.1 -1018.4 1632.2"/>
						<path class="st10" d="m-1015.2 1635.3-70.61-10.66 58.99-40.24zm-57.27-13.71 50.77 7.67-8.35-36.6z"/>
					
					
						<polygon class="st0" points="-978 1651.7 -1018.4 1632.2 -1023 1693.4"/>
						<path class="st10" d="m-1026 1699.6 5.32-71.21 47.04 22.65zm9.76-63.52-3.82 51.2 37.65-34.91z"/>
					
					
						<polygon class="st0" points="-932.99 1693.4 -937.56 1632.2 -978 1651.7"/>
						<path class="st10" d="m-930.03 1699.6-52.36-48.56 47.04-22.65zm-43.58-47.23 37.65 34.91-3.82-51.2z"/>
					
					
						<polygon class="st0" points="-927.58 1588.5 -937.56 1632.2 -876.87 1623.1"/>
						<path class="st10" d="m-940.82 1635.3 11.62-50.91 58.99 40.24zm14.86-42.65-8.35 36.6 50.77-7.67z"/>
					
					
						<polygon class="st0" points="-955.56 1553.4 -927.58 1588.5 -896.9 1535.3"/>
						<path class="st10" d="m-927.25 1592.9-32.55-40.82 68.24-21.03zm-24.07-38.21 23.41 29.35 25.66-44.47z"/>
					
				
				
					<path class="st0" d="m-978 1548.3c-28.56 0-51.72 23.15-51.72 51.72s23.15 51.72 51.72 51.72c28.56 0 51.72-23.15 51.72-51.72s-23.15-51.72-51.72-51.72z"/>
					<path class="st10" d="m-978 1654.2c-29.9 0-54.22-24.32-54.22-54.22s24.32-54.22 54.22-54.22 54.22 24.32 54.22 54.22-24.32 54.22-54.22 54.22zm0-103.44c-27.14 0-49.22 22.08-49.22 49.22s22.08 49.22 49.22 49.22 49.22-22.08 49.22-49.22-22.08-49.22-49.22-49.22z"/>
				
			
			
				
					<path class="st10" d="m-964.59 1614.7h-0.03-7.65v-2.62c0.03-1.04-0.64-1.98-1.64-2.26-5.31-1.4-10.78-2.1-16.28-2.09-9.04 0-21.34 2.04-30.44 11.29-9.04-9.35-21.42-11.29-30.44-11.29-5.48-0.02-10.97 0.69-16.28 2.09-1 0.28-1.67 1.22-1.62 2.26v2.59h-7.62c-1.25 0-2.26 1.01-2.26 2.26v72.13c0 1.25 1.01 2.26 2.26 2.26 0.39 0 0.78-0.11 1.11-0.3 0.23-0.11 22.81-12.46 54.34-4.52h0.55c0.17 0.03 0.36 0.03 0.55 0 31.61-8.01 54.18 4.32 54.32 4.52 0.7 0.41 1.56 0.41 2.26 0s1.12-1.14 1.12-1.95v-72.11c0-1.25-1-2.26-2.25-2.26zm-109.73 70.77v-66.25h5.41v56.63c-0.02 1.25 0.98 2.27 2.23 2.29 0.12 0 0.25-0.02 0.36-0.03 4.67-0.72 9.39-1.09 14.11-1.12 6.56-0.12 13.07 0.86 19.29 2.91-14.04-1.72-28.3 0.21-41.4 5.57zm22.11-12.99c-4.1 0.02-8.21 0.28-12.28 0.79v-59.41c4.39-0.98 8.88-1.48 13.38-1.5 8.46 0 20.11 1.95 28.18 11.08l0.08 56.24c-4.7-3.07-13.86-7.2-29.36-7.2zm33.88-49.04c8.09-9.04 19.74-11.08 28.18-11.08 4.5 0.02 8.99 0.51 13.38 1.5v59.41c-4.05-0.53-8.13-0.79-12.21-0.81-15.41 0-24.58 4.13-29.35 7.2zm51.45 62.03c-13.12-5.37-27.4-7.29-41.48-5.58 6.26-2.06 12.81-3.04 19.38-2.91 4.75 0.02 9.5 0.39 14.21 1.11 1.23 0.19 2.38-0.67 2.57-1.9 0.02-0.12 0.03-0.25 0.02-0.36v-56.61h5.41z"/>
				
				
					<path class="st0" d="m-1032.9 1679.9c-14.04-1.71-28.29 0.22-41.39 5.58v-66.25h5.41v56.63c-0.02 1.25 0.98 2.27 2.23 2.29 0.12 0 0.25-0.02 0.36-0.03 4.67-0.72 9.39-1.09 14.11-1.12 6.56-0.14 13.07 0.84 19.28 2.9z"/>
				
				
					<path class="st0" d="m-966.78 1619.3-0.09 66.25c-13.12-5.37-27.4-7.29-41.48-5.58 6.26-2.06 12.81-3.04 19.38-2.91 4.75 0.02 9.5 0.39 14.21 1.11 1.23 0.19 2.38-0.67 2.57-1.9 0.02-0.12 0.03-0.25 0.02-0.36v-56.61z"/>
				
				
					<path class="st20" d="m-976.77 1613.9v59.41c-4.05-0.53-8.13-0.79-12.21-0.81-15.41 0-24.58 4.13-29.35 7.2v-56.22c8.09-9.04 19.74-11.08 28.18-11.08 4.5 0.02 8.99 0.52 13.38 1.5z"/>
					<path class="st0" d="m-1019.8 1682.4v-59.54l0.38-0.43c8.56-9.57 20.66-11.58 29.3-11.58 4.62 0.02 9.23 0.53 13.71 1.53l1.17 0.26v62.33l-1.69-0.22c-3.93-0.51-7.97-0.78-12.03-0.8-14.65 0-23.6 3.78-28.53 6.96zm3-58.39v53.01c5.57-3.02 14.5-6.07 27.85-6.07 3.6 0.01 7.2 0.22 10.71 0.62v-56.51c-3.9-0.79-7.89-1.2-11.89-1.21-7.89 0.01-18.87 1.78-26.67 10.16z"/>
				
				
					<path class="st20" d="m-1022.8 1679.7c-4.7-3.07-13.86-7.2-29.36-7.2-4.1 0.02-8.21 0.28-12.28 0.79v-59.41c4.39-0.98 8.88-1.48 13.38-1.5 8.46 0 20.11 1.95 28.18 11.08z"/>
					<path class="st0" d="m-1021.3 1682.5-2.32-1.51c-4.86-3.17-13.76-6.95-28.55-6.95-4.02 0.01-8.09 0.28-12.09 0.78l-1.69 0.21v-62.32l1.17-0.26c4.48-1 9.09-1.52 13.7-1.53 8.7 0 20.85 2.01 29.31 11.58l0.38 0.42zm-30.88-11.47c13.45 0 22.34 3.04 27.87 6.05l-0.07-53.02c-7.71-8.38-18.73-10.15-26.68-10.15-3.99 0.01-7.99 0.42-11.88 1.21v56.51c3.56-0.38 7.18-0.59 10.76-0.6z"/>
				
			
		
	</g>




































</svg>
