<?xml version="1.0" encoding="UTF-8"?>
<svg width="52.9" height="79.9" version="1.1" viewBox="0 0 52.9 79.9" xml:space="preserve" xmlns="http://www.w3.org/2000/svg">
<style type="text/css">
	.st0{fill:#181825;}
	.st1{fill:#7B2F28;}
	.st2{fill:#E26350;}
	.st3{fill:#F9F6F6;}
	.st4{fill-rule:evenodd;clip-rule:evenodd;fill:#181825;}
	.st5{fill:#E9B31F;}
	.st6{font-family:'Poppins-BoldItalic';}
	.st7{font-size:161.0247px;}
	.st8{fill:none;}
	.st9{font-family:'Poppins-SemiBold';}
	.st10{font-size:28.5436px;}
	.st11{letter-spacing:2.7;}
	.st12{font-family:'Poppins-Regular';}
	.st13{letter-spacing:3.6;}
	.st14{letter-spacing:6.3;}
	.st15{letter-spacing:5.4;}
	.st16{fill:#AA6E00;}
	.st17{font-size:26.1914px;}
	.st18{fill:none;stroke:#AA6E00;stroke-width:3;stroke-miterlimit:10;}
	.st19{font-size:32.8683px;}
	.st20{clip-path:url(#SVGID_2_);}
	.st21{clip-path:url(#SVGID_4_);}
	.st22{font-family:'Bebas-Regular';}
	.st23{font-size:40.8501px;}
	.st24{fill-rule:evenodd;clip-rule:evenodd;fill:#F4D78A;}
	.st25{fill-rule:evenodd;clip-rule:evenodd;fill:#E26350;}
	.st26{fill-rule:evenodd;clip-rule:evenodd;fill:#F5D149;}
	.st27{fill:#F4D78A;}
	.st28{font-family:'Poppins-ExtraBold';}
	.st29{font-size:81.2035px;}
	.st30{letter-spacing:-1;}
	.st31{font-family:'Poppins-Bold';}
	.st32{font-size:102.4911px;}
	.st33{font-size:39.7879px;}
	.st34{fill:none;stroke:#F9F6F6;stroke-width:12;stroke-linecap:round;stroke-miterlimit:10;}
	.st35{fill:#79769E;}
	.st36{fill:none;stroke:#E9B31F;stroke-width:3;stroke-miterlimit:10;}
	.st37{fill:none;stroke:#79769E;stroke-width:3;stroke-miterlimit:10;}
	.st38{font-size:25.9487px;}
	.st39{font-family:'Poppins-Medium';}
	.st40{font-size:77.846px;}
	.st41{font-size:36.1931px;}
	.st42{font-size:50.3301px;}
	.st43{fill:none;stroke:#181825;stroke-width:5;stroke-miterlimit:10;}
	.st44{fill:#FFFFFF;}
	.st45{enable-background:new    ;}
	.st46{fill:none;stroke:#FFFFFF;stroke-width:3;stroke-miterlimit:10;}
	.st47{font-size:36.8147px;}
	.st48{fill:none;stroke:#FFFFFF;stroke-width:8;stroke-linecap:round;stroke-linejoin:round;stroke-miterlimit:10;}
	.st49{font-size:49.3025px;}
	.st50{fill:none;stroke:#F9F6F6;stroke-width:8;stroke-miterlimit:10;}
	.st51{fill:#171825;}
	.st52{fill:#F7F5F5;}
	.st53{font-size:30.2159px;}
	.st54{font-family:'Poppins-Light';}
	.st55{font-size:40px;}
	.st56{clip-path:url(#SVGID_6_);}
	.st57{font-family:'ArialMT';}
	.st58{font-size:8.3009px;}
	.st59{letter-spacing:22;}
	.st60{letter-spacing:25;}
	.st61{letter-spacing:-10;}
</style>



















































































































<g transform="translate(-164.5,-72.6)">
		
			<path class="st24" d="m208.2 138.3v-31.8c0-0.4 0.1-0.5 0.5-0.5h7.9c0.4 0 0.5 0.1 0.5 0.5v46c-0.5 0-4.3-2.8-5.4-4.5-1.9-2.8-3.5-5.8-3.4-9.4 0-0.1 0-0.2-0.1-0.3z"/>
		
		
			<path class="st25" d="m216.9 112.7c-0.6 9-2.3 17.8-5.2 26.3-0.6 1.7-1.4 3.6-2 5.4-1.4-2.6-1.6-7-1.6-8.3v-29.7c0-1.7-0.4-3.5-1.3-5-1.1-2.1-2.8-3.6-5.1-4.2-2-0.5-4-0.5-5.9 0.1-3.6 1.2-5.2 4-5.8 7.5-0.1 0.7-0.1 1.4-0.1 2v14.7 0.8c-0.4 0-0.6-0.2-0.8-0.4-4.7-3.2-7.5-7.3-8.2-12.9 0-0.1 0-0.5-0.1-0.7v-1.2-0.8-1.6-0.5-0.5c0.2-0.8 0.1-1.6 0.3-2.3 1.3-6.1 4.9-10.2 10.6-12.4 1.8-0.7 3.7-1.2 5.7-1.4 1.4-0.1 1.8 0 3.2 0 1.9 0.2 3.9 0.6 5.7 1.3 5.7 2.2 9.4 6.3 10.8 12.5 0.2 0.8 0.3 1.5 0.3 2.5v1.1 0.8 1.2 3.2 0.7c-0.3-0.2-0.5 1.2-0.5 1.8z"/>
			<path class="st26" d="m217.1 104.7v0.8"/>
		
		<g id="Shape_5_1_">
			
				<path class="st27" d="m189.7 105.8v-18.9l-9.3 0.1v18.8c0 18.6 18.4 18.6 18.4 18.6s-9.1-4.6-9.1-18.6z"/>
			
		</g>
		<g id="Ellipse_2_1_">
			
				<path class="st27" d="m189.9 75c-0.8 0-1.4 0.6-1.4 1.4s0.6 1.4 1.4 1.4 1.4-0.6 1.4-1.4c-0.1-0.8-0.7-1.4-1.4-1.4z"/>
			
		</g>
		<g id="Ellipse_2_copy_1_">
			
				<path class="st27" d="m186.4 72.6c-0.8 0-1.4 0.6-1.4 1.4s0.6 1.4 1.4 1.4 1.4-0.6 1.4-1.4-0.6-1.4-1.4-1.4z"/>
			
		</g>
		<g id="Ellipse_2_copy_2_1_">
			
				<circle class="st27" cx="182.1" cy="73.6" r="0"/>
			
		</g>
		
			
				<path class="st27" d="m164.5 128h3.7c2.2 0 3.6 1.2 3.6 3.2 0 2.1-1.6 3.3-3.7 3.3h-1.2v2.6h-2.4zm3.4 4.5c0.9 0 1.4-0.5 1.4-1.2 0-0.8-0.5-1.2-1.4-1.2h-1.2v2.4z"/>
				<path class="st27" d="m172 132.5c0-2.5 2-4.6 4.7-4.6s4.7 2 4.7 4.6c0 2.5-2 4.6-4.7 4.6s-4.7-2.1-4.7-4.6zm6.9 0c0-1.3-0.9-2.4-2.2-2.4-1.4 0-2.2 1.1-2.2 2.3 0 1.3 0.9 2.3 2.2 2.3 1.2 0.1 2.2-0.9 2.2-2.2z"/>
				<path class="st27" d="m182.5 128h2.9l-1.6 9.1h-2.9z"/>
				<path class="st27" d="m184.9 135.6 1.4-1.6c0.9 0.7 1.8 1.1 2.8 1.1 0.7 0 1-0.2 1-0.6s-0.3-0.6-1.5-0.9c-1.8-0.4-3.3-1-3.3-2.8 0-1.6 1.3-2.8 3.4-2.8 1.5 0 2.6 0.4 3.6 1.2l-1.2 1.7c-0.8-0.6-1.6-0.9-2.4-0.9-0.6 0-0.9 0.3-0.9 0.6 0 0.4 0.3 0.6 1.5 0.9 2 0.5 3.2 1.1 3.2 2.7 0 1.8-1.4 2.9-3.5 2.9-1.6 0-3-0.5-4.1-1.5z"/>
				<path class="st27" d="m192.7 128h7v2.1h-4.6v1.4h4.2v2h-4.2v1.5h4.7v2.1h-7z"/>
			
			<path class="st27" d="m164.5 147.7 4.5-3.6c1.1-0.9 1.6-1.5 1.6-2.2 0-0.8-0.5-1.3-1.4-1.3-0.8 0-1.5 0.5-2.4 1.6l-2.2-1.9c1.3-1.7 2.5-2.6 4.9-2.6 2.6 0 4.5 1.6 4.5 4 0 1.9-1 3-2.8 4.4l-2 1.5h4.9v2.8h-9.5z"/>
			<path class="st27" d="m174 144.1c0-3.5 2.1-6.4 5.5-6.4s5.5 2.8 5.5 6.3c0 3.4-2.1 6.3-5.5 6.3-3.4 0.1-5.5-2.7-5.5-6.2zm7.7 0c0-1.9-0.9-3.4-2.2-3.4-1.4 0-2.2 1.4-2.2 3.3s0.9 3.3 2.2 3.3 2.2-1.3 2.2-3.2z"/>
			<path class="st2" d="m184.5 147.7 4.5-3.6c1.1-0.9 1.6-1.5 1.6-2.2 0-0.8-0.5-1.3-1.4-1.3s-1.5 0.5-2.4 1.6l-2.2-1.9c1.3-1.7 2.5-2.6 4.9-2.6 2.6 0 4.5 1.6 4.5 4 0 1.9-1 3-2.8 4.4l-2 1.5h4.9v2.8h-9.5z"/>
			<path class="st2" d="m196.5 141-2 0.5-0.7-2.7 3.5-1.1h2.4v12.6h-3.3z"/>
		
		<g id="Shape_2_1_">
			
				<path class="st27" d="m180.5 78s-9.1 0-9.1 9.3v9.3s0-9.3 9.1-9.3 9.1 9.1 9.1 9.1v-9.1c0.1-9.3-9.1-9.3-9.1-9.3z"/>
			
		</g>
	</g>

































































</svg>
