<?xml version="1.0" encoding="UTF-8" standalone="no"?>
<!-- Generator: Adobe Illustrator 23.0.0, SVG Export Plug-In . SVG Version: 6.00 Build 0)  -->

<svg
   version="1.1"
   id="Layer_1"
   x="0px"
   y="0px"
   viewBox="0 0 1700 491.16923"
   xml:space="preserve"
   sodipodi:docname="catalyst.svg"
   inkscape:version="1.1 (c68e22c387, 2021-05-23)"
   width="1700"
   height="491.16922"
   xmlns:inkscape="http://www.inkscape.org/namespaces/inkscape"
   xmlns:sodipodi="http://sodipodi.sourceforge.net/DTD/sodipodi-0.dtd"
   xmlns="http://www.w3.org/2000/svg"
   xmlns:svg="http://www.w3.org/2000/svg"><defs
   id="defs926" /><sodipodi:namedview
   id="namedview924"
   pagecolor="#ffffff"
   bordercolor="#666666"
   borderopacity="1.0"
   inkscape:pageshadow="2"
   inkscape:pageopacity="0.0"
   inkscape:pagecheckerboard="0"
   showgrid="false"
   inkscape:zoom="0.73677896"
   inkscape:cx="803.49743"
   inkscape:cy="244.30665"
   inkscape:window-width="1362"
   inkscape:window-height="711"
   inkscape:window-x="0"
   inkscape:window-y="0"
   inkscape:window-maximized="1"
   inkscape:current-layer="Layer_1"
   width="1600px" />
<style
   type="text/css"
   id="style2">
	.st0{fill:#181825;}
	.st1{fill:#E26350;}
	.st2{font-family:'Poppins-BoldItalic';}
	.st3{font-size:161.0247px;}
	.st4{fill:none;stroke:#7B2F28;stroke-width:3;stroke-miterlimit:10;}
	.st5{fill:#7B2F28;}
	.st6{font-family:'Poppins-SemiBold';}
	.st7{font-size:32.8683px;}
	.st8{fill:#F9F6F6;}
	.st9{font-family:'Bebas-Regular';}
	.st10{font-size:40.8501px;}
	.st11{fill-rule:evenodd;clip-rule:evenodd;fill:#F4D78A;}
	.st12{fill-rule:evenodd;clip-rule:evenodd;fill:#E26350;}
	.st13{fill-rule:evenodd;clip-rule:evenodd;fill:#F5D149;}
	.st14{fill:#F4D78A;}
	.st15{font-family:'Poppins-ExtraBold';}
	.st16{font-size:67px;}
	.st17{font-family:'Poppins-Bold';}
	.st18{font-size:102.4911px;}
	.st19{font-family:'Poppins-Regular';}
	.st20{font-size:77.846px;}
	.st21{font-size:36.1931px;}
	.st22{font-size:50.3301px;}
	.st23{fill:none;stroke:#181825;stroke-width:5;stroke-miterlimit:10;}
	.st24{fill:#FFFFFF;}
	.st25{font-size:39.7879px;}
	.st26{fill:none;stroke:#FFFFFF;stroke-width:3;stroke-miterlimit:10;}
	.st27{font-size:49.3025px;}
	.st28{fill:none;stroke:#F9F6F6;stroke-width:8;stroke-miterlimit:10;}
	.st29{fill:#171825;}
	.st30{fill:#F7F5F5;}
	.st31{font-family:'Poppins-Medium';}
	.st32{font-size:30.2159px;}
	.st33{font-family:'Poppins-Light';}
	.st34{font-size:40px;}
	.st35{fill:#F9F6F6;stroke:#F9F6F6;stroke-miterlimit:10;}
	.st36{font-size:36.8149px;}
	.st37{fill:none;}
	.st38{letter-spacing:-8;}
	.st39{letter-spacing:6;}
	.st40{letter-spacing:24;}
	.st41{letter-spacing:25;}
	.st42{letter-spacing:3;}
	.st43{letter-spacing:11;}
	.st44{font-family:'MyriadPro-Regular';}
	.st45{letter-spacing:27;}
	.st46{font-size:30px;}
	.st47{letter-spacing:4;}
	.st48{fill:none;stroke:#F9F6F6;stroke-width:12;stroke-linecap:round;stroke-miterlimit:10;}
	.st49{fill:none;stroke:#E26350;stroke-width:2;stroke-miterlimit:10;}
	.st50{font-size:25.1573px;}
</style>








































<g
   id="g94773"
   transform="translate(-59.22282,-1376.357)"><g
     id="g921">
	<line
   class="st48"
   x1="172.8"
   y1="1623.3"
   x2="1519.9"
   y2="1623.3"
   id="line747" />
	<g
   id="g761">
		<g
   id="g753">
			<path
   class="st1"
   d="m 173.1,1589.1 c -20.4,0 -36.8,16.4 -36.8,36.8 0,20.4 16.4,36.8 36.8,36.8 20.4,0 36.8,-16.4 36.8,-36.8 -0.1,-20.4 -16.5,-36.8 -36.8,-36.8 z m 0,64 c -15,0 -27.3,-12.2 -27.3,-27.3 0,-15 12.2,-27.3 27.3,-27.3 15.1,0 27.3,12.2 27.3,27.3 -0.1,15.1 -12.3,27.3 -27.3,27.3 z"
   id="path749" />
			
				<circle
   transform="matrix(0.03328259,-0.9994,0.9994,0.03328259,-1457.8124,1744.4351)"
   class="st8"
   cx="172.8"
   cy="1625.8"
   id="ellipse751"
   r="17.799999" />
		</g>
		<g
   id="g759">
			<line
   class="st49"
   x1="173.10001"
   y1="1662.6"
   x2="173.10001"
   y2="1756.9"
   id="line755" />
			<circle
   class="st1"
   cx="172.7"
   cy="1748.6"
   r="9.1000004"
   id="circle757" />
		</g>
	</g>
	<g
   id="g775">
		<g
   id="g767">
			<path
   class="st1"
   d="m 365.5,1588.2 c -20.4,0 -36.8,16.4 -36.8,36.8 0,20.4 16.4,36.8 36.8,36.8 20.4,0 36.8,-16.4 36.8,-36.8 0,-20.4 -16.5,-36.8 -36.8,-36.8 z m 0,64 c -15,0 -27.3,-12.2 -27.3,-27.3 0,-15.1 12.2,-27.3 27.3,-27.3 15,0 27.3,12.2 27.3,27.3 -0.1,15.1 -12.3,27.3 -27.3,27.3 z"
   id="path763" />
			
				<circle
   transform="matrix(0.1602,-0.9871,0.9871,0.1602,-1296.8655,1725.5436)"
   class="st8"
   cx="365.60001"
   cy="1624.9"
   id="ellipse765"
   r="17.799999" />
		</g>
		<g
   id="g773">
			<line
   class="st49"
   x1="364.60001"
   y1="1588.2"
   x2="364.60001"
   y2="1493.9"
   id="line769" />
			<circle
   class="st1"
   cx="365.10001"
   cy="1502.2"
   id="ellipse771"
   r="9.1000004" />
		</g>
	</g>
	<g
   id="g789">
		<g
   id="g781">
			<path
   class="st1"
   d="m 557.9,1587.3 c -20.4,0 -36.8,16.4 -36.8,36.8 0,20.4 16.4,36.8 36.8,36.8 20.4,0 36.8,-16.4 36.8,-36.8 0,-20.3 -16.5,-36.8 -36.8,-36.8 z m 0,64 c -15,0 -27.3,-12.2 -27.3,-27.3 0,-15 12.2,-27.3 27.3,-27.3 15,0 27.3,12.2 27.3,27.3 0,15.1 -12.2,27.3 -27.3,27.3 z"
   id="path777" />
			<circle
   class="st8"
   cx="557.90002"
   cy="1624.1"
   r="17.799999"
   id="circle779" />
		</g>
		<g
   id="g787">
			<line
   class="st49"
   x1="559.70001"
   y1="1660.9"
   x2="559.70001"
   y2="1755.1"
   id="line783" />
			<circle
   class="st1"
   cx="559.20001"
   cy="1746.9"
   r="9.1000004"
   id="circle785" />
		</g>
	</g>
	<g
   id="g803">
		<g
   id="g795">
			<path
   class="st1"
   d="m 942.7,1585.6 c -20.4,0 -36.8,16.4 -36.8,36.8 0,20.4 16.4,36.8 36.8,36.8 20.4,0 36.8,-16.4 36.8,-36.8 0,-20.4 -16.5,-36.8 -36.8,-36.8 z m 0,64 c -15,0 -27.3,-12.2 -27.3,-27.3 0,-15 12.2,-27.3 27.3,-27.3 15.1,0 27.3,12.2 27.3,27.3 0,15.1 -12.3,27.3 -27.3,27.3 z"
   id="path791" />
			<circle
   class="st8"
   cx="942.70001"
   cy="1622.3"
   r="17.799999"
   id="circle793" />
		</g>
		<g
   id="g801">
			<line
   class="st49"
   x1="943.59998"
   y1="1660"
   x2="943.59998"
   y2="1754.3"
   id="line797" />
			<circle
   class="st1"
   cx="943.09998"
   cy="1746"
   r="9.1000004"
   id="circle799" />
		</g>
	</g>
	<g
   id="g815">
		<line
   class="st49"
   x1="751.09998"
   y1="1586.4"
   x2="751.09998"
   y2="1492.2"
   id="line805" />
		<g
   id="g813">
			<path
   class="st1"
   d="m 750.3,1586.4 c -20.4,0 -36.8,16.4 -36.8,36.8 0,20.4 16.4,36.8 36.8,36.8 20.4,0 36.8,-16.4 36.8,-36.8 -0.1,-20.3 -16.5,-36.8 -36.8,-36.8 z m 0,64.1 c -15,0 -27.3,-12.2 -27.3,-27.3 0,-15.1 12.2,-27.3 27.3,-27.3 15.1,0 27.3,12.2 27.3,27.3 0,15.1 -12.3,27.3 -27.3,27.3 z"
   id="path807" />
			<circle
   class="st8"
   cx="750.29999"
   cy="1623.2"
   r="17.799999"
   id="circle809" />
			<circle
   class="st1"
   cx="751.59998"
   cy="1500.4"
   r="9.1000004"
   id="circle811" />
		</g>
	</g>
	<g
   id="g829">
		<g
   id="g821">
			<path
   class="st1"
   d="m 1135.1,1586.4 c -20.4,0 -36.8,16.4 -36.8,36.8 0,20.4 16.4,36.8 36.8,36.8 20.4,0 36.8,-16.4 36.8,-36.8 -0.1,-20.3 -16.5,-36.8 -36.8,-36.8 z m 0,64.1 c -15,0 -27.3,-12.2 -27.3,-27.3 0,-15.1 12.2,-27.3 27.3,-27.3 15.1,0 27.3,12.2 27.3,27.3 0,15.1 -12.2,27.3 -27.3,27.3 z"
   id="path817" />
			<circle
   class="st8"
   cx="1135.1"
   cy="1623.2"
   r="17.799999"
   id="circle819" />
		</g>
		<g
   id="g827">
			<line
   class="st49"
   x1="1135.9"
   y1="1586.4"
   x2="1135.9"
   y2="1492.2"
   id="line823" />
			<circle
   class="st1"
   cx="1136.4"
   cy="1500.4"
   r="9.1000004"
   id="circle825" />
		</g>
	</g>
	<g
   id="g843">
		<g
   id="g835">
			<path
   class="st1"
   d="m 1327.5,1588.3 c -20.4,0 -36.8,16.4 -36.8,36.8 0,20.4 16.4,36.8 36.8,36.8 20.4,0 36.8,-16.4 36.8,-36.8 0,-20.4 -16.5,-36.8 -36.8,-36.8 z m 0,64 c -15,0 -27.3,-12.2 -27.3,-27.3 0,-15 12.2,-27.3 27.3,-27.3 15.1,0 27.3,12.2 27.3,27.3 0,15.1 -12.3,27.3 -27.3,27.3 z"
   id="path831" />
			<circle
   class="st8"
   cx="1327.5"
   cy="1625"
   r="17.799999"
   id="circle833" />
		</g>
		<g
   id="g841">
			<line
   class="st49"
   x1="1328.4"
   y1="1662.7"
   x2="1328.4"
   y2="1757"
   id="line837" />
			<circle
   class="st1"
   cx="1327.9"
   cy="1748.7"
   r="9.1000004"
   id="circle839" />
		</g>
	</g>
	<g
   id="g857">
		<g
   id="g849">
			<path
   class="st1"
   d="m 1519.9,1586.4 c -20.4,0 -36.8,16.4 -36.8,36.8 0,20.4 16.4,36.8 36.8,36.8 20.4,0 36.8,-16.4 36.8,-36.8 -0.1,-20.3 -16.5,-36.8 -36.8,-36.8 z m 0,64.1 c -15,0 -27.3,-12.2 -27.3,-27.3 0,-15.1 12.2,-27.3 27.3,-27.3 15.1,0 27.3,12.2 27.3,27.3 0,15.1 -12.2,27.3 -27.3,27.3 z"
   id="path845" />
			<circle
   class="st8"
   cx="1519.9"
   cy="1623.2"
   r="17.799999"
   id="circle847" />
		</g>
		<g
   id="g855">
			<line
   class="st49"
   x1="1520.7"
   y1="1586.4"
   x2="1520.7"
   y2="1492.2"
   id="line851" />
			<circle
   class="st1"
   cx="1521.2"
   cy="1500.4"
   r="9.1000004"
   id="circle853" />
		</g>
	</g>
	<g
   id="g865">
		<text
   class="st8 st17 st50"
   id="text859"
   x="88.116203"
   y="1800.3007"><tspan
     style="font-style:normal;font-variant:normal;font-weight:bold;font-stretch:normal;font-family:Poppins;-inkscape-font-specification:'Poppins Bold'"
     id="tspan35060">July 5th, 2021</tspan></text>
		<text
   class="st1 st31 st50"
   id="text861"
   x="58.292"
   y="1830.4901"><tspan
     style="font-style:normal;font-variant:normal;font-weight:normal;font-stretch:normal;font-family:'Poppins Medium';-inkscape-font-specification:'Poppins Medium, '"
     id="tspan88184">Open Registration</tspan></text>
		<text
   class="st1 st31 st50"
   id="text863"
   x="90.140602"
   y="1860.6835"><tspan
     style="font-style:normal;font-variant:normal;font-weight:normal;font-stretch:normal;font-family:'Poppins Medium';-inkscape-font-specification:'Poppins Medium, '"
     id="tspan90070">Gelombang I</tspan></text>
	</g>
	<text
   class="st8 st17 st50"
   id="text867"
   x="430.93259"
   y="1800.2987"><tspan
     style="font-style:normal;font-variant:normal;font-weight:bold;font-stretch:normal;font-family:Poppins;-inkscape-font-specification:'Poppins Bold'"
     id="tspan38914">September 3rd, 2021</tspan></text>
	<text
   class="st1 st31 st50"
   id="text869"
   x="448.2153"
   y="1830.4882"><tspan
     style="font-style:normal;font-variant:normal;font-weight:normal;font-stretch:normal;font-family:'Poppins Medium';-inkscape-font-specification:'Poppins Medium, '"
     id="tspan82844">Open Registration</tspan></text>
	<text
   class="st1 st31 st50"
   id="text871"
   style="font-style:normal;font-variant:normal;font-weight:normal;font-stretch:normal;font-family:'Poppins Medium';-inkscape-font-specification:'Poppins Medium, '"
   x="473.4223"
   y="1860.6815">Gelombang III</text>
	<g
   id="g877">
		<text
   class="st8 st17 st50"
   id="text873"
   x="828.08398"
   y="1805.0594"><tspan
     style="font-style:normal;font-variant:normal;font-weight:bold;font-stretch:normal;font-family:Poppins;-inkscape-font-specification:'Poppins Bold'"
     id="tspan40956">October 16th, 2021</tspan></text>
		<text
   transform="translate(833.5317,1835.2489)"
   class="st1 st31 st50"
   id="text875"><tspan
     style="font-style:normal;font-variant:normal;font-weight:normal;font-stretch:normal;font-family:'Poppins Medium';-inkscape-font-specification:'Poppins Medium, '"
     id="tspan67460">Babak Penyisihan</tspan></text>
	</g>
	<g
   id="g883"
   transform="translate(6)">
		<text
   class="st8 st17 st50"
   id="text879"
   x="1188.7866"
   y="1805.0594"><tspan
     style="font-style:normal;font-variant:normal;font-weight:bold;font-stretch:normal;font-family:Poppins;-inkscape-font-specification:'Poppins Bold'"
     id="tspan52362">November 20th, 2021</tspan></text>
		<text
   transform="translate(1219.5664,1835.2489)"
   class="st1 st31 st50"
   id="text881"><tspan
     style="font-style:normal;font-variant:normal;font-weight:normal;font-stretch:normal;font-family:'Poppins Medium';-inkscape-font-specification:'Poppins Medium, '"
     id="tspan65490">Babak Semi Final</tspan></text>
	</g>
	<g
   id="g893">
		<text
   id="text889"
   x="253.24699"
   y="1395.7281"><tspan
     x="253.24699"
     y="1395.7281"
     class="st1 st31 st50"
     id="tspan885"
     style="font-style:normal;font-variant:normal;font-weight:normal;font-stretch:normal;font-family:'Poppins Medium';-inkscape-font-specification:'Poppins Medium, '">Open Registration</tspan><tspan
     x="281.74701"
     y="1425.9281"
     class="st1 st31 st50"
     id="tspan887"
     style="font-style:normal;font-variant:normal;font-weight:normal;font-stretch:normal;font-family:'Poppins Medium';-inkscape-font-specification:'Poppins Medium, '">Gelombang II</tspan></text>
		<text
   class="st8 st17 st50"
   id="text891"
   x="261.9668"
   y="1455.4059"><tspan
     style="font-style:normal;font-variant:normal;font-weight:bold;font-stretch:normal;font-family:Poppins;-inkscape-font-specification:'Poppins Bold'"
     id="tspan24114">August 3rd, 2021</tspan></text>
	</g>
	<g
   id="g899">
		<text
   class="st1 st31 st50"
   id="text895"
   x="639.0083"
   y="1425.567"><tspan
     style="font-style:normal;font-variant:normal;font-weight:normal;font-stretch:normal;font-family:'Poppins Medium';-inkscape-font-specification:'Poppins Medium, '"
     id="tspan74802">Close Registration</tspan></text>
		<text
   class="st8 st17 st50"
   id="text897"
   x="641.40973"
   y="1456.4645"><tspan
     style="font-style:normal;font-variant:normal;font-weight:bold;font-stretch:normal;font-family:Poppins;-inkscape-font-specification:'Poppins Bold'"
     id="tspan47480">October 3rd, 2021</tspan></text>
	</g>
	<g
   id="g909"
   transform="translate(8)">
		<text
   transform="translate(1094.6978,1400.6832)"
   id="text905"><tspan
     x="0"
     y="0"
     class="st1 st31 st50"
     id="tspan901"
     style="font-style:normal;font-variant:normal;font-weight:normal;font-stretch:normal;font-family:'Poppins Medium';-inkscape-font-specification:'Poppins Medium, '">Babak</tspan><tspan
     x="-39.400002"
     y="30.200001"
     class="st1 st31 st50"
     id="tspan903"
     style="font-style:normal;font-variant:normal;font-weight:normal;font-stretch:normal;font-family:'Poppins Medium';-inkscape-font-specification:'Poppins Medium, '">Kuarter Final</tspan></text>
		<text
   class="st8 st17 st50"
   id="text907"
   x="1011.1304"
   y="1460.3619"><tspan
     style="font-style:normal;font-variant:normal;font-weight:bold;font-stretch:normal;font-family:Poppins;-inkscape-font-specification:'Poppins Bold'"
     id="tspan49366">October 30th, 2021</tspan></text>
	</g>
	<g
   id="g919"
   transform="translate(6)">
		<text
   transform="translate(1475.2759,1402.7526)"
   id="text915"><tspan
     x="0"
     y="0"
     class="st1 st31 st50"
     id="tspan911"
     style="font-style:normal;font-variant:normal;font-weight:normal;font-stretch:normal;font-family:'Poppins Medium';-inkscape-font-specification:'Poppins Medium, '">Babak</tspan><tspan
     x="-32.400002"
     y="30.200001"
     class="st1 st31 st50"
     id="tspan913"
     style="font-style:normal;font-variant:normal;font-weight:normal;font-stretch:normal;font-family:'Poppins Medium';-inkscape-font-specification:'Poppins Medium, '">Grand Final</tspan></text>
		<text
   class="st8 st17 st50"
   id="text917"
   x="1381.7461"
   y="1462.4313"><tspan
     style="font-style:normal;font-variant:normal;font-weight:bold;font-stretch:normal;font-family:Poppins;-inkscape-font-specification:'Poppins Bold'"
     id="tspan54218">November 26th, 2021</tspan></text>
	</g>
</g></g>
</svg>
