<?xml version="1.0" encoding="UTF-8"?>
<svg width="262.36" height="262.36" version="1.1" viewBox="0 0 262.36 262.36" xml:space="preserve" xmlns="http://www.w3.org/2000/svg">
<style type="text/css">
	.st0{fill:#181825;}
	.st1{fill-rule:evenodd;clip-rule:evenodd;fill:#F4D78A;}
	.st2{fill-rule:evenodd;clip-rule:evenodd;fill:#E26350;}
	.st3{fill-rule:evenodd;clip-rule:evenodd;fill:#F5D149;}
	.st4{fill:#F4D78A;}
	.st5{opacity:0.6;}
	.st6{clip-path:url(#SVGID_2_);}
	.st7{clip-path:url(#SVGID_4_);}
	.st8{clip-path:url(#SVGID_6_);}
	.st9{clip-path:url(#SVGID_8_);}
	.st10{fill:#E26350;}
	.st11{clip-path:url(#SVGID_10_);}
	.st12{clip-path:url(#SVGID_12_);}
	.st13{clip-path:url(#SVGID_14_);}
	.st14{clip-path:url(#SVGID_16_);}
	.st15{fill:none;stroke:#000000;stroke-width:10;stroke-linecap:round;stroke-miterlimit:10;}
	.st16{clip-path:url(#SVGID_18_);}
	.st17{clip-path:url(#SVGID_20_);}
	.st18{clip-path:url(#SVGID_22_);}
	.st19{clip-path:url(#SVGID_24_);}
	.st20{fill:#F9F6F6;}
	.st21{fill:none;stroke:#181825;stroke-width:10;stroke-linecap:round;stroke-miterlimit:10;}
	.st22{opacity:0.76;}
	.st23{fill:#AA6E00;}
	.st24{fill:#E9B31F;}
	.st25{fill:#EAB41F;}
	.st26{clip-path:url(#SVGID_26_);}
	.st27{fill:#181825;stroke:#181825;stroke-width:2;stroke-miterlimit:10;}
	.st28{fill:#7B2F28;}
	.st29{fill-rule:evenodd;clip-rule:evenodd;fill:#181825;}
	.st30{fill:#F9F6F6;stroke:#F9F6F6;stroke-miterlimit:10;}
	.st31{fill:none;stroke:#F9F6F6;stroke-width:8;stroke-linecap:round;stroke-linejoin:round;stroke-miterlimit:10;}
	.st32{fill:none;stroke:#181825;stroke-width:8;stroke-linecap:round;stroke-linejoin:round;stroke-miterlimit:10;}
	.st33{clip-path:url(#SVGID_28_);}
	.st34{fill:none;}
	.st35{opacity:0.5;}
	.st36{fill:none;stroke:#F9F6F6;stroke-width:8;stroke-miterlimit:10;}
	.st37{fill:#171825;}
	.st38{clip-path:url(#SVGID_36_);}
	.st39{clip-path:url(#SVGID_38_);}
	.st40{clip-path:url(#SVGID_40_);}
	.st41{clip-path:url(#SVGID_42_);}
	.st42{fill:none;stroke:#F9F6F6;stroke-width:12;stroke-linecap:round;stroke-miterlimit:10;}
	.st43{fill:none;stroke:#E26350;stroke-width:3;stroke-miterlimit:10;}
	.st44{opacity:0.5;fill:#F4D78A;}
	.st45{opacity:0.5;fill:#79769F;}
	.st46{font-family:'Poppins-Bold';}
	.st47{font-size:118.4928px;}
	.st48{fill:none;stroke:#181825;stroke-width:3;stroke-miterlimit:10;}
	.st49{clip-path:url(#SVGID_44_);}
	.st50{clip-path:url(#SVGID_46_);}
	.st51{clip-path:url(#SVGID_48_);}
	.st52{clip-path:url(#SVGID_50_);}
	.st53{font-size:140px;}
</style>














<g transform="translate(530.18,-741.53)">
		
			
				<path class="st28" d="m-267.82 872.71c0 72.45-58.73 131.18-131.18 131.18-41.76 0-78.96-19.51-102.97-49.91-17.67-22.35-28.21-50.58-28.21-81.27 0-72.45 58.73-131.18 131.18-131.18 36.35 0 69.24 14.78 92.99 38.66 23.61 23.72 38.19 56.42 38.19 92.52z"/>
			
			
				<path class="st10" d="m-277.8 861.46c0 72.45-58.73 131.18-131.18 131.18-36.35 0-69.24-14.78-92.99-38.66-17.67-22.35-28.21-50.58-28.21-81.27 0-72.45 58.73-131.18 131.18-131.18 36.35 0 69.24 14.78 92.99 38.66 17.67 22.34 28.21 50.57 28.21 81.27z"/>
			
		
		
			
				
					<path class="st0" d="m-334.71 864.93h-128.57c-1.38 0-2.5-1.12-2.5-2.5s1.12-2.5 2.5-2.5h128.57c1.38 0 2.5 1.12 2.5 2.5s-1.12 2.5-2.5 2.5z"/>
				
			
			
				<path class="st0" d="m-349.2 882.75v-17.47c0-1.57-1.28-2.85-2.85-2.85-1.58 0-2.86 1.28-2.86 2.85v17.47c0 24.31-19.78 44.09-44.09 44.09s-44.09-19.78-44.09-44.09v-17.47c0-1.57-1.28-2.85-2.86-2.85-1.57 0-2.85 1.28-2.85 2.85v17.47c0 23.8 16.78 43.75 39.13 48.65l-1.8 13.41h-12.05c-7.75 0-14.05 6.31-14.05 14.05 0 3.69 3 6.69 6.68 6.69h63.78c3.68 0 6.68-3 6.68-6.69 0-7.74-6.3-14.05-14.05-14.05h-12.05l-1.8-13.41c22.35-4.9 39.13-24.85 39.13-48.65zm-54.83 49.55c1.65 0.17 3.33 0.25 5.03 0.25s3.38-0.08 5.03-0.25l1.67 12.51h-13.4zm29.55 18.23c4.59 0 8.33 3.74 8.33 8.33 0 0.54-0.43 0.97-0.96 0.97h-63.78c-0.53 0-0.96-0.43-0.96-0.97 0-4.59 3.74-8.33 8.33-8.33z"/>
			
			
				<path class="st20" d="m-392.3 944.81h-13.4l1.67-12.51c1.65 0.17 3.33 0.25 5.03 0.25s3.38-0.08 5.03-0.25z"/>
				<path class="st20" d="m-391.73 945.31h-14.54l1.81-13.56 0.48 0.05c3.19 0.33 6.77 0.33 9.96 0l0.48-0.05zm-13.4-1h12.26l-1.53-11.46c-2.96 0.27-6.23 0.27-9.2 0z"/>
			
			
				<path class="st20" d="m-366.15 958.86c0 0.54-0.43 0.97-0.96 0.97h-63.78c-0.53 0-0.96-0.43-0.96-0.97 0-4.59 3.74-8.33 8.33-8.33h49.04c4.59 0 8.33 3.74 8.33 8.33z"/>
				<path class="st20" d="m-367.11 960.33h-63.78c-0.81 0-1.46-0.66-1.46-1.47 0-4.87 3.96-8.83 8.83-8.83h49.04c4.87 0 8.83 3.96 8.83 8.83 0 0.82-0.66 1.47-1.46 1.47zm-56.41-9.3c-4.32 0-7.83 3.51-7.83 7.83 0 0.26 0.2 0.47 0.46 0.47h63.78c0.26 0 0.46-0.21 0.46-0.47 0-4.32-3.51-7.83-7.83-7.83z"/>
			
			
				<path class="st0" d="m-399 799.1c-19.89 0-36.07 16.18-36.07 36.07v46.7c0 0.98 0.04 1.95 0.12 2.93 0 0.04 0.01 0.07 0.01 0.11 0.04 0.51 0.1 1.01 0.16 1.52 0.02 0.13 0.04 0.25 0.05 0.38 0.05 0.35 0.11 0.71 0.17 1.06 0.03 0.2 0.06 0.39 0.1 0.59 0.07 0.41 0.16 0.82 0.25 1.22 0.05 0.24 0.11 0.47 0.16 0.71 0.06 0.23 0.12 0.46 0.18 0.68 0.06 0.24 0.12 0.48 0.19 0.72 0.11 0.39 0.23 0.77 0.35 1.15 0.07 0.22 0.14 0.43 0.21 0.64 0.09 0.27 0.19 0.53 0.28 0.79 0.07 0.18 0.14 0.37 0.21 0.55 0.16 0.42 0.33 0.83 0.51 1.24 0.05 0.13 0.11 0.25 0.16 0.37 0.16 0.37 0.33 0.73 0.5 1.08 0.05 0.1 0.09 0.19 0.14 0.28 0.2 0.4 0.39 0.79 0.6 1.17 0.02 0.03 0.03 0.05 0.05 0.07 2.36 4.32 5.58 8.11 9.43 11.13 0.03 0.02 0.05 0.05 0.08 0.07s0.05 0.04 0.08 0.06c0.15 0.12 0.31 0.23 0.46 0.34 0.28 0.21 0.55 0.42 0.84 0.62 0.13 0.09 0.27 0.18 0.4 0.28 0.32 0.22 0.65 0.43 0.97 0.64 0.1 0.06 0.19 0.12 0.29 0.18 0.39 0.25 0.78 0.48 1.17 0.71 0.05 0.03 0.09 0.05 0.14 0.08 3.87 2.21 8.08 3.66 12.5 4.31 0.06 0 0.11 0.01 0.17 0.02 0.48 0.07 0.96 0.13 1.44 0.18 0.1 0.01 0.2 0.02 0.31 0.03 0.46 0.04 0.93 0.07 1.4 0.1 0.1 0 0.19 0.01 0.29 0.02 0.57 0.02 1.13 0.04 1.7 0.04 0.59 0 1.17-0.02 1.76-0.05h0.01c0.55-0.02 1.1-0.06 1.65-0.12 0.04 0 0.09 0 0.13-0.01 0.51-0.05 1.02-0.11 1.53-0.18 0.08-0.01 0.16-0.02 0.25-0.04 0.46-0.07 0.93-0.15 1.39-0.23 0.12-0.03 0.24-0.05 0.37-0.07 0.42-0.09 0.84-0.18 1.26-0.28l0.48-0.12c0.38-0.09 0.75-0.19 1.13-0.3l0.6-0.18c0.3-0.09 0.61-0.19 0.91-0.29 0.27-0.09 0.53-0.19 0.8-0.28 0.15-0.06 0.29-0.11 0.44-0.17 0.42-0.16 0.84-0.32 1.26-0.5 0.05-0.02 0.11-0.04 0.16-0.07 8.29-3.53 14.98-10.07 18.7-18.25 0.02-0.04 0.04-0.08 0.06-0.11 0.11-0.25 0.22-0.5 0.32-0.75 0.13-0.3 0.25-0.6 0.37-0.91 0.08-0.2 0.16-0.4 0.23-0.6 0.14-0.36 0.26-0.72 0.39-1.08 0.05-0.15 0.09-0.3 0.14-0.45 0.14-0.41 0.26-0.83 0.38-1.25 0.03-0.09 0.05-0.18 0.08-0.27 0.13-0.48 0.25-0.97 0.36-1.46 0.01-0.02 0.01-0.04 0.02-0.06 0.58-2.57 0.89-5.25 0.89-7.99v-46.7c0-19.89-16.18-36.07-36.07-36.07zm30.36 82.77c0 5.2-1.32 10.11-3.64 14.39-0.03 0.05-0.05 0.09-0.08 0.14-0.11 0.2-0.22 0.4-0.34 0.6-5.32 8.99-15.1 15.01-26.3 15.01-11.75 0-21.95-6.63-27.05-16.36-2.17-4.24-3.31-8.99-3.31-13.78v-4.44h60.72zm0-39.5h-18.88c-1.58 0-2.86 1.28-2.86 2.86s1.28 2.86 2.86 2.86h18.88v7.57h-18.88c-1.58 0-2.86 1.28-2.86 2.86s1.28 2.86 2.86 2.86h18.88v10.33h-60.72v-10.33h18.88c1.58 0 2.86-1.28 2.86-2.86s-1.28-2.86-2.86-2.86h-18.88v-7.57h18.88c1.58 0 2.86-1.28 2.86-2.86s-1.28-2.86-2.86-2.86h-18.88v-7.2c0-0.12 0.01-0.25 0.01-0.37h18.87c1.58 0 2.86-1.28 2.86-2.86 0-1.57-1.28-2.85-2.86-2.85h-18.26c2.82-13.84 15.09-24.27 29.74-24.27 7.32 0 14.06 2.61 19.31 6.94 5.25 4.34 9.02 10.41 10.43 17.33h-18.26c-1.58 0-2.86 1.27-2.86 2.85s1.28 2.86 2.86 2.86h18.87c0 0.12 0.01 0.25 0.01 0.37z"/>
			
			
				<path class="st0" d="m-368.64 877.43v4.44c0 5.2-1.32 10.11-3.64 14.39-0.03 0.05-0.05 0.09-0.08 0.14-0.11 0.2-0.22 0.4-0.34 0.6-5.32 8.99-15.1 15.01-26.3 15.01-11.75 0-21.95-6.63-27.05-16.36-2.17-4.24-3.31-8.99-3.31-13.78v-4.44z"/>
			
			
				<path class="st20" d="m-390.38 845.23c0 1.58 1.28 2.86 2.86 2.86h18.88v7.57h-18.88c-1.58 0-2.86 1.28-2.86 2.86s1.28 2.86 2.86 2.86h18.88v10.33h-60.72v-10.33h18.88c1.58 0 2.86-1.28 2.86-2.86s-1.28-2.86-2.86-2.86h-18.88v-7.57h18.88c1.58 0 2.86-1.28 2.86-2.86s-1.28-2.86-2.86-2.86h-18.88v-7.2c0-0.12 0.01-0.25 0.01-0.37h18.87c1.58 0 2.86-1.28 2.86-2.86 0-1.57-1.28-2.85-2.86-2.85h-18.26c2.82-13.84 15.09-24.27 29.74-24.27 7.32 0 14.06 2.61 19.31 6.94 5.25 4.34 9.02 10.41 10.43 17.33h-18.26c-1.58 0-2.86 1.27-2.86 2.85s1.28 2.86 2.86 2.86h18.87c0 0.12 0.01 0.25 0.01 0.37v7.2h-18.88c-1.58 0-2.86 1.28-2.86 2.86z"/>
				<path class="st20" d="m-368.14 872.21h-61.72v-11.33h19.38c1.3 0 2.36-1.06 2.36-2.36s-1.06-2.36-2.36-2.36h-19.38v-8.57h19.38c1.3 0 2.36-1.06 2.36-2.36s-1.06-2.36-2.36-2.36h-19.38l0.01-8.57h19.37c1.3 0 2.36-1.06 2.36-2.36s-1.06-2.35-2.36-2.35h-18.87l0.12-0.6c2.91-14.29 15.63-24.67 30.23-24.67 7.14 0 14.11 2.5 19.63 7.05 5.44 4.5 9.2 10.75 10.6 17.62l0.12 0.6h-18.87c-1.3 0-2.36 1.05-2.36 2.35s1.06 2.36 2.36 2.36h19.37l0.01 8.57h-19.38c-1.3 0-2.36 1.06-2.36 2.36s1.06 2.36 2.36 2.36h19.38v8.57h-19.38c-1.3 0-2.36 1.06-2.36 2.36s1.06 2.36 2.36 2.36h19.38zm-60.72-1h59.72v-9.33h-18.38c-1.85 0-3.36-1.51-3.36-3.36s1.51-3.36 3.36-3.36h18.38v-6.57h-18.38c-1.85 0-3.36-1.51-3.36-3.36s1.51-3.36 3.36-3.36h18.38v-6.57h-18.38c-1.85 0-3.36-1.51-3.36-3.36s1.51-3.35 3.36-3.35h17.64c-1.45-6.41-5.03-12.23-10.13-16.44-5.34-4.4-12.08-6.83-18.99-6.83-13.93 0-26.07 9.75-29.12 23.27h17.64c1.85 0 3.36 1.5 3.36 3.35s-1.51 3.36-3.36 3.36h-18.38v6.57h18.38c1.85 0 3.36 1.51 3.36 3.36s-1.51 3.36-3.36 3.36h-18.38v6.57h18.38c1.85 0 3.36 1.51 3.36 3.36s-1.51 3.36-3.36 3.36h-18.38z"/>
			
			
				<path class="st0" d="m-352.85 834.06c-1.38 0-2.5-1.12-2.5-2.5 0-14.2-6.94-27.55-18.57-35.72-1.13-0.79-1.4-2.35-0.61-3.48 0.8-1.13 2.36-1.4 3.48-0.61 12.96 9.11 20.69 23.99 20.69 39.81 0.01 1.38-1.11 2.5-2.49 2.5z"/>
			
			
				<path class="st0" d="m-445.15 834.06c-1.38 0-2.5-1.12-2.5-2.5 0-16.03 7.9-31.03 21.13-40.12 1.14-0.78 2.69-0.49 3.48 0.64 0.78 1.14 0.49 2.69-0.65 3.48-11.88 8.16-18.97 21.62-18.97 36 0.01 1.38-1.11 2.5-2.49 2.5z"/>
			
			
				<path class="st0" d="m-344.7 834.06c-1.38 0-2.5-1.12-2.5-2.5 0-16.88-8.26-32.75-22.1-42.44-1.13-0.79-1.41-2.35-0.61-3.48 0.79-1.13 2.35-1.41 3.48-0.61 15.18 10.63 24.24 28.02 24.24 46.54-0.01 1.37-1.13 2.49-2.51 2.49z"/>
			
			
				<path class="st0" d="m-453.3 834.06c-1.38 0-2.5-1.12-2.5-2.5 0-18.71 9.22-36.22 24.66-46.84 1.14-0.78 2.69-0.49 3.48 0.64 0.78 1.14 0.49 2.69-0.64 3.48-14.09 9.68-22.5 25.65-22.5 42.72 0 1.38-1.12 2.5-2.5 2.5z"/>
			
			
				<path class="st0" d="m-336.32 834.06c-1.38 0-2.5-1.12-2.5-2.5 0-19.65-9.62-38.09-25.74-49.35-1.13-0.79-1.41-2.35-0.62-3.48s2.35-1.41 3.48-0.62c17.46 12.19 27.88 32.17 27.88 53.45 0 1.38-1.12 2.5-2.5 2.5z"/>
			
			
				<path class="st0" d="m-461.68 834.06c-1.38 0-2.5-1.12-2.5-2.5 0-21.49 10.58-41.58 28.32-53.75 1.14-0.78 2.69-0.49 3.48 0.65 0.78 1.14 0.49 2.7-0.65 3.48-16.37 11.24-26.14 29.79-26.14 49.63-0.01 1.37-1.13 2.49-2.51 2.49z"/>
			
		
	</g>




































</svg>
