<?xml version="1.0" encoding="UTF-8"?>
<svg width="93" height="93" version="1.1" viewBox="0 0 93 93" xml:space="preserve" xmlns="http://www.w3.org/2000/svg">
<style type="text/css">
	.st0{fill:#181825;}
	.st1{fill:#7B2F28;}
	.st2{fill:#E26350;}
	.st3{fill:#F9F6F6;}
	.st4{fill-rule:evenodd;clip-rule:evenodd;fill:#181825;}
	.st5{fill:#E9B31F;}
	.st6{font-family:'Poppins-BoldItalic';}
	.st7{font-size:161.0247px;}
	.st8{fill:none;}
	.st9{font-family:'Poppins-SemiBold';}
	.st10{font-size:28.5436px;}
	.st11{letter-spacing:2.7;}
	.st12{font-family:'Poppins-Regular';}
	.st13{letter-spacing:3.6;}
	.st14{letter-spacing:6.3;}
	.st15{letter-spacing:5.4;}
	.st16{fill:#AA6E00;}
	.st17{font-size:26.1914px;}
	.st18{fill:none;stroke:#AA6E00;stroke-width:3;stroke-miterlimit:10;}
	.st19{font-size:32.8683px;}
	.st20{clip-path:url(#SVGID_2_);}
	.st21{clip-path:url(#SVGID_4_);}
	.st22{font-family:'Bebas-Regular';}
	.st23{font-size:40.8501px;}
	.st24{fill-rule:evenodd;clip-rule:evenodd;fill:#F4D78A;}
	.st25{fill-rule:evenodd;clip-rule:evenodd;fill:#E26350;}
	.st26{fill-rule:evenodd;clip-rule:evenodd;fill:#F5D149;}
	.st27{fill:#F4D78A;}
	.st28{font-family:'Poppins-ExtraBold';}
	.st29{font-size:81.2035px;}
	.st30{letter-spacing:-1;}
	.st31{font-family:'Poppins-Bold';}
	.st32{font-size:102.4911px;}
	.st33{font-size:39.7879px;}
	.st34{fill:none;stroke:#F9F6F6;stroke-width:12;stroke-linecap:round;stroke-miterlimit:10;}
	.st35{fill:#79769E;}
	.st36{fill:none;stroke:#E9B31F;stroke-width:3;stroke-miterlimit:10;}
	.st37{fill:none;stroke:#79769E;stroke-width:3;stroke-miterlimit:10;}
	.st38{font-size:25.9487px;}
	.st39{font-family:'Poppins-Medium';}
	.st40{font-size:77.846px;}
	.st41{font-size:36.1931px;}
	.st42{font-size:50.3301px;}
	.st43{fill:none;stroke:#181825;stroke-width:5;stroke-miterlimit:10;}
	.st44{fill:#FFFFFF;}
	.st45{enable-background:new    ;}
	.st46{fill:none;stroke:#FFFFFF;stroke-width:3;stroke-miterlimit:10;}
	.st47{font-size:36.8147px;}
	.st48{fill:none;stroke:#FFFFFF;stroke-width:8;stroke-linecap:round;stroke-linejoin:round;stroke-miterlimit:10;}
	.st49{font-size:49.3025px;}
	.st50{fill:none;stroke:#F9F6F6;stroke-width:8;stroke-miterlimit:10;}
	.st51{fill:#171825;}
	.st52{fill:#F7F5F5;}
	.st53{font-size:30.2159px;}
	.st54{font-family:'Poppins-Light';}
	.st55{font-size:40px;}
	.st56{clip-path:url(#SVGID_6_);}
	.st57{font-family:'ArialMT';}
	.st58{font-size:8.3009px;}
	.st59{letter-spacing:22;}
	.st60{letter-spacing:25;}
	.st61{letter-spacing:-10;}
</style>























































































































































<g transform="translate(-1520.9 -7503.4)">
		<circle class="st3" cx="1567.4" cy="7549.9" r="46.5"/>
		
			<path class="st51" d="m1599.7 7536.3c-0.2-3.6-0.7-6-1.6-8.1-0.9-2.2-2.1-4.3-3.8-5.9-1.6-1.7-3.7-3-5.9-3.8-2-0.9-4.5-1.4-8.1-1.6s-4.7-0.2-13.7-0.2-10.1 0.1-13.7 0.2c-3.6 0.2-6 0.7-8.1 1.6-2.2 0.9-4.3 2.1-5.9 3.8-1.6 1.6-3 3.7-3.8 5.9-0.8 2-1.4 4.5-1.6 8.1s-0.2 4.7-0.2 13.8c0 9 0.1 10.1 0.2 13.7 0.2 3.6 0.7 6 1.6 8.1 0.9 2.2 2.1 4.3 3.8 5.9 1.6 1.6 3.7 3 5.9 3.8 2 0.9 4.5 1.4 8.1 1.6s4.7 0.2 13.7 0.2 10.1 0 13.7-0.2 6-0.7 8.1-1.6c4.5-1.7 8.1-5.2 9.7-9.7 0.8-2 1.4-4.5 1.6-8.1s0.2-4.7 0.2-13.7c-0.1-9-0.1-10.3-0.2-13.8zm-6 27.2c-0.2 3.3-0.7 5-1.2 6.1-1.2 2.8-3.4 5.1-6.3 6.3-1.2 0.4-2.9 1.1-6.1 1.2-3.6 0.2-4.6 0.2-13.4 0.2s-10 0-13.4-0.2c-3.3-0.2-5-0.7-6.1-1.2-1.5-0.5-2.8-1.4-3.8-2.5-1.2-1.2-2-2.4-2.5-3.8-0.4-1.2-1.1-2.9-1.2-6.1-0.2-3.5-0.2-4.6-0.2-13.4s0-10 0.2-13.4c0.2-3.3 0.7-5 1.2-6.1 0.5-1.5 1.4-2.8 2.5-3.8 1.2-1.2 2.4-2 3.8-2.5 1.2-0.4 2.9-1.1 6.1-1.2 3.6-0.2 4.6-0.2 13.4-0.2 8.9 0 10 0 13.4 0.2 3.3 0.2 5 0.7 6.1 1.2 1.5 0.5 2.8 1.4 3.8 2.5 1.2 1.2 2 2.4 2.5 3.8 0.4 1.2 1.1 2.9 1.2 6.1 0.2 3.5 0.2 4.6 0.2 13.4s0 9.9-0.2 13.4z"/>
			<path class="st51" d="m1566.7 7532.9c-9.4 0-17.1 7.6-17.1 17.1s7.6 17.1 17.1 17.1 17.1-7.6 17.1-17.1c-0.1-9.4-7.7-17.1-17.1-17.1zm0 28.2c-6.1 0-11.1-4.9-11.1-11.1s4.9-11.1 11.1-11.1c6.1 0 11.1 4.9 11.1 11.1s-5 11.1-11.1 11.1z"/>
			<path class="st51" d="m1588.4 7532.4c0 2.1-1.8 4-4 4s-4-1.8-4-4 1.8-4 4-4c2.3 0 4 1.6 4 4z"/>
		
	</g>





























</svg>
