<svg id="Layer_1" data-name="Layer 1" xmlns="http://www.w3.org/2000/svg" viewBox="0 0 440.8 440.8"><defs><style>.cls-1{fill:#7b3029;}.cls-2{fill:#e26351;}.cls-3,.cls-5{fill:#181825;}.cls-4{fill:#f8f6f6;}.cls-5{fill-rule:evenodd;}</style></defs><g id="g757"><g id="g693"><path id="path691" class="cls-1" d="M517.6,421.1c0,121.7-98.7,220.4-220.4,220.4A220.48,220.48,0,0,1,76.8,421.1c0-121.7,98.7-220.4,220.4-220.4A220.56,220.56,0,0,1,517.6,421.1Z" transform="translate(-76.8 -200.7)"/></g><g id="g697"><path id="path695" class="cls-2" d="M500.9,402.2c0,121.7-98.7,220.4-220.4,220.4a219.23,219.23,0,0,1-156.2-65A219.43,219.43,0,0,1,76.9,421.1c0-121.7,98.7-220.4,220.4-220.4a219.23,219.23,0,0,1,156.2,65A219,219,0,0,1,500.9,402.2Z" transform="translate(-76.8 -200.7)"/></g><g id="g755"><g id="g727"><g id="g701"><path id="path699" class="cls-3" d="M424.9,289.7H233.7c-5,0-4.7-.7-4.7,4.8V508.8c0,3.4,0,3.4-3.5,3.4H168.3c-1.9,0-2.7.6-2.6,2.5.1,2.1.1,4.2.4,6.3a35.88,35.88,0,0,0,35.3,31.4q95.7,0,191.4,0c12.4,0,22.2-5.6,29.4-15.6,4.7-6.6,6.5-14.2,6.5-22.2V293.5C428.7,289.7,428.7,289.7,424.9,289.7ZM366.6,543.8h-2.1c-53.6,0-107.3-.1-160.9.1-13.9.1-24.9-8.1-28.5-20.5-.8-2.7-.9-2.7,2-2.7H353.4c3.4,0,3.5,0,4.2,3.3a40.89,40.89,0,0,0,8.3,16.5c.5.6.9,1.2,1.4,1.9C368,543.3,367.8,543.8,366.6,543.8Zm6.2-8.5a26.91,26.91,0,0,1-7.4-19.5c.1-3.7,0-3.7-3.7-3.7H272.6c-3.3,0-3.4,0-3.4-3.3V333.2c0-3.3,0-3.3,3.4-3.3h116v81.7c-.1,12.3,0,24.5,0,36.8v66.5a29.12,29.12,0,0,1-7.6,20.4C377.2,539.3,376.5,539.4,372.8,535.3Zm47.4-126.9V514.7c0,11.3-4.5,20.1-14.5,25.8-5.9,3.4-12.3,3.4-18.7,3.2-1.1,0-1.2-.5-.6-1.3a40.81,40.81,0,0,1,2.5-3.3c5.7-7.1,8.2-15.4,8.2-24.4V324.4c0-3.1-.1-3.1-3.2-3.1H264.1c-3.5,0-3.5,0-3.5,3.5V510.5c0,1.1-.5,1.7-1.6,1.7H239.2c-1,0-1.6-.4-1.6-1.5V302c0-3.7,0-3.7,3.6-3.7H416.4c3.7,0,3.7,0,3.7,3.6V408.4Z" transform="translate(-76.8 -200.7)"/></g><g id="g705"><path id="path703" class="cls-4" d="M388.6,411.6c-.1,12.3,0,24.5,0,36.8v66.5a29.12,29.12,0,0,1-7.6,20.4c-3.8,4-4.4,4.1-8.1,0a26.91,26.91,0,0,1-7.4-19.5c.1-3.7,0-3.7-3.7-3.7H272.7c-3.3,0-3.4,0-3.4-3.3V333.2c0-3.3,0-3.3,3.4-3.3h116v81.7Z" transform="translate(-76.8 -200.7)"/></g><g id="g709"><path id="path707" class="cls-4" d="M420.2,301.9V514.8c0,11.3-4.5,20.1-14.5,25.8-5.9,3.4-12.3,3.4-18.7,3.2-1.1,0-1.2-.5-.6-1.3a40.81,40.81,0,0,1,2.5-3.3c5.7-7.1,8.2-15.4,8.2-24.4V324.5c0-3.1-.1-3.1-3.2-3.1H264.1c-3.5,0-3.5,0-3.5,3.5V510.6c0,1.1-.5,1.7-1.6,1.7H239.2c-1,0-1.6-.4-1.6-1.5V302c0-3.7,0-3.7,3.6-3.7H416.4C420.2,298.3,420.2,298.3,420.2,301.9Z" transform="translate(-76.8 -200.7)"/></g><g id="g713"><path id="path711" class="cls-4" d="M366.6,543.8h-2.1c-53.6,0-107.3-.1-160.9.1-13.9.1-24.9-8.1-28.5-20.5-.8-2.7-.9-2.7,2-2.7H353.4c3.4,0,3.5,0,4.2,3.3a40.89,40.89,0,0,0,8.3,16.5c.5.6.9,1.2,1.4,1.9C368,543.3,367.8,543.8,366.6,543.8Z" transform="translate(-76.8 -200.7)"/></g><g id="g717"><path id="path715" class="cls-4" d="M272.6,329.9c-3.3,0-3.4,0-3.4,3.3v-3.3Z" transform="translate(-76.8 -200.7)"/></g><g id="g721"><path id="path719" class="cls-4" d="M269.3,469.8v8.4h0Z" transform="translate(-76.8 -200.7)"/></g><g id="g725"><path id="path723" class="cls-4" d="M388.6,411.6v66.6h0V448.4C388.6,436.2,388.5,423.9,388.6,411.6Z" transform="translate(-76.8 -200.7)"/></g></g><g id="g753"><g id="g731"><path id="path729" class="cls-5" d="M301.9,484.1V473.5c5.7-.6,13.8,1.8,14-3.7.3-6-8.5-3.8-14-4.2V455c4.6-.5,19.4,1.1,21.5-1.2,1.9-2.1,1.1-6.5-1.3-7.3-1.3-.4-9.1-.2-11.1-.2-24.8,0-20.3-3-20.3,22.8,0,27.3-4.7,23.8,19.3,23.8,2.3,0,9.7.3,11.5-.1,2.7-.6,3.8-4.7,2.1-7.1C321.6,482.9,309,484.6,301.9,484.1Z" transform="translate(-76.8 -200.7)"/></g><g id="g735"><path id="path733" class="cls-5" d="M302.9,396.1c-12,2-15.9,10.9-12.1,18.3,4,7.8,15.9,8.3,20.2,13.2,4.1,4.6-2.4,7.5-7.8,6.7-5-.7-8.1-5.8-11.8-4.1-6.7,3.2-2.4,13.5,14.6,13.1,10.5-.2,18-5.5,17.3-15.3-.6-9.3-9.1-12.2-17.4-15.6-7.6-3.1-5.8-6.7-1.8-7.8,7.2-2,10.9,2.3,14.2,1.8,3.8-.5,5.9-6.7.4-9C314.5,395.7,307.5,395.3,302.9,396.1Z" transform="translate(-76.8 -200.7)"/></g><g id="g739"><path id="path737" class="cls-5" d="M338.8,405v32c0,3.9.8,5.5,5.4,5.6,7.6.1,5.8-4.7,5.8-15.9V404.9c2.2,0,8.5.2,10.2-.1,2.7-.5,3.7-4,2.6-6.7s-4.4-2.2-7.6-2.2H334.5c-3.2,0-7.1-.6-8.3,1.9-1.2,2.3-.5,6.1,2.1,6.8C329.7,405.2,336.7,405,338.8,405Z" transform="translate(-76.8 -200.7)"/></g><g id="g743"><path id="path741" class="cls-5" d="M366,365.2c0-6.4-.1-11.9-4.6-15.4-4-3.1-10.2-4.7-17.1-3.5-15.8,2.7-13.5,13.2-13.5,27.2,0,6.4.4,11.8,4.2,15.4,3.4,3.2,11,4.7,17.6,3.7C368,390.2,366,378.4,366,365.2ZM350.1,384c-9.4,1.6-8-6.9-8-13.1,0-7.5-1.7-15,4.8-16.2,9.2-1.7,8,6.8,8,12.9C354.8,373.1,356.8,382.9,350.1,384Z" transform="translate(-76.8 -200.7)"/></g><g id="g747"><path id="path745" class="cls-5" d="M326.4,359.1c-1.1-14.5-14.6-13.3-29.3-13.3-8.2,0-6.4,2.4-6.4,13.6V389c.3,3.1,3.9,3.8,7.4,3.3,4.2-.7,3.8-2.8,3.8-6.6v-9.9C308.5,375,327.9,378.2,326.4,359.1Zm-24.6,8.8V354.6c8-.6,13.6-.8,13.5,6.8C315.3,368.7,309.6,368.4,301.8,367.9Z" transform="translate(-76.8 -200.7)"/></g><g id="g751"><path id="path749" class="cls-5" d="M356.6,472.7c12.1-4.5,9.5-19.7,3.7-23.4s-17.6-3.2-25.8-3.1c-4.4,0-5.2.9-5.2,4.7-.1,11.6.1,23.3,0,34.9,0,3.2-.8,5.4,2.5,6.5,2.5.8,6.6.5,8-1,1.5-1.7.5-13.6.8-16.9h4.6l9.2,15.8c3.6,6.5,10.2.6,10.9-.9C366.5,486.2,359,478.8,356.6,472.7ZM346,466.8h-5.5V454.9H346c5.3,0,7.9,1,8,5.9C354,465.9,351.4,466.8,346,466.8Z" transform="translate(-76.8 -200.7)"/></g></g></g></g></svg>