<svg id="Layer_1" data-name="Layer 1" xmlns="http://www.w3.org/2000/svg" viewBox="0 0 1420.55 496.83"><defs><style>.cls-1,.cls-4{fill:none;stroke-miterlimit:10;}.cls-1{stroke:#f8f6f6;stroke-linecap:round;stroke-width:12px;}.cls-2,.cls-6{fill:#e26351;}.cls-3,.cls-5{fill:#f8f6f6;}.cls-4{stroke:#e26351;stroke-width:2px;}.cls-5,.cls-6,.cls-7{isolation:isolate;}.cls-5,.cls-6{font-size:25.16px;}.cls-5{font-family:Poppins-Bold, Poppins;font-weight:700;}.cls-6{font-family:Poppins-Medium, Poppins;font-weight:500;}</style></defs><line id="line364" class="cls-1" x1="54.7" y1="244.63" x2="1383.7" y2="244.63"/><g id="g462"><g id="g378"><g id="g370"><path id="path366" class="cls-2" d="M-348.57,481.72a36.7,36.7,0,0,0-36.8,36.8,36.7,36.7,0,0,0,36.8,36.8,36.7,36.7,0,0,0,36.8-36.8A36.83,36.83,0,0,0-348.57,481.72Zm0,64a27.34,27.34,0,0,1-27.3-27.3,27.34,27.34,0,0,1,27.3-27.3,27.27,27.27,0,0,1,27.3,27.3A27.4,27.4,0,0,1-348.57,545.72Z" transform="translate(385.37 -273.79)"/><circle id="ellipse368" class="cls-3" cx="-348.88" cy="518.42" r="17.8" transform="matrix(0.03, -1, 1, 0.03, -470.03, -121.31)"/></g><g id="g376"><line id="line372" class="cls-4" x1="36.8" y1="281.43" x2="36.8" y2="375.73"/><circle id="circle374" class="cls-2" cx="36.4" cy="367.43" r="9.1"/></g></g><g id="g392"><g id="g384"><path id="path380" class="cls-2" d="M-124.07,480.82a36.7,36.7,0,0,0-36.8,36.8,36.7,36.7,0,0,0,36.8,36.8,36.7,36.7,0,0,0,36.8-36.8A36.77,36.77,0,0,0-124.07,480.82Zm0,64a27.34,27.34,0,0,1-27.3-27.3,27.27,27.27,0,0,1,27.3-27.3,27.34,27.34,0,0,1,27.3,27.3A27.4,27.4,0,0,1-124.07,544.82Z" transform="translate(385.37 -273.79)"/><circle id="ellipse382" class="cls-3" cx="-123.95" cy="517.6" r="17.8" transform="translate(-229.64 38.55) rotate(-80.78)"/></g><g id="g390"><line id="line386" class="cls-4" x1="260.4" y1="207.03" x2="260.4" y2="112.73"/><circle id="ellipse388" class="cls-2" cx="260.9" cy="121.03" r="9.1"/></g></g><g id="g406"><g id="g398"><path id="path394" class="cls-2" d="M100.43,479.92a36.8,36.8,0,1,0,36.8,36.8A36.7,36.7,0,0,0,100.43,479.92Zm0,64a27.3,27.3,0,1,1,27.3-27.3A27.34,27.34,0,0,1,100.43,543.92Z" transform="translate(385.37 -273.79)"/><circle id="circle396" class="cls-3" cx="485.8" cy="242.93" r="17.8"/></g><g id="g404"><line id="line400" class="cls-4" x1="487.6" y1="279.73" x2="487.6" y2="373.93"/><circle id="circle402" class="cls-2" cx="487.1" cy="365.73" r="9.1"/></g></g><g id="g420"><g id="g412"><path id="path408" class="cls-2" d="M549.33,478.22a36.8,36.8,0,1,0,36.8,36.8A36.7,36.7,0,0,0,549.33,478.22Zm0,64a27.3,27.3,0,1,1,27.3-27.3A27.34,27.34,0,0,1,549.33,542.22Z" transform="translate(385.37 -273.79)"/><circle id="circle410" class="cls-3" cx="934.7" cy="241.13" r="17.8"/></g><g id="g418"><line id="line414" class="cls-4" x1="935.6" y1="278.83" x2="935.6" y2="373.13"/><circle id="circle416" class="cls-2" cx="935.1" cy="364.83" r="9.1"/></g></g><g id="g432"><line id="line422" class="cls-4" x1="711.1" y1="205.23" x2="711.1" y2="111.03"/><g id="g430"><path id="path424" class="cls-2" d="M324.93,479a36.8,36.8,0,1,0,36.8,36.8A36.7,36.7,0,0,0,324.93,479Zm0,64.1a27.3,27.3,0,1,1,27.3-27.3A27.34,27.34,0,0,1,324.93,543.12Z" transform="translate(385.37 -273.79)"/><circle id="circle426" class="cls-3" cx="710.3" cy="242.03" r="17.8"/><circle id="circle428" class="cls-2" cx="711.6" cy="119.23" r="9.1"/></g></g><g id="g446"><g id="g438"><path id="path434" class="cls-2" d="M773.83,479a36.8,36.8,0,1,0,36.8,36.8A36.7,36.7,0,0,0,773.83,479Zm0,64.1a27.3,27.3,0,1,1,27.3-27.3A27.34,27.34,0,0,1,773.83,543.12Z" transform="translate(385.37 -273.79)"/><circle id="circle436" class="cls-3" cx="1159.2" cy="242.03" r="17.8"/></g><g id="g444"><line id="line440" class="cls-4" x1="1160" y1="205.23" x2="1160" y2="111.03"/><circle id="circle442" class="cls-2" cx="1160.5" cy="119.23" r="9.1"/></g></g><g id="g460"><g id="g452"><path id="path448" class="cls-2" d="M998.33,481.72a36.8,36.8,0,1,0,36.8,36.8A36.7,36.7,0,0,0,998.33,481.72Zm0,64a27.3,27.3,0,1,1,27.3-27.3A27.34,27.34,0,0,1,998.33,545.72Z" transform="translate(385.37 -273.79)"/><circle id="circle450" class="cls-3" cx="1383.7" cy="244.63" r="17.8"/></g><g id="g458"><line id="line454" class="cls-4" x1="1384.6" y1="282.33" x2="1384.6" y2="376.63"/><circle id="circle456" class="cls-2" cx="1384.1" cy="368.33" r="9.1"/></g></g></g><text id="text464" class="cls-5" transform="translate(0.03 421.8)">Aug 7th, 2021</text><text id="text466" class="cls-6" transform="translate(0.03 451.99)">Open Registration</text><text id="text468" class="cls-5" transform="translate(373.46 421.8)">Oct 9th-16th, 2021</text><g id="text474" class="cls-7"><text class="cls-6" transform="translate(393.61 451.99)">Favorite Poster</text><text class="cls-6" transform="translate(402.61 482.19)">Voting Period</text></g><text id="text476" class="cls-5" transform="translate(844.91 421.8)">Nov 20th, 2021</text><g id="text482" class="cls-7"><text class="cls-6" transform="translate(819.44 451.99)">Technical Meeting</text><text class="cls-6" transform="translate(842.34 482.19)">for Grand Final</text></g><text id="text484" class="cls-5" transform="translate(1242.31 421.8)">Nov 27th, 2021</text><g id="text490" class="cls-7"><text class="cls-6" transform="translate(1170.34 451.99)">Main Stage of POISE</text><text class="cls-6" transform="translate(1180.94 482.19)">2021 and Awarding</text></g><g id="text496" class="cls-7"><text class="cls-6" transform="translate(105.32 21.35)">Preliminary Stage Poster</text><text class="cls-6" transform="translate(127.22 51.55)">Submission Deadline</text></g><text id="text498" class="cls-5" transform="translate(166.38 85.02)">Sept 24th, 2021</text><g id="text504" class="cls-7"><text class="cls-6" transform="translate(539.71 21.35)">Selected Preliminary Stage</text><text class="cls-6" transform="translate(569.01 51.55)">Poster Announcement</text></g><text id="text506" class="cls-5" transform="translate(625.63 85.02)">Nov 13rd, 2021</text><g id="text512" class="cls-7"><text class="cls-6" transform="translate(1090.74 21.35)">Final Stage</text><text class="cls-6" transform="translate(1025.64 51.55)">(Poster Presentation)</text></g><text id="text514" class="cls-5" transform="translate(1069.72 85.02)">Nov 26th, 2021</text></svg>