<?xml version="1.0" encoding="UTF-8"?>
<svg width="262.36" height="262.36" version="1.1" viewBox="0 0 262.36 262.36" xml:space="preserve" xmlns="http://www.w3.org/2000/svg">
<style type="text/css">
	.st0{fill:#181825;}
	.st1{fill-rule:evenodd;clip-rule:evenodd;fill:#F4D78A;}
	.st2{fill-rule:evenodd;clip-rule:evenodd;fill:#E26350;}
	.st3{fill-rule:evenodd;clip-rule:evenodd;fill:#F5D149;}
	.st4{fill:#F4D78A;}
	.st5{opacity:0.6;}
	.st6{clip-path:url(#SVGID_2_);}
	.st7{clip-path:url(#SVGID_4_);}
	.st8{clip-path:url(#SVGID_6_);}
	.st9{clip-path:url(#SVGID_8_);}
	.st10{fill:#E26350;}
	.st11{clip-path:url(#SVGID_10_);}
	.st12{clip-path:url(#SVGID_12_);}
	.st13{clip-path:url(#SVGID_14_);}
	.st14{clip-path:url(#SVGID_16_);}
	.st15{fill:none;stroke:#000000;stroke-width:10;stroke-linecap:round;stroke-miterlimit:10;}
	.st16{clip-path:url(#SVGID_18_);}
	.st17{clip-path:url(#SVGID_20_);}
	.st18{clip-path:url(#SVGID_22_);}
	.st19{clip-path:url(#SVGID_24_);}
	.st20{fill:#F9F6F6;}
	.st21{fill:none;stroke:#181825;stroke-width:10;stroke-linecap:round;stroke-miterlimit:10;}
	.st22{opacity:0.76;}
	.st23{fill:#AA6E00;}
	.st24{fill:#E9B31F;}
	.st25{fill:#EAB41F;}
	.st26{clip-path:url(#SVGID_26_);}
	.st27{fill:#181825;stroke:#181825;stroke-width:2;stroke-miterlimit:10;}
	.st28{fill:#7B2F28;}
	.st29{fill-rule:evenodd;clip-rule:evenodd;fill:#181825;}
	.st30{fill:#F9F6F6;stroke:#F9F6F6;stroke-miterlimit:10;}
	.st31{fill:none;stroke:#F9F6F6;stroke-width:8;stroke-linecap:round;stroke-linejoin:round;stroke-miterlimit:10;}
	.st32{fill:none;stroke:#181825;stroke-width:8;stroke-linecap:round;stroke-linejoin:round;stroke-miterlimit:10;}
	.st33{clip-path:url(#SVGID_28_);}
	.st34{fill:none;}
	.st35{opacity:0.5;}
	.st36{fill:none;stroke:#F9F6F6;stroke-width:8;stroke-miterlimit:10;}
	.st37{fill:#171825;}
	.st38{clip-path:url(#SVGID_36_);}
	.st39{clip-path:url(#SVGID_38_);}
	.st40{clip-path:url(#SVGID_40_);}
	.st41{clip-path:url(#SVGID_42_);}
	.st42{fill:none;stroke:#F9F6F6;stroke-width:12;stroke-linecap:round;stroke-miterlimit:10;}
	.st43{fill:none;stroke:#E26350;stroke-width:3;stroke-miterlimit:10;}
	.st44{opacity:0.5;fill:#F4D78A;}
	.st45{opacity:0.5;fill:#79769F;}
	.st46{font-family:'Poppins-Bold';}
	.st47{font-size:118.4928px;}
	.st48{fill:none;stroke:#181825;stroke-width:3;stroke-miterlimit:10;}
	.st49{clip-path:url(#SVGID_44_);}
	.st50{clip-path:url(#SVGID_46_);}
	.st51{clip-path:url(#SVGID_48_);}
	.st52{clip-path:url(#SVGID_50_);}
	.st53{font-size:140px;}
</style>













<g transform="translate(1809.2 657.18)">
		
			<path class="st28" d="m-1546.8-526c0 72.45-58.73 131.18-131.18 131.18-41.76 0-78.96-19.51-102.97-49.91-17.67-22.35-28.21-50.58-28.21-81.27 0-72.45 58.73-131.18 131.18-131.18 36.35 0 69.24 14.78 92.99 38.66 23.61 23.72 38.19 56.42 38.19 92.52z"/>
		
		
			<path class="st10" d="m-1556.8-537.25c0 72.45-58.73 131.18-131.18 131.18-36.35 0-69.24-14.78-92.99-38.66-17.67-22.35-28.21-50.58-28.21-81.27 0-72.45 58.73-131.18 131.18-131.18 36.35 0 69.24 14.78 92.99 38.66 17.67 22.34 28.21 50.57 28.21 81.27z"/>
		
		
			
				
					<path class="st0" d="m-1602-604.19c-37.93 0-75.86 0-113.81 0.01-3 0-2.78-0.41-2.78 2.84v127.52c0 2.03-0.01 2.03-2.06 2.03h-18.7c-5.12 0-10.24 0.02-15.36-0.01-1.11-0.01-1.62 0.35-1.56 1.51 0.06 1.25 0.06 2.48 0.22 3.73 1.32 10.54 10.37 18.7 21.04 18.71 37.98 0.02 75.96 0.05 113.94-0.02 7.37-0.01 13.23-3.3 17.49-9.31 2.81-3.95 3.85-8.44 3.85-13.2v-131.52c-0.01-2.29-0.01-2.29-2.27-2.29zm-34.73 151.24c-0.41 0.01-0.82 0.01-1.25 0.01-31.92 0-63.85-0.08-95.76 0.06-8.27 0.04-14.84-4.82-16.94-12.19-0.46-1.6-0.53-1.59 1.16-1.59h104.91c2.05 0 2.06 0 2.49 1.97 0.82 3.69 2.6 6.89 4.96 9.79 0.29 0.35 0.54 0.74 0.82 1.1 0.42 0.56 0.33 0.85-0.39 0.85zm3.72-5.04c-3-3.29-4.55-7.09-4.39-11.58 0.07-2.19 0-2.2-2.23-2.2h-53.03c-1.98 0-2 0-2-1.95 0-6.09 0.01-12.19 0.01-18.28 0-1.67 0-3.33-0.01-5 0-2.12 0-4.24-0.01-6.35 0-0.17 0-0.33 0.01-0.47v-74.46c0-1.97 0.01-1.97 2-1.97h69.03v48.64c-0.06 7.3-0.02 14.58-0.02 21.88v17.73c0 7.29 0 14.57-0.01 21.86-0.01 4.59-1.34 8.7-4.54 12.13-2.25 2.39-2.62 2.43-4.81 0.02zm28.17-75.52c0 21.08 0.01 42.18 0 63.26-0.01 6.71-2.66 11.96-8.61 15.37-3.49 2-7.31 2.05-11.16 1.92-0.64-0.02-0.71-0.3-0.36-0.79 0.5-0.67 0.98-1.34 1.5-1.98 3.41-4.25 4.89-9.16 4.89-14.54 0.01-37.75 0-75.5 0-113.25 0-1.82-0.04-1.84-1.88-1.84h-77.26c-2.06 0-2.06 0-2.06 2.06-0.01 36.32-0.01 72.64-0.01 108.97 0 0.51-0.01 1.02 0 1.53 0.01 0.68-0.28 1.03-0.98 1.03-3.92-0.01-7.84-0.01-11.78-0.01-0.61 0-0.94-0.25-0.94-0.91 0.01-0.41 0-0.82 0-1.25v-122.95c0-2.2 0-2.2 2.17-2.2h104.26c2.21 0 2.21 0 2.21 2.15v63.43z"/>
				
				
					<path class="st20" d="m-1623.6-531.61c-0.06 7.3-0.02 14.58-0.02 21.88v17.73c0 7.29 0 14.57-0.01 21.86-0.01 4.59-1.34 8.7-4.54 12.13-2.24 2.4-2.61 2.43-4.81 0.02-3-3.29-4.55-7.09-4.39-11.58 0.07-2.19 0-2.2-2.23-2.2h-53.03c-1.98 0-2 0-2-1.95 0-6.09 0.01-12.19 0.01-18.28 0-1.67 0-3.33-0.01-5 0-2.12 0-4.24-0.01-6.35 0-0.17 0-0.33 0.01-0.47v-74.46c0-1.97 0.01-1.97 2-1.97h69.03z"/>
				
				
					<path class="st20" d="m-1604.8-596.94v63.42c0 21.08 0.01 42.18 0 63.26-0.01 6.71-2.66 11.96-8.61 15.37-3.49 2-7.31 2.05-11.16 1.92-0.64-0.02-0.71-0.3-0.36-0.79 0.5-0.67 0.98-1.34 1.5-1.98 3.41-4.25 4.89-9.16 4.89-14.54 0.01-37.75 0-75.5 0-113.25 0-1.82-0.04-1.84-1.88-1.84h-77.26c-2.06 0-2.06 0-2.06 2.06-0.01 36.32-0.01 72.64-0.01 108.97 0 0.51-0.01 1.02 0 1.53 0.01 0.68-0.28 1.03-0.98 1.03-3.92-0.01-7.84-0.01-11.78-0.01-0.61 0-0.94-0.25-0.94-0.91 0.01-0.41 0-0.82 0-1.25v-122.95c0-2.2 0-2.2 2.17-2.2h104.26c2.22 0.01 2.22 0.01 2.22 2.16z"/>
				
				
					<path class="st20" d="m-1636.7-452.95c-0.41 0.01-0.82 0.01-1.25 0.01-31.92 0-63.85-0.08-95.76 0.06-8.27 0.04-14.84-4.82-16.94-12.19-0.46-1.6-0.53-1.59 1.16-1.59h104.91c2.05 0 2.06 0 2.49 1.97 0.82 3.69 2.6 6.89 4.96 9.79 0.29 0.35 0.54 0.74 0.82 1.1 0.42 0.56 0.33 0.85-0.39 0.85z"/>
				
				
					<path class="st20" d="m-1692.6-580.25c-1.98 0-2 0-2 1.97v-1.97z"/>
				
				
					<path class="st20" d="m-1694.6-496.99c0.01 1.67 0.01 3.33 0.01 5h-0.01z"/>
				
				
					<path class="st20" d="m-1623.6-531.61v39.61h-0.02v-17.73c0-7.29-0.04-14.58 0.02-21.88z"/>
				
			
			
				
					<path class="st29" d="m-1675.2-488.5-0.01-6.33c3.37-0.38 8.2 1.07 8.36-2.18 0.18-3.59-5.09-2.27-8.34-2.49l-0.02-6.3c2.73-0.29 11.57 0.66 12.8-0.74 1.12-1.27 0.66-3.89-0.79-4.37-0.77-0.25-5.39-0.13-6.59-0.13-14.76 0-12.06-1.77-12.06 13.56 0 16.26-2.8 14.19 11.52 14.19 1.39 0 5.77 0.16 6.82-0.05 1.63-0.33 2.24-2.79 1.23-4.22-1.15-1.64-8.69-0.62-12.92-0.94z"/>
				
				
					<path class="st29" d="m-1674.6-540.88c-7.13 1.21-9.48 6.46-7.23 10.89 2.35 4.63 9.45 4.95 12.04 7.83 2.45 2.71-1.43 4.44-4.67 3.96-2.95-0.44-4.79-3.47-7.05-2.41-3.99 1.88-1.42 8.01 8.69 7.82 6.27-0.12 10.69-3.29 10.32-9.1-0.35-5.53-5.43-7.28-10.33-9.28-4.53-1.85-3.44-3.99-1.09-4.64 4.27-1.19 6.47 1.34 8.42 1.08 2.23-0.3 3.52-4 0.23-5.37-2.4-1.02-6.58-1.25-9.33-0.78z"/>
				
				
					<path class="st29" d="m-1653.3-535.59-0.01 19.07c-0.02 2.32 0.48 3.29 3.19 3.33 4.54 0.08 3.46-2.77 3.46-9.45v-12.96c1.29 0 5.06 0.15 6.07-0.05 1.62-0.32 2.19-2.39 1.56-3.96-0.64-1.6-2.6-1.3-4.51-1.29h-12.34c-1.92 0-4.21-0.38-4.97 1.13-0.69 1.38-0.32 3.62 1.26 4.07 0.89 0.23 5.07 0.11 6.29 0.11z"/>
				
				
					<path class="st29" d="m-1637.1-559.28c0-3.84-0.06-7.07-2.73-9.16-2.38-1.86-6.09-2.8-10.15-2.11-9.38 1.58-8.03 7.87-8.04 16.16 0 3.79 0.22 7.05 2.53 9.19 2.03 1.88 6.55 2.81 10.49 2.21 9.12-1.37 7.9-8.41 7.9-16.29zm-9.48 11.22c-5.61 0.93-4.79-4.1-4.79-7.81 0-4.46-1.01-8.92 2.84-9.66 5.45-1.04 4.79 4.04 4.79 7.7 0 3.28 1.2 9.11-2.84 9.77z"/>
				
				
					<path class="st29" d="m-1660.6-562.9c-0.66-8.63-8.67-7.89-17.44-7.89-4.86 0-3.83 1.43-3.83 8.08v17.6c0.17 1.83 2.31 2.29 4.37 1.96 2.48-0.39 2.28-1.69 2.27-3.93-0.01-1.97 0-3.93 0-5.9 3.97-0.43 15.5 1.45 14.63-9.92zm-14.63 5.25 0.02-7.92c4.73-0.33 8.1-0.49 8.03 4.08-0.06 4.34-3.44 4.16-8.05 3.84z"/>
				
				
					<path class="st29" d="m-1642.7-495.28c7.23-2.67 5.65-11.74 2.19-13.92-3.53-2.24-10.45-1.88-15.37-1.84-2.59 0.02-3.07 0.53-3.09 2.81-0.04 6.92 0.04 13.85 0.01 20.78-0.01 1.91-0.47 3.2 1.48 3.87 1.47 0.5 3.92 0.31 4.74-0.59 0.92-1.01 0.31-8.09 0.47-10.08h2.75l5.48 9.43c2.13 3.86 6.08 0.38 6.46-0.55 0.77-1.86-3.65-6.28-5.12-9.91zm-6.31-3.53h-3.3l0.01-7.06h3.29c3.18 0 4.73 0.59 4.74 3.51 0.01 3.01-1.49 3.55-4.74 3.55z"/>
				
			
		
	</g>





































</svg>
