<?xml version="1.0" encoding="UTF-8"?>
<svg width="224.5" height="336.2" version="1.1" viewBox="0 0 224.5 336.2" xml:space="preserve" xmlns="http://www.w3.org/2000/svg">
<style type="text/css">
	.st0{fill:#181825;}
	.st1{fill:#7B2F28;}
	.st2{fill:#E26350;}
	.st3{fill:#F9F6F6;}
	.st4{fill-rule:evenodd;clip-rule:evenodd;fill:#181825;}
	.st5{fill:#E9B31F;}
	.st6{font-family:'Poppins-BoldItalic';}
	.st7{font-size:161.0247px;}
	.st8{fill:none;}
	.st9{font-family:'Poppins-SemiBold';}
	.st10{font-size:28.5436px;}
	.st11{letter-spacing:2.7;}
	.st12{font-family:'Poppins-Regular';}
	.st13{letter-spacing:3.6;}
	.st14{letter-spacing:6.3;}
	.st15{letter-spacing:5.4;}
	.st16{fill:#AA6E00;}
	.st17{font-size:26.1914px;}
	.st18{fill:none;stroke:#AA6E00;stroke-width:3;stroke-miterlimit:10;}
	.st19{font-size:32.8683px;}
	.st20{clip-path:url(#SVGID_2_);}
	.st21{clip-path:url(#SVGID_4_);}
	.st22{font-family:'Bebas-Regular';}
	.st23{font-size:40.8501px;}
	.st24{fill-rule:evenodd;clip-rule:evenodd;fill:#F4D78A;}
	.st25{fill-rule:evenodd;clip-rule:evenodd;fill:#E26350;}
	.st26{fill-rule:evenodd;clip-rule:evenodd;fill:#F5D149;}
	.st27{fill:#F4D78A;}
	.st28{font-family:'Poppins-ExtraBold';}
	.st29{font-size:81.2035px;}
	.st30{letter-spacing:-1;}
	.st31{font-family:'Poppins-Bold';}
	.st32{font-size:102.4911px;}
	.st33{font-size:39.7879px;}
	.st34{fill:none;stroke:#F9F6F6;stroke-width:12;stroke-linecap:round;stroke-miterlimit:10;}
	.st35{fill:#79769E;}
	.st36{fill:none;stroke:#E9B31F;stroke-width:3;stroke-miterlimit:10;}
	.st37{fill:none;stroke:#79769E;stroke-width:3;stroke-miterlimit:10;}
	.st38{font-size:25.9487px;}
	.st39{font-family:'Poppins-Medium';}
	.st40{font-size:77.846px;}
	.st41{font-size:36.1931px;}
	.st42{font-size:50.3301px;}
	.st43{fill:none;stroke:#181825;stroke-width:5;stroke-miterlimit:10;}
	.st44{fill:#FFFFFF;}
	.st45{enable-background:new    ;}
	.st46{fill:none;stroke:#FFFFFF;stroke-width:3;stroke-miterlimit:10;}
	.st47{font-size:36.8147px;}
	.st48{fill:none;stroke:#FFFFFF;stroke-width:8;stroke-linecap:round;stroke-linejoin:round;stroke-miterlimit:10;}
	.st49{font-size:49.3025px;}
	.st50{fill:none;stroke:#F9F6F6;stroke-width:8;stroke-miterlimit:10;}
	.st51{fill:#171825;}
	.st52{fill:#F7F5F5;}
	.st53{font-size:30.2159px;}
	.st54{font-family:'Poppins-Light';}
	.st55{font-size:40px;}
	.st56{clip-path:url(#SVGID_6_);}
	.st57{font-family:'ArialMT';}
	.st58{font-size:8.3009px;}
	.st59{letter-spacing:22;}
	.st60{letter-spacing:25;}
	.st61{letter-spacing:-10;}
</style>























































































































































<g transform="translate(-196.3 -7408.4)">
		
		
			
				<path class="st27" d="m196.3 7641.3h15.9c9.4 0 15.4 5 15.4 13.6v0.1c0 9.1-6.7 13.9-15.9 13.9h-5v11.1h-10.3zm15.2 19.1c3.7 0 5.9-1.9 5.9-5v-0.1c0-3.3-2.2-5-5.9-5h-4.9v10.2h4.9z"/>
				<path class="st27" d="m228.6 7660.7c0-10.8 8.5-19.4 20-19.4 11.4 0 19.9 8.5 19.9 19.2v0.1c0 10.7-8.5 19.3-20 19.3-11.4-0.1-19.9-8.6-19.9-19.2zm29.5 0c0-5.4-3.9-10.1-9.5-10.1s-9.4 4.6-9.4 9.9v0.1c0 5.3 3.9 10 9.5 10s9.4-4.6 9.4-9.9z"/>
				<path class="st27" d="m273.8 7641.3h12.3l-7 38.5h-12.3z"/>
				<path class="st27" d="m283.8 7673.7 5.7-6.9c3.7 2.9 7.8 4.5 12 4.5 2.7 0 4.3-1 4.3-2.5v-0.1c0-1.6-1.3-2.4-6.2-3.6-7.9-1.8-14-4.1-14-11.6v-0.1c0-6.9 5.4-11.9 14.4-11.9 6.3 0 11.3 1.7 15.2 4.9l-5.1 7.3c-3.4-2.4-7.1-3.7-10.4-3.7-2.5 0-3.7 1.1-3.7 2.4v0.1c0 1.7 1.3 2.4 6.4 3.6 8.5 1.8 13.8 4.7 13.8 11.5v0.1c0 7.6-6 12.1-15 12.1-6.5 0-12.8-2-17.4-6.1z"/>
				<path class="st27" d="m317.4 7641.3h29.8v9.1h-19.7v5.8h17.8v8.4h-17.8v6.1h19.9v9.1h-30.1z"/>
			
			<path class="st27" d="m196.3 7725 19.2-14.9c4.8-3.8 6.6-6.3 6.6-9.4 0-3.3-2.2-5.3-5.7-5.3s-6.1 2-10.2 6.7l-9.6-8.1c5.5-7.3 11-11.3 20.9-11.3 11.3 0 18.9 6.8 18.9 16.7v0.2c0 8.3-4.3 12.7-11.8 18.3l-8.8 6.3h21.1v11.8h-40.6z"/>
			<path class="st27" d="m237.3 7709.4v-0.2c0-14.6 9.2-26.7 23.9-26.7 14.6 0 23.7 12 23.7 26.6v0.1c0 14.6-9.1 26.7-23.9 26.7-14.7 0-23.7-12-23.7-26.5zm33.1 0v-0.2c0-8.1-3.9-14.1-9.5-14.1s-9.4 5.7-9.4 14v0.1c0 8.2 3.8 14.1 9.5 14.1s9.4-5.7 9.4-13.9z"/>
			<path class="st2" d="m282.4 7725 19.2-14.9c4.8-3.8 6.6-6.3 6.6-9.4 0-3.3-2.2-5.3-5.7-5.3s-6.1 2-10.2 6.7l-9.6-8.1c5.5-7.3 11-11.3 20.9-11.3 11.3 0 18.9 6.8 18.9 16.7v0.2c0 8.3-4.3 12.7-11.8 18.3l-8.8 6.3h21.1v11.8h-40.5v-11z"/>
			<path class="st2" d="m333.5 7696.2-8.6 2-2.7-11.4 15-4.4h10.4v53.4h-14z"/>
		
			<path class="st24" d="m382.9 7685.3c0-44.5 0-89-0.1-133.5 0-1.8 0.4-2.2 2.1-2.2 11.2 0.1 22.4 0.1 33.6 0 1.8 0 2.1 0.4 2.1 2.2-0.1 64.2-0.1 128.5-0.1 192.8-1.9 0.1-18.1-11.8-23-18.7-8.3-11.8-14.7-24.4-14.6-39.6 0.3-0.4 0.3-0.7 0-1z"/>
			<path class="st25" d="m419.7 7577.9c-2.4 37.7-10 74.4-22.3 110-2.5 7.3-5.6 15.1-8.7 22.6-5.9-11-6.9-29.1-6.9-35.1v-124.5c0-7.6-1.7-14.6-5.2-21.3-4.7-9-11.9-14.9-21.8-17.5-8.4-2.1-17-2.1-25.2 0.5-15.2 4.9-22.1 16.5-24.8 31.4-0.5 2.7-0.6 5.5-0.6 8.3v62 3.1c-1.5 0-2.4-1-3.4-1.6-19.7-13.3-31.7-30.4-35.1-54-0.1-0.6-0.1-1.9-0.3-3v-4.9-3.2-7.1-2.1-2.1c0.8-3.2 0.6-6.6 1.3-9.8 5.4-25.8 21-42.8 45.1-52.2 7.8-3 15.8-4.9 24.2-5.6 5.6-0.3 8-0.2 13.5 0 8.3 0.6 16.4 2.5 24.3 5.4 24.4 9.3 40.1 26.5 45.8 52.4 0.8 3.4 1.1 6.2 1.2 10.4v4.4 3.2 4.9 13.6 2.7c-0.1 0.6-0.9 6.7-1.1 9.1z"/>
			
				<path class="st27" d="m303.9 7549.1v-79.5l-39.6 0.6v78.9c0 78 78.6 78 78.6 78s-39-19.5-39-78z"/>
			
			
				<path class="st27" d="m304.7 7419.7c-3.1 0-5.7 2.5-5.7 5.7s2.5 5.7 5.7 5.7c3.1 0 5.7-2.5 5.7-5.7s-2.6-5.7-5.7-5.7z"/>
			
			
				<path class="st27" d="m290 7409.5c-3.1 0-5.7 2.5-5.7 5.7s2.5 5.7 5.7 5.7c3.1 0 5.7-2.5 5.7-5.7s-2.5-5.7-5.7-5.7z"/>
			
			
				<circle class="st27" cx="271.7" cy="7414.1" r="5.7"/>
			
			
				<path class="st27" d="m264.9 7432.2s-39 0-39 39v39s0-39 39-39 39 38.4 39 38.4v-38.4c0-39-39-39-39-39z"/>
			
		
	</g>





























</svg>
