<?xml version="1.0" encoding="UTF-8"?>
<svg width="262.36" height="262.36" version="1.1" viewBox="0 0 262.36 262.36" xml:space="preserve" xmlns="http://www.w3.org/2000/svg" xmlns:xlink="http://www.w3.org/1999/xlink">
<style type="text/css">
	.st0{fill:#181825;}
	.st1{fill-rule:evenodd;clip-rule:evenodd;fill:#F4D78A;}
	.st2{fill-rule:evenodd;clip-rule:evenodd;fill:#E26350;}
	.st3{fill-rule:evenodd;clip-rule:evenodd;fill:#F5D149;}
	.st4{fill:#F4D78A;}
	.st5{opacity:0.6;}
	.st6{clip-path:url(#SVGID_2_);}
	.st7{clip-path:url(#SVGID_4_);}
	.st8{clip-path:url(#SVGID_6_);}
	.st9{clip-path:url(#SVGID_8_);}
	.st10{fill:#E26350;}
	.st11{clip-path:url(#SVGID_10_);}
	.st12{clip-path:url(#SVGID_12_);}
	.st13{clip-path:url(#SVGID_14_);}
	.st14{clip-path:url(#SVGID_16_);}
	.st15{fill:none;stroke:#000000;stroke-width:10;stroke-linecap:round;stroke-miterlimit:10;}
	.st16{clip-path:url(#SVGID_18_);}
	.st17{clip-path:url(#SVGID_20_);}
	.st18{clip-path:url(#SVGID_22_);}
	.st19{clip-path:url(#SVGID_24_);}
	.st20{fill:#F9F6F6;}
	.st21{fill:none;stroke:#181825;stroke-width:10;stroke-linecap:round;stroke-miterlimit:10;}
	.st22{opacity:0.76;}
	.st23{fill:#AA6E00;}
	.st24{fill:#E9B31F;}
	.st25{fill:#EAB41F;}
	.st26{clip-path:url(#SVGID_26_);}
	.st27{fill:#181825;stroke:#181825;stroke-width:2;stroke-miterlimit:10;}
	.st28{fill:#7B2F28;}
	.st29{fill-rule:evenodd;clip-rule:evenodd;fill:#181825;}
	.st30{fill:#F9F6F6;stroke:#F9F6F6;stroke-miterlimit:10;}
	.st31{fill:none;stroke:#F9F6F6;stroke-width:8;stroke-linecap:round;stroke-linejoin:round;stroke-miterlimit:10;}
	.st32{fill:none;stroke:#181825;stroke-width:8;stroke-linecap:round;stroke-linejoin:round;stroke-miterlimit:10;}
	.st33{clip-path:url(#SVGID_28_);}
	.st34{fill:none;}
	.st35{opacity:0.5;}
	.st36{fill:none;stroke:#F9F6F6;stroke-width:8;stroke-miterlimit:10;}
	.st37{fill:#171825;}
	.st38{clip-path:url(#SVGID_36_);}
	.st39{clip-path:url(#SVGID_38_);}
	.st40{clip-path:url(#SVGID_40_);}
	.st41{clip-path:url(#SVGID_42_);}
	.st42{fill:none;stroke:#F9F6F6;stroke-width:12;stroke-linecap:round;stroke-miterlimit:10;}
	.st43{fill:none;stroke:#E26350;stroke-width:3;stroke-miterlimit:10;}
	.st44{opacity:0.5;fill:#F4D78A;}
	.st45{opacity:0.5;fill:#79769F;}
	.st46{font-family:'Poppins-Bold';}
	.st47{font-size:118.4928px;}
	.st48{fill:none;stroke:#181825;stroke-width:3;stroke-miterlimit:10;}
	.st49{clip-path:url(#SVGID_44_);}
	.st50{clip-path:url(#SVGID_46_);}
	.st51{clip-path:url(#SVGID_48_);}
	.st52{clip-path:url(#SVGID_50_);}
	.st53{font-size:140px;}
</style>













<g transform="translate(884.18,658.18)">
		
			
				<path class="st23" d="m-621.82-527c0 72.45-58.73 131.18-131.18 131.18-41.76 0-78.96-19.51-102.97-49.91-17.67-22.35-28.21-50.58-28.21-81.27 0-72.45 58.73-131.18 131.18-131.18 36.35 0 69.24 14.78 92.99 38.66 23.61 23.72 38.19 56.42 38.19 92.52z"/>
			
			
				<path class="st24" d="m-631.8-538.25c0 72.45-58.73 131.18-131.18 131.18-36.35 0-69.24-14.78-92.99-38.66-17.67-22.35-28.21-50.58-28.21-81.27 0-72.45 58.73-131.18 131.18-131.18 36.35 0 69.24 14.78 92.99 38.66 17.67 22.34 28.21 50.57 28.21 81.27z"/>
			
		
		
			
				
					
						<path class="st20" d="m-677.65-590.91c-1.76-4.29-5.63-6.7-10.79-6.7h-110.69c-6.24 0-12.48-0.02-18.73 0.01-6.76 0.03-11.32 4.63-11.32 11.39v97.64c0 6.58 4.64 11.22 11.21 11.22h46.5 1.68c-1.16 3.88-1.82 7.83-3.45 11.41-1.79 3.93-5.12 6.08-9.54 6.14-5.42 0.07-10.85 0.01-16.27 0.02-1.37 0-2.08 0.64-2.05 1.76 0.03 1.05 0.71 1.59 2.05 1.63 0.22 0.01 0.43 0 0.65 0h90.8c0.47 0 0.96 0.02 1.41-0.08 0.74-0.17 1.2-0.66 1.26-1.44 0.07-0.82-0.28-1.4-1.05-1.74-0.46-0.2-0.93-0.14-1.4-0.14-5.38-0.01-10.76 0.01-16.14-0.01-3.99-0.01-8.3-2.96-9.56-6.74-1.16-3.5-2.08-7.08-3.17-10.82h1.72 46.62c6.33 0 11.06-4.68 11.06-10.99 0.01-32.76 0-65.52 0-98.29 0.02-1.47-0.24-2.9-0.8-4.27z"/>
						<path class="st0" d="m-798.78-453.88h-0.33c-3.22-0.1-4.42-2.24-4.48-4.05-0.05-1.51 0.58-2.48 1.11-3.04 0.57-0.59 1.64-1.3 3.43-1.31 1.95-0.01 3.9 0 5.86 0 3.41 0.01 6.94 0.02 10.39-0.03 3.45-0.04 5.91-1.62 7.3-4.67 1-2.2 1.61-4.61 2.27-7.16l0.18-0.72h-44.9c-7.94 0-13.71-5.77-13.71-13.72v-97.64c0-8.14 5.68-13.86 13.81-13.89 4.34-0.02 8.68-0.01 13.02-0.01h116.4c6.18 0 10.95 3.01 13.1 8.25 0.67 1.63 1 3.38 1 5.23v21.58 76.71c0 7.69-5.83 13.48-13.56 13.49h-45.03c0.02 0.08 0.05 0.17 0.07 0.25 0.71 2.53 1.38 4.92 2.16 7.28 0.9 2.72 4.2 5.02 7.19 5.03 3.3 0.01 6.6 0.01 9.89 0.01h6.45c0.52-0.01 1.31-0.03 2.19 0.35 1.75 0.76 2.7 2.34 2.54 4.23-0.15 1.86-1.38 3.27-3.21 3.68-0.66 0.15-1.27 0.14-1.75 0.14h-91.18c-0.07 0.01-0.14 0.01-0.21 0.01zm-0.45-3.39m27.77-22.58h5.04l-0.96 3.22c-0.37 1.23-0.69 2.5-1.01 3.74-0.68 2.65-1.37 5.39-2.56 7.99-1.23 2.7-3.08 4.74-5.42 6.02h46.94c-2.79-1.52-5.07-4.01-6.02-6.86-0.82-2.47-1.51-4.92-2.23-7.51-0.31-1.12-0.63-2.25-0.96-3.4l-0.93-3.2h51.67c4.96 0 8.56-3.57 8.56-8.49 0.01-25.57 0.01-51.14 0-76.71v-21.58c0-1.19-0.21-2.31-0.63-3.33-1.74-4.25-5.57-5.15-8.47-5.15h-116.41c-4.33 0-8.66-0.01-13 0.01-5.36 0.02-8.83 3.51-8.83 8.89v97.64c0 5.22 3.5 8.72 8.71 8.72z"/>
					
					
						<path class="st25" d="m-753.03-486.35c-3.36 0-6.16-2.82-6.16-6.18 0-3.34 2.82-6.19 6.16-6.22 3.36-0.03 6.27 2.9 6.23 6.28-0.04 3.36-2.85 6.12-6.23 6.12z"/>
						<path class="st0" d="m-753.03-484.35h-0.01c-4.42-0.01-8.16-3.75-8.16-8.18 0-4.41 3.73-8.18 8.15-8.22 2.12 0.01 4.25 0.87 5.81 2.43 1.57 1.58 2.46 3.71 2.44 5.87-0.05 4.47-3.74 8.1-8.23 8.1zm0-4c2.27 0 4.21-1.89 4.23-4.14 0.01-1.08-0.45-2.18-1.27-3-0.81-0.81-1.86-1.23-2.94-1.26-2.23 0.02-4.18 1.99-4.18 4.22-0.01 2.26 1.9 4.17 4.16 4.18z"/>
					
					
						<path class="st20" d="m-685.83-516.11c0 2.41-0.4 2.8-2.87 2.8h-64.31-64.44c-2.28 0-2.72-0.43-2.72-2.69v-69.99c0-2.12 0.54-2.66 2.67-2.66h128.88c2.3 0 2.79 0.5 2.79 2.81v69.73z"/>
						<path class="st0" d="m-688.7-511.31h-128.75c-3.4 0-4.72-1.32-4.72-4.69v-69.99c0-3.23 1.44-4.66 4.67-4.66h128.88c3.4 0 4.79 1.39 4.79 4.81v69.73c0 3.5-1.32 4.8-4.87 4.8zm-129.45-4.02c0.16 0.01 0.38 0.02 0.7 0.02h128.75c0.4 0 0.66-0.01 0.85-0.03 0.01-0.17 0.02-0.42 0.02-0.78v-69.73c0-0.37-0.02-0.62-0.03-0.78-0.16-0.02-0.4-0.03-0.75-0.03h-128.88c-0.3 0-0.51 0.01-0.64 0.03-0.02 0.14-0.03 0.34-0.03 0.63v70c-0.01 0.3 0 0.52 0.01 0.67z"/>
					
				
				
					<defs>
						<rect id="SVGID_25_" x="-817.45" y="-586.92" width="128.9" height="71.88"/>
					</defs>
					<clipPath id="SVGID_26_">
						<use width="100%" height="100%" xlink:href="#SVGID_25_"/>
					</clipPath>
					<g class="st26" clip-path="url(#SVGID_26_)">
						
							<path class="st27" d="m-711.23-546.31h-5.76c-1.33 0-2.5-0.9-2.84-2.19-0.78-2.92-1.94-5.73-3.47-8.36-0.67-1.16-0.48-2.62 0.46-3.56l4.08-4.08c0.76-0.76 0.76-2 0-2.77l-6.64-6.64c-0.76-0.76-2-0.76-2.77 0l-4.07 4.08c-0.94 0.94-2.4 1.13-3.56 0.46-2.62-1.52-5.43-2.69-8.36-3.47-1.29-0.34-2.19-1.51-2.19-2.84v-5.76c0-1.08-0.88-1.96-1.96-1.96h-9.4c-1.08 0-1.96 0.88-1.96 1.96v5.76c0 1.33-0.9 2.5-2.19 2.84-2.92 0.78-5.73 1.94-8.36 3.47-1.16 0.67-2.62 0.48-3.56-0.46l-4.08-4.08c-0.76-0.76-2-0.76-2.77 0l-6.64 6.64c-0.37 0.37-0.57 0.86-0.57 1.38s0.2 1.01 0.57 1.38l4.07 4.08c0.94 0.94 1.13 2.4 0.46 3.56-1.52 2.62-2.69 5.44-3.47 8.36-0.34 1.29-1.51 2.19-2.84 2.19h-5.76c-1.08 0-1.96 0.88-1.96 1.96v9.4c0 1.08 0.88 1.96 1.96 1.96h5.76c1.33 0 2.5 0.9 2.84 2.19 0.78 2.92 1.94 5.73 3.47 8.36 0.67 1.16 0.48 2.62-0.46 3.56l-4.08 4.07c-0.37 0.37-0.57 0.86-0.57 1.38s0.2 1.01 0.57 1.38l6.64 6.64c0.76 0.76 2 0.76 2.77 0l4.08-4.08c0.94-0.94 2.4-1.13 3.56-0.46 2.62 1.52 5.44 2.69 8.36 3.47 1.29 0.34 2.19 1.51 2.19 2.84v5.76c0 1.08 0.88 1.96 1.96 1.96h9.4c1.08 0 1.96-0.88 1.96-1.96v-5.76c0-1.33 0.9-2.5 2.19-2.84 2.92-0.78 5.73-1.94 8.36-3.47 1.16-0.67 2.62-0.48 3.56 0.46l4.07 4.08c0.76 0.76 2 0.76 2.77 0l0.47-0.48c0.02-0.01 0.03-0.03 0.05-0.04l6.13-6.13c0.76-0.76 0.76-2 0-2.77l-4.08-4.08c-0.94-0.94-1.13-2.4-0.46-3.56 1.52-2.62 2.69-5.44 3.47-8.36 0.34-1.29 1.51-2.19 2.84-2.19h5.76c1.08 0 1.96-0.88 1.96-1.96v-9.4c0-1.04-0.88-1.92-1.96-1.92zm-41.39 37.41c-16.96 0-30.75-13.8-30.75-30.75s13.8-30.75 30.75-30.75 30.75 13.8 30.75 30.75-13.79 30.75-30.75 30.75z"/>
						
						
							<path class="st20" d="m-752.62-567.51c-15.36 0-27.85 12.49-27.85 27.85s12.49 27.85 27.85 27.85 27.85-12.49 27.85-27.85-12.49-27.85-27.85-27.85zm12 27.94c-0.08 0.15-1.02 1.6-1.86 2.56-0.91 1.05-1.08 0.87-2.41 2.71-0.89 1.37-1.38 2.94-1.38 4.54v7.02c0 2.24-1.82 4.07-4.07 4.07h-5.31c-2.24 0-4.07-1.83-4.07-4.07v-7.02c0-2.36-1.03-4.62-2.78-6.2-3.03-2.74-4.73-6.66-4.66-10.74 0.13-7.81 6.58-14.06 14.4-13.94 3.74 0.06 7.24 1.56 9.86 4.23 2.63 2.67 4.08 6.2 4.08 9.94-0.01 2.42-0.63 4.79-1.8 6.9z"/>
						
						
							<path class="st0" d="m-749-528.4v5.66c0 0.74-0.6 1.35-1.35 1.35h-5.31c-0.74 0-1.35-0.61-1.35-1.35v-5.66z"/>
						
						
							<path class="st0" d="m-741.55-546.47c0 1.83-0.44 3.63-1.27 5.25 0 0.01 0 0.01-0.01 0.01-0.12 0.23-1.04 1.79-1.81 2.57-3.72 3.78-4.04 5.87-4.24 7.52h-2.76v-7.84h1.04c0.75 0 1.36-0.61 1.36-1.36s-0.61-1.36-1.36-1.36h-4.79c-0.75 0-1.36 0.61-1.36 1.36s0.61 1.36 1.36 1.36h1.04v7.84h-2.76c-0.32-2.62-1.58-5.07-3.56-6.86-2.45-2.22-3.82-5.38-3.77-8.68 0.1-6.31 5.33-11.36 11.64-11.26 3.02 0.05 5.85 1.26 7.97 3.41 2.11 2.16 3.28 5.01 3.28 8.04z"/>
						
					</g>
				
			
		
	</g>





































</svg>
