<?xml version="1.0" encoding="UTF-8"?>
<svg width="262.36" height="262.36" version="1.1" viewBox="0 0 262.36 262.36" xml:space="preserve" xmlns="http://www.w3.org/2000/svg">
<style type="text/css">
	.st0{fill:#181825;}
	.st1{fill-rule:evenodd;clip-rule:evenodd;fill:#F4D78A;}
	.st2{fill-rule:evenodd;clip-rule:evenodd;fill:#E26350;}
	.st3{fill-rule:evenodd;clip-rule:evenodd;fill:#F5D149;}
	.st4{fill:#F4D78A;}
	.st5{opacity:0.6;}
	.st6{clip-path:url(#SVGID_2_);}
	.st7{clip-path:url(#SVGID_4_);}
	.st8{clip-path:url(#SVGID_6_);}
	.st9{clip-path:url(#SVGID_8_);}
	.st10{fill:#E26350;}
	.st11{clip-path:url(#SVGID_10_);}
	.st12{clip-path:url(#SVGID_12_);}
	.st13{clip-path:url(#SVGID_14_);}
	.st14{clip-path:url(#SVGID_16_);}
	.st15{fill:none;stroke:#000000;stroke-width:10;stroke-linecap:round;stroke-miterlimit:10;}
	.st16{clip-path:url(#SVGID_18_);}
	.st17{clip-path:url(#SVGID_20_);}
	.st18{clip-path:url(#SVGID_22_);}
	.st19{clip-path:url(#SVGID_24_);}
	.st20{fill:#F9F6F6;}
	.st21{fill:none;stroke:#181825;stroke-width:10;stroke-linecap:round;stroke-miterlimit:10;}
	.st22{opacity:0.76;}
	.st23{fill:#AA6E00;}
	.st24{fill:#E9B31F;}
	.st25{fill:#EAB41F;}
	.st26{clip-path:url(#SVGID_26_);}
	.st27{fill:#181825;stroke:#181825;stroke-width:2;stroke-miterlimit:10;}
	.st28{fill:#7B2F28;}
	.st29{fill-rule:evenodd;clip-rule:evenodd;fill:#181825;}
	.st30{fill:#F9F6F6;stroke:#F9F6F6;stroke-miterlimit:10;}
	.st31{fill:none;stroke:#F9F6F6;stroke-width:8;stroke-linecap:round;stroke-linejoin:round;stroke-miterlimit:10;}
	.st32{fill:none;stroke:#181825;stroke-width:8;stroke-linecap:round;stroke-linejoin:round;stroke-miterlimit:10;}
	.st33{clip-path:url(#SVGID_28_);}
	.st34{fill:none;}
	.st35{opacity:0.5;}
	.st36{fill:none;stroke:#F9F6F6;stroke-width:8;stroke-miterlimit:10;}
	.st37{fill:#171825;}
	.st38{clip-path:url(#SVGID_36_);}
	.st39{clip-path:url(#SVGID_38_);}
	.st40{clip-path:url(#SVGID_40_);}
	.st41{clip-path:url(#SVGID_42_);}
	.st42{fill:none;stroke:#F9F6F6;stroke-width:12;stroke-linecap:round;stroke-miterlimit:10;}
	.st43{fill:none;stroke:#E26350;stroke-width:3;stroke-miterlimit:10;}
	.st44{opacity:0.5;fill:#F4D78A;}
	.st45{opacity:0.5;fill:#79769F;}
	.st46{font-family:'Poppins-Bold';}
	.st47{font-size:118.4928px;}
	.st48{fill:none;stroke:#181825;stroke-width:3;stroke-miterlimit:10;}
	.st49{clip-path:url(#SVGID_44_);}
	.st50{clip-path:url(#SVGID_46_);}
	.st51{clip-path:url(#SVGID_48_);}
	.st52{clip-path:url(#SVGID_50_);}
	.st53{font-size:140px;}
</style>













<g transform="translate(1809.2 194.18)">
		
		
			
				<path class="st23" d="m-1546.8-63c0 72.45-58.73 131.18-131.18 131.18-41.76 0-78.96-19.51-102.97-49.91-17.67-22.35-28.21-50.58-28.21-81.27 0-72.45 58.73-131.18 131.18-131.18 36.35 0 69.24 14.78 92.99 38.66 23.61 23.72 38.19 56.42 38.19 92.52z"/>
			
			
				<path class="st24" d="m-1556.8-74.25c0 72.45-58.73 131.18-131.18 131.18-36.35 0-69.24-14.78-92.99-38.66-17.67-22.35-28.21-50.58-28.21-81.27 0-72.45 58.73-131.18 131.18-131.18 36.35 0 69.24 14.78 92.99 38.66 17.67 22.34 28.21 50.57 28.21 81.27z"/>
			
		
			
				<path class="st0" d="m-1601.8-34.78c-1.01-0.39-1.34-0.86-1.34-1.92 0.01-6.2 0.04-12.4-0.09-18.61-0.24-10.92-2.92-21.28-7.95-30.96-9.22-17.7-23.32-29.94-42.05-36.81-0.89-0.32-1.2-0.76-1.26-1.69-0.41-7.28-6.21-12.75-13.48-12.75-6.44-0.01-12.9-0.01-19.35-0.01-8.1 0-13.49 4.82-14.29 12.85-0.08 0.86-0.35 1.28-1.19 1.58-11.53 4.08-21.51 10.55-29.87 19.48-12.11 12.95-18.92 28.29-20.11 46.03-0.46 6.94-0.15 13.89-0.19 20.84 0 1.12-0.32 1.58-1.39 1.98-6.06 2.21-9.65 8.45-8.59 14.66 1.15 6.68 6.63 11.29 13.49 11.29 23.82 0.01 47.63 0 71.44 0s47.64 0.01 71.44 0c6.63 0 12.25-4.63 13.38-10.92 1.19-6.48-2.33-12.7-8.6-15.04z"/>
			
			
				<path class="st20" d="m-1606.4-15.26c-5.86 0.04-11.71 0-17.57 0h-54.19c-23.77 0-47.54 0.01-71.31 0-3.15 0-5.71-1.7-6.76-4.44-1.03-2.72-0.29-5.76 1.91-7.73 1.14-1.04 2.51-1.59 4.03-1.72 0.5-0.04 0.99-0.04 1.49-0.04 47.18-0.01 94.37-0.01 141.56 0 3.83 0 6.53 1.76 7.49 4.89 1.42 4.53-1.86 9.01-6.65 9.04z"/>
			
			
				<path class="st0" d="m-1695.2-123.18c0-5.1 2.77-7.87 7.91-7.87 6.21-0.01 12.41-0.01 18.61 0 5.06 0 7.82 2.75 7.82 7.82v46.29c-0.01 0.09 0 0.19-0.01 0.27-0.68 8.86-8.1 15.87-17.15 15.87-9.16 0-16.68-7.21-17.18-16.26z"/>
			
			
				<path class="st0" d="m-1746.2-58.13c1.32-15.8 7.58-29.41 18.27-41.04 0.7-0.76 1.42-1.51 2.17-2.25 1.12-1.09 2.3-2.16 3.73-3.51v1.81c0 6.4-0.01 12.8 0 19.2 0.01 2.3 1.36 3.83 3.28 3.81 1.96-0.03 3.21-1.51 3.21-3.85 0-8.09 0.03-16.18-0.01-24.26-0.01-1.08 0.32-1.67 1.23-2.23 3.62-2.21 7.37-4.08 11.26-5.73 1.31-0.54 1.44-0.15 1.43 1.04-0.03 11.07-0.01 22.12-0.01 33.18-0.03 0.19-0.04 0.54-0.04 1.01 0 2.73 0.47 9.33 0.69 9.65 2.92 9.94 12.11 17.23 22.98 17.23 10.9 0 20.11-7.32 23.01-17.28 0.3-0.46 0.84-9.44 0.61-10.76v-32.96c0-1.67 0-1.66 1.58-1.01 3.85 1.57 7.55 3.46 11.11 5.63 0.99 0.59 1.28 1.26 1.27 2.36-0.04 8.2-0.03 16.38-0.03 24.56 0.01 1.8 1.11 3.12 2.74 3.39 1.38 0.23 2.93-0.68 3.46-2.03 0.23-0.62 0.22-1.26 0.22-1.9v-18.9c0-0.53-0.15-1.08 0.3-1.8 2 1.97 4.05 3.83 5.9 5.86 11.22 12.33 17.49 26.79 18.17 43.49 0.26 6.18 0.08 12.41 0.15 18.59 0.01 0.88-0.24 1.32-1.17 1.23-0.32-0.04-0.69-0.01-1.04-0.01h-132.61c-2.09 0-2.12 0-2.09-2.15 0.09-6.78-0.33-13.59 0.23-20.37z"/>
			
			
				<path class="st20" d="m-1609.5-36.82c0.01 0.88-0.24 1.32-1.17 1.23-0.32-0.04-0.69-0.01-1.04-0.01h-132.61c-2.09 0-2.12 0-2.09-2.15 0.11-6.79-0.31-13.6 0.24-20.38 1.32-15.8 7.58-29.41 18.27-41.04 0.7-0.76 1.42-1.51 2.17-2.25 1.12-1.09 2.3-2.16 3.73-3.51v1.81c0 6.4-0.01 12.8 0 19.2 0.01 2.3 1.36 3.83 3.28 3.81 1.96-0.03 3.21-1.51 3.21-3.85 0-8.09 0.03-16.18-0.01-24.26-0.01-1.08 0.32-1.67 1.23-2.23 3.62-2.21 7.37-4.08 11.26-5.73 1.31-0.54 1.44-0.15 1.43 1.04-0.03 11.07-0.01 22.12-0.01 33.18-0.03 0.19-0.04 0.54-0.04 1.01 0 2.73 0.47 9.33 0.69 9.65 2.92 9.94 12.11 17.23 22.98 17.23 10.9 0 20.11-7.32 23.01-17.28 0.3-0.46 0.84-9.44 0.61-10.76v-32.96c0-1.67 0-1.66 1.58-1.01 3.85 1.57 7.55 3.46 11.11 5.63 0.99 0.59 1.28 1.26 1.27 2.36-0.04 8.2-0.03 16.38-0.03 24.56 0.01 1.8 1.11 3.12 2.74 3.39 1.38 0.23 2.93-0.68 3.46-2.03 0.23-0.62 0.22-1.26 0.22-1.9v-18.9c0-0.53-0.15-1.08 0.3-1.8 2 1.97 4.05 3.83 5.9 5.86 11.22 12.33 17.49 26.79 18.17 43.49 0.25 6.19 0.08 12.42 0.14 18.6z"/>
			
			
				<path class="st20" d="m-1660.8-123.24v46.29c-0.01 0.09 0 0.19-0.01 0.27-0.68 8.86-8.1 15.87-17.15 15.87-9.16 0-16.68-7.21-17.18-16.26v-46.11c0-5.1 2.77-7.87 7.91-7.87 6.21-0.01 12.41-0.01 18.61 0 5.06-0.01 7.82 2.75 7.82 7.81z"/>
			
		
	</g>





































</svg>
