<?xml version="1.0" encoding="UTF-8"?>
<svg width="1780.2" height="547.69" version="1.1" viewBox="0 0 1780.2 547.69" xml:space="preserve" xmlns="http://www.w3.org/2000/svg">
<style type="text/css">
	.st0{fill:#181825;}
	.st1{fill:#F9F6F6;}
	.st2{font-family:'Bebas-Regular';}
	.st3{font-size:46.5487px;}
	.st4{fill-rule:evenodd;clip-rule:evenodd;fill:#F4D78A;}
	.st5{fill-rule:evenodd;clip-rule:evenodd;fill:#E26350;}
	.st6{fill-rule:evenodd;clip-rule:evenodd;fill:#F5D149;}
	.st7{fill:#F4D78A;}
	.st8{opacity:0.6;}
	.st9{clip-path:url(#SVGID_2_);}
	.st10{clip-path:url(#SVGID_4_);}
	.st11{clip-path:url(#SVGID_6_);}
	.st12{clip-path:url(#SVGID_8_);}
	.st13{fill:#E26350;}
	.st14{fill:#E9B31F;}
	.st15{font-family:'Poppins-BoldItalic';}
	.st16{font-size:186.1652px;}
	.st17{font-family:'Poppins-SemiBold';}
	.st18{font-size:56.5942px;}
	.st19{font-family:'Poppins-Light';}
	.st20{font-size:33px;}
	.st21{font-family:'Poppins-ExtraBoldItalic';}
	.st22{font-size:118.4928px;}
	.st23{fill:#AA6E00;}
	.st24{font-size:45px;}
	.st25{font-family:'Poppins-Bold';}
	.st26{fill:none;stroke:#F9F6F6;stroke-width:12;stroke-linecap:round;stroke-miterlimit:10;}
	.st27{fill:none;stroke:#E9B31F;stroke-width:3;stroke-miterlimit:10;}
	.st28{font-size:30px;}
	.st29{enable-background:new    ;}
	.st30{font-family:'Poppins-Medium';}
	.st31{font-size:64.6956px;}
	.st32{letter-spacing:-1.8;}
	.st33{fill:none;stroke:#181825;stroke-width:3;stroke-miterlimit:10;}
	.st34{fill:#EAB41F;}
	.st35{font-size:82px;}
	.st36{font-size:57px;}
	.st37{fill:none;stroke:#F9F6F6;stroke-width:8;stroke-miterlimit:10;}
	.st38{fill:#171825;}
	.st39{clip-path:url(#SVGID_10_);}
	.st40{clip-path:url(#SVGID_12_);}
	.st41{clip-path:url(#SVGID_14_);}
	.st42{clip-path:url(#SVGID_16_);}
	.st43{fill:#F7F5F5;}
	.st44{font-size:34.9334px;}
	.st45{fill:none;}
	.st46{font-family:'Poppins-Regular';}
	.st47{font-size:36.1931px;}
	.st48{font-size:50.3301px;}
</style>


























<g transform="translate(-106.11 -2267.8)">
	<text class="st14 st25 st28" transform="translate(144.54 2735.3)"><tspan font-family="Poppins" font-weight="bold">May 1st, 2021</tspan></text>
<text class="st29" transform="translate(105 2771.3)" font-family="'Poppins Medium'"><tspan class="st1 st30 st28" x="0" y="0"><tspan>Case Release</tspan> <tspan>and</tspan></tspan><tspan class="st1 st30 st28" x="45.099998" y="36">Registration</tspan></text>
	<line class="st26" x1="241.3" x2="1678.7" y1="2542.1" y2="2542.1"/>
	
		
			<path class="st14" d="m241.3 2500.5c-23.5 0-42.5 19-42.5 42.5s19 42.5 42.5 42.5 42.5-19 42.5-42.5-19-42.5-42.5-42.5zm0 74c-17.4 0-31.5-14.1-31.5-31.5s14.1-31.5 31.5-31.5 31.5 14.1 31.5 31.5-14.1 31.5-31.5 31.5z"/>
			<circle class="st1" cx="241.3" cy="2543" r="20.5"/>
		
		
			
				<line class="st27" x1="241.3" x2="241.3" y1="2585.5" y2="2683.8"/>
				
					<circle class="st14" cx="241.3" cy="2683.2" r="11.3"/>
				
			
		
	
	
		
			<path class="st14" d="m528.8 2499.5c-23.5 0-42.5 19-42.5 42.5s19 42.5 42.5 42.5 42.5-19 42.5-42.5-19-42.5-42.5-42.5zm0 74c-17.4 0-31.5-14.1-31.5-31.5s14.1-31.5 31.5-31.5 31.5 14.1 31.5 31.5-14.1 31.5-31.5 31.5z"/>
			<circle class="st1" cx="528.8" cy="2542" r="20.5"/>
		
		
			
				<line class="st27" x1="527.8" x2="527.8" y1="2499.5" y2="2401.2"/>
				
					<circle class="st14" cx="527.8" cy="2401.8" r="11.3"/>
				
			
		
	
	
		
			<path class="st14" d="m816.3 2498.5c-23.5 0-42.5 19-42.5 42.5s19 42.5 42.5 42.5 42.5-19 42.5-42.5-19-42.5-42.5-42.5zm0 74c-17.4 0-31.5-14.1-31.5-31.5s14.1-31.5 31.5-31.5 31.5 14.1 31.5 31.5-14.1 31.5-31.5 31.5z"/>
			<circle class="st1" cx="816.3" cy="2541" r="20.5"/>
		
		
			
				<line class="st27" x1="818.3" x2="818.3" y1="2583.5" y2="2681.8"/>
				
					<circle class="st14" cx="818.3" cy="2681.2" r="11.3"/>
				
			
		
	
	
		
			<path class="st14" d="m1391.2 2496.5c-23.5 0-42.5 19-42.5 42.5s19 42.5 42.5 42.5 42.5-19 42.5-42.5-19-42.5-42.5-42.5zm0 74c-17.4 0-31.5-14.1-31.5-31.5s14.1-31.5 31.5-31.5 31.5 14.1 31.5 31.5-14.1 31.5-31.5 31.5z"/>
			<circle class="st1" cx="1391.2" cy="2539" r="20.5"/>
		
		
			
				<line class="st27" x1="1392.2" x2="1392.2" y1="2582.5" y2="2680.8"/>
				
					<circle class="st14" cx="1392.2" cy="2680.2" r="11.3"/>
				
			
		
	
	
		
			<path class="st14" d="m1103.7 2497.5c-23.5 0-42.5 19-42.5 42.5s19 42.5 42.5 42.5 42.5-19 42.5-42.5-19-42.5-42.5-42.5zm0 74c-17.4 0-31.5-14.1-31.5-31.5s14.1-31.5 31.5-31.5 31.5 14.1 31.5 31.5-14.1 31.5-31.5 31.5z"/>
			<circle class="st1" cx="1103.7" cy="2540" r="20.5"/>
		
		
			
				<line class="st27" x1="1104.7" x2="1104.7" y1="2497.5" y2="2399.2"/>
				
					<circle class="st14" cx="1104.7" cy="2399.8" r="11.3"/>
				
			
		
	
	
		
			<path class="st14" d="m1678.7 2497.5c-23.5 0-42.5 19-42.5 42.5s19 42.5 42.5 42.5 42.5-19 42.5-42.5-19-42.5-42.5-42.5zm0 74c-17.4 0-31.5-14.1-31.5-31.5s14.1-31.5 31.5-31.5 31.5 14.1 31.5 31.5-14.1 31.5-31.5 31.5z"/>
			<circle class="st1" cx="1678.7" cy="2540" r="20.5"/>
		
		
			
				<line class="st27" x1="1679.7" x2="1679.7" y1="2497.5" y2="2399.2"/>
				
					<circle class="st14" cx="1679.7" cy="2399.8" r="11.3"/>
				
			
		
	
<text class="st29" transform="translate(371.35 2290.9)" font-family="'Poppins Medium'"><tspan class="st1 st30 st28" x="0" y="0"><tspan>Abstract</tspan> <tspan>Submission</tspan></tspan><tspan class="st1 st30 st28" x="89.300003" y="36">Deadline</tspan></text>
	<text class="st14 st25 st28" transform="translate(416.03 2363.3)"><tspan font-family="Poppins" font-weight="bold">June 16th, 2021</tspan></text>
<text class="st29" transform="translate(1030.2 2290.9)" font-family="'Poppins Medium'"><tspan class="st1 st30 st28" x="0" y="0"><tspan>Full</tspan> <tspan>Paper</tspan></tspan><tspan class="st1 st30 st28" x="-85.300003" y="36">Submission Deadline</tspan></text>
	<text class="st14 st25 st28" transform="translate(944.26 2363.3)"><tspan font-family="Poppins" font-weight="bold">September 18th, 2021</tspan></text>
<text class="st1 st30 st28" transform="translate(1591.8 2327.3)"><tspan font-family="'Poppins Medium'">Grand Final</tspan></text>
	<text class="st14 st25 st28" transform="translate(1520 2363.3)"><tspan font-family="Poppins" font-weight="bold">November 26th, 2021</tspan></text>

	<text class="st14 st25 st28" transform="translate(707.81 2735.3)"><tspan font-family="Poppins" font-weight="bold">July 20th, 2021</tspan></text>
<text class="st29" transform="translate(684.1 2771.3)" font-family="'Poppins Medium'"><tspan class="st1 st30 st28" x="0" y="0"><tspan>Selected</tspan> <tspan>Abstract</tspan></tspan><tspan class="st1 st30 st28" x="16.799999" y="36">Announcement</tspan></text>
	<text class="st14 st25 st28" transform="translate(1252.1 2735.3)"><tspan font-family="Poppins" font-weight="bold">October 25th, 2021</tspan></text>
<text class="st1 st30 st28" transform="translate(1217.9 2771.3)"><tspan font-family="'Poppins Medium'">Finalist Announcement</tspan></text></g>

























</svg>
