<?xml version="1.0" encoding="UTF-8"?>
<svg width="1324.6" height="863" version="1.1" viewBox="0 0 1324.6 863" xml:space="preserve" xmlns="http://www.w3.org/2000/svg" xmlns:xlink="http://www.w3.org/1999/xlink">
<style type="text/css">
	.st0{fill:#181825;}
	.st1{fill-rule:evenodd;clip-rule:evenodd;fill:#F4D78A;}
	.st2{fill-rule:evenodd;clip-rule:evenodd;fill:#E26350;}
	.st3{fill-rule:evenodd;clip-rule:evenodd;fill:#F5D149;}
	.st4{fill:#F4D78A;}
	.st5{opacity:0.6;}
	.st6{clip-path:url(#SVGID_2_);}
	.st7{clip-path:url(#SVGID_4_);}
	.st8{clip-path:url(#SVGID_6_);}
	.st9{clip-path:url(#SVGID_8_);}
	.st10{fill:#E26350;}
	.st11{clip-path:url(#SVGID_10_);}
	.st12{clip-path:url(#SVGID_12_);}
	.st13{clip-path:url(#SVGID_14_);}
	.st14{clip-path:url(#SVGID_16_);}
	.st15{fill:none;stroke:#000000;stroke-width:10;stroke-linecap:round;stroke-miterlimit:10;}
	.st16{clip-path:url(#SVGID_18_);}
	.st17{clip-path:url(#SVGID_20_);}
	.st18{clip-path:url(#SVGID_22_);}
	.st19{clip-path:url(#SVGID_24_);}
	.st20{fill:#F9F6F6;}
	.st21{fill:none;stroke:#181825;stroke-width:10;stroke-linecap:round;stroke-miterlimit:10;}
	.st22{opacity:0.76;}
	.st23{fill:#AA6E00;}
	.st24{fill:#E9B31F;}
	.st25{fill:#EAB41F;}
	.st26{clip-path:url(#SVGID_26_);}
	.st27{fill:#181825;stroke:#181825;stroke-width:2;stroke-miterlimit:10;}
	.st28{fill:#7B2F28;}
	.st29{fill-rule:evenodd;clip-rule:evenodd;fill:#181825;}
	.st30{fill:#F9F6F6;stroke:#F9F6F6;stroke-miterlimit:10;}
	.st31{fill:none;stroke:#F9F6F6;stroke-width:8;stroke-linecap:round;stroke-linejoin:round;stroke-miterlimit:10;}
	.st32{fill:none;stroke:#181825;stroke-width:8;stroke-linecap:round;stroke-linejoin:round;stroke-miterlimit:10;}
	.st33{clip-path:url(#SVGID_28_);}
	.st34{fill:none;}
	.st35{opacity:0.5;}
	.st36{fill:none;stroke:#F9F6F6;stroke-width:8;stroke-miterlimit:10;}
	.st37{fill:#171825;}
	.st38{clip-path:url(#SVGID_36_);}
	.st39{clip-path:url(#SVGID_38_);}
	.st40{clip-path:url(#SVGID_40_);}
	.st41{clip-path:url(#SVGID_42_);}
	.st42{fill:none;stroke:#F9F6F6;stroke-width:12;stroke-linecap:round;stroke-miterlimit:10;}
	.st43{fill:none;stroke:#E26350;stroke-width:3;stroke-miterlimit:10;}
	.st44{opacity:0.5;fill:#F4D78A;}
	.st45{opacity:0.5;fill:#79769F;}
	.st46{font-family:'Poppins-Bold';}
	.st47{font-size:118.4928px;}
	.st48{fill:none;stroke:#181825;stroke-width:3;stroke-miterlimit:10;}
	.st49{clip-path:url(#SVGID_44_);}
	.st50{clip-path:url(#SVGID_46_);}
	.st51{clip-path:url(#SVGID_48_);}
	.st52{clip-path:url(#SVGID_50_);}
	.st53{font-size:140px;}
</style>



















<g transform="translate(1626.3 2777)">
	
	
		
	
	
	
		<g class="st35">
	
		<path class="st4" d="m-375.02-2004.1-1.99 4.53 2.21 4.41c16.54 33.03 39.67 55.21 56.16 68l16.93 13.15v-346.13l-20.73 91.04c-19.49 85.55-43.26 143.89-52.58 165z"/>
		<path class="st4" d="m-342.9-2117c16.3-57.77 27.94-117.64 34.61-177.96l4.8-43.51-24.01 36.6c-22.01 33.55-48.97 53.51-63.09 62.43l-4.88 3.09v150.64c0 2.5 0.04 5.09 0.13 7.74l0.01 0.51c0.5 14.04 2.35 27.82 5.49 40.94l7.87 32.99 12.13-31.68c9.76-25.46 18.82-52.98 26.94-81.79z"/>
		<path class="st4" d="m-302.1-2427.4-0.01-0.35c-3.06-58.28-23.36-102.46-62.09-135.06-36.31-30.34-81.13-41.4-104.61-45.29-18.42-3.07-30.42-3.1-30.92-3.1h-9.07l-0.06 0.47c-7.05 0.51-14.36 1.39-21.78 2.63-14.71 2.45-37.08 7.55-60.12 17.87l-6.21 2.78v124.81l18.5-21.83c12.74-15.04 36.52-32.97 77.42-32.97h2.67c58.62 0 82.36 36.47 89.85 52.15l0.19 0.38c7.41 14.99 10.5 29.5 11.81 39.14l0.03 0.22c0.84 6.12 0.96 10.38 1 11.95 0 0.19 0.01 0.36 0.01 0.52v169.79l17-13.43c9.83-7.76 19.01-16.43 27.28-25.76 29.44-33.33 45.91-72.33 48.96-115.96l0.01-0.21c0.33-4.81 0.5-9.7 0.5-14.55v-0.01c0.01-4.89-0.12-9.66-0.36-14.19z"/>
		<path class="st4" d="m-603.68-2399.3c-0.19-4.48-0.29-9.16-0.29-13.92v-111.27l-0.7-0.1c-0.22-1.87-0.5-3.77-0.83-5.69-1.37-8.22-4.33-20.66-10.71-33.22l-0.21-0.38c-10.45-19.46-28.04-42.26-71.43-46.62l-11.54-1.15v198.47c0.02 5.04 0.16 10.06 0.43 14.91 3.14 58.07 23.6 102.11 62.56 134.65 28.64 23.75 62.33 35.52 85.55 41.22l34.89 8.55-24.79-26c-26.85-28.12-59.58-78.62-62.93-159.45z"/>
		<path class="st4" d="m-622.42-2585.6 18.45 21.5v-50.63c-0.04-6.66-0.5-13.04-1.37-18.97-3.4-23.04-12.68-40.32-29.22-54.4-17.91-15.03-39.96-20.41-51.48-22.28-8.71-1.46-14.17-1.54-15.18-1.54h-9.02l-0.1 0.68c-2.01 0.23-4 0.52-6.02 0.86-8.37 1.38-21.01 4.36-33.75 10.73l-0.13 0.07c-22.15 11.71-47.65 31.93-48.23 84.92v51.28l18.49-21.8c11.7-13.78 33.3-30.64 69.75-32.73 2.5-0.16 5.12-0.24 7.77-0.24h2.59c26.74 0 49.25 7.47 66.92 22.21 3.77 3.1 7.31 6.59 10.53 10.34z"/>
	
	
		<defs>
			<path id="SVGID_29_" d="m-598.37-2718.2c-8.12 0-14.69-6.58-14.69-14.69s6.58-14.69 14.69-14.69 14.69 6.58 14.69 14.69c0.01 8.11-6.57 14.69-14.69 14.69z"/>
		</defs>
		<use width="100%" height="100%" fill="#f4d78a" xlink:href="#SVGID_29_"/>
		<clipPath id="SVGID_30_">
			<use width="100%" height="100%" xlink:href="#SVGID_29_"/>
		</clipPath>
	
	
		<defs>
			<path id="SVGID_31_" d="m-636.15-2744.8c-8.11 0-14.69-6.58-14.69-14.69 0-8.12 6.58-14.69 14.69-14.69 8.12 0 14.69 6.58 14.69 14.69 0.01 8.12-6.57 14.69-14.69 14.69z"/>
		</defs>
		<use width="100%" height="100%" fill="#f4d78a" xlink:href="#SVGID_31_"/>
		<clipPath id="SVGID_32_">
			<use width="100%" height="100%" xlink:href="#SVGID_31_"/>
		</clipPath>
	
	
		<defs>
			<path id="SVGID_33_" d="m-683.72-2747.6c-8.11 0-14.69-6.58-14.69-14.69 0-8.12 6.58-14.69 14.69-14.69 8.12 0 14.69 6.58 14.69 14.69 0 8.12-6.58 14.69-14.69 14.69z"/>
		</defs>
		<use width="100%" height="100%" fill="#f4d78a" xlink:href="#SVGID_33_"/>
		<clipPath id="SVGID_34_">
			<use width="100%" height="100%" xlink:href="#SVGID_33_"/>
		</clipPath>
	
</g>
		
			<text transform="translate(-1632.6 -2317.7)" fill="#e16350" font-family="Gotham-UltraItalic" font-size="418.42px" letter-spacing="-17"><tspan font-family="GothamSSm" font-style="italic" font-weight="900">4</tspan></text>
	<text transform="translate(-1333.5 -2004.4)" fill="#79769e" font-family="Gotham-UltraItalic" font-size="430.24px" letter-spacing="-18"><tspan dy="0" font-family="GothamSSm" font-style="italic" font-weight="900">6</tspan></text><text class="st46" transform="translate(-1018 -2161)" fill="#79769f" font-size="166.62px"><tspan font-family="Poppins" font-weight="bold">Events</tspan></text><text class="st10 st46" transform="translate(-1333.9 -2345.5)" font-size="137.91px"><tspan font-family="Poppins" font-weight="bold">Competitions</tspan></text><text class="st0" transform="translate(-1472.9 -2155.9)" font-family="Poppins-ExtraBoldItalic" font-size="259.7px"><tspan font-family="'Poppins ExtraBold'" font-style="italic" font-weight="800">&amp;</tspan></text>
</g>































</svg>
