<?xml version="1.0" encoding="UTF-8"?>
<svg width="262.36" height="262.36" version="1.1" viewBox="0 0 262.36 262.36" xml:space="preserve" xmlns="http://www.w3.org/2000/svg">
<style type="text/css">
	.st0{fill:#181825;}
	.st1{fill-rule:evenodd;clip-rule:evenodd;fill:#F4D78A;}
	.st2{fill-rule:evenodd;clip-rule:evenodd;fill:#E26350;}
	.st3{fill-rule:evenodd;clip-rule:evenodd;fill:#F5D149;}
	.st4{fill:#F4D78A;}
	.st5{opacity:0.6;}
	.st6{clip-path:url(#SVGID_2_);}
	.st7{clip-path:url(#SVGID_4_);}
	.st8{clip-path:url(#SVGID_6_);}
	.st9{clip-path:url(#SVGID_8_);}
	.st10{fill:#E26350;}
	.st11{clip-path:url(#SVGID_10_);}
	.st12{clip-path:url(#SVGID_12_);}
	.st13{clip-path:url(#SVGID_14_);}
	.st14{clip-path:url(#SVGID_16_);}
	.st15{fill:none;stroke:#000000;stroke-width:10;stroke-linecap:round;stroke-miterlimit:10;}
	.st16{clip-path:url(#SVGID_18_);}
	.st17{clip-path:url(#SVGID_20_);}
	.st18{clip-path:url(#SVGID_22_);}
	.st19{clip-path:url(#SVGID_24_);}
	.st20{fill:#F9F6F6;}
	.st21{fill:none;stroke:#181825;stroke-width:10;stroke-linecap:round;stroke-miterlimit:10;}
	.st22{opacity:0.76;}
	.st23{fill:#AA6E00;}
	.st24{fill:#E9B31F;}
	.st25{fill:#EAB41F;}
	.st26{clip-path:url(#SVGID_26_);}
	.st27{fill:#181825;stroke:#181825;stroke-width:2;stroke-miterlimit:10;}
	.st28{fill:#7B2F28;}
	.st29{fill-rule:evenodd;clip-rule:evenodd;fill:#181825;}
	.st30{fill:#F9F6F6;stroke:#F9F6F6;stroke-miterlimit:10;}
	.st31{fill:none;stroke:#F9F6F6;stroke-width:8;stroke-linecap:round;stroke-linejoin:round;stroke-miterlimit:10;}
	.st32{fill:none;stroke:#181825;stroke-width:8;stroke-linecap:round;stroke-linejoin:round;stroke-miterlimit:10;}
	.st33{clip-path:url(#SVGID_28_);}
	.st34{fill:none;}
	.st35{opacity:0.5;}
	.st36{fill:none;stroke:#F9F6F6;stroke-width:8;stroke-miterlimit:10;}
	.st37{fill:#171825;}
	.st38{clip-path:url(#SVGID_36_);}
	.st39{clip-path:url(#SVGID_38_);}
	.st40{clip-path:url(#SVGID_40_);}
	.st41{clip-path:url(#SVGID_42_);}
	.st42{fill:none;stroke:#F9F6F6;stroke-width:12;stroke-linecap:round;stroke-miterlimit:10;}
	.st43{fill:none;stroke:#E26350;stroke-width:3;stroke-miterlimit:10;}
	.st44{opacity:0.5;fill:#F4D78A;}
	.st45{opacity:0.5;fill:#79769F;}
	.st46{font-family:'Poppins-Bold';}
	.st47{font-size:118.4928px;}
	.st48{fill:none;stroke:#181825;stroke-width:3;stroke-miterlimit:10;}
	.st49{clip-path:url(#SVGID_44_);}
	.st50{clip-path:url(#SVGID_46_);}
	.st51{clip-path:url(#SVGID_48_);}
	.st52{clip-path:url(#SVGID_50_);}
	.st53{font-size:140px;}
</style>














<g transform="translate(530.18 -1476.5)">
		
			
				<path class="st23" d="m-267.82 1607.7c0 72.45-58.73 131.18-131.18 131.18-41.76 0-78.96-19.51-102.97-49.91-17.67-22.35-28.21-50.58-28.21-81.27 0-72.45 58.73-131.18 131.18-131.18 36.35 0 69.24 14.78 92.99 38.66 23.61 23.72 38.19 56.42 38.19 92.52z"/>
			
			
				<path class="st24" d="m-277.8 1596.5c0 72.45-58.73 131.18-131.18 131.18-36.35 0-69.24-14.78-92.99-38.66-17.67-22.35-28.21-50.58-28.21-81.27 0-72.45 58.73-131.18 131.18-131.18 36.35 0 69.24 14.78 92.99 38.66 17.67 22.34 28.21 50.57 28.21 81.27z"/>
			
		
		
			
				
					<path class="st0" d="m-481.27 1629.9s2-8.08-4.71-15.09c-6.73-7.02-15.19-7.05-15.19-7.05s-2.1 9.49 4.45 16.34c6.55 6.82 15.45 5.8 15.45 5.8z"/>
				
				
					<path class="st0" d="m-466.42 1628.5s7.86-4.27 9.3-13.64c1.45-9.35-5.74-15.93-5.74-15.93s-6.89 4.9-8.37 14.5c-1.47 9.61 4.81 15.07 4.81 15.07z"/>
				
				
					<path class="st0" d="m-454.6 1652.1s7.24-5.27 7.45-14.74c0.19-9.46-7.79-15.03-7.79-15.03s-6.19 5.74-6.4 15.46c-0.2 9.71 6.74 14.31 6.74 14.31z"/>
				
				
					<path class="st0" d="m-430.87 1650.3c-0.69-9.43-9.16-14.24-9.16-14.24s-5.62 6.29-4.92 15.99 8.05 13.62 8.05 13.62 6.72-5.94 6.03-15.37z"/>
				
				
					<path class="st0" d="m-414.67 1677.4s4.74-7.59 1.36-16.45c-3.37-8.85-12.87-11.02-12.87-11.02s-3.58 7.66-0.12 16.75c3.47 9.07 11.63 10.72 11.63 10.72z"/>
				
				
					<path class="st0" d="m-477.99 1609.2s6.16-5.6 4.46-15.17c-1.7-9.56-8.71-14.29-8.71-14.29s-7.02 6.75-5.36 16.07c1.65 9.31 9.61 13.39 9.61 13.39z"/>
				
				
					<path class="st0" d="m-473.16 1648.3s-0.47-8.32-8.95-13.04c-8.5-4.71-16.59-2.26-16.59-2.26s0.79 9.7 9.07 14.29c8.28 4.6 16.47 1.01 16.47 1.01z"/>
				
				
					<path class="st0" d="m-458.84 1664.4s-2.31-8-11.62-10.72c-9.33-2.72-16.68 1.47-16.68 1.47s2.94 9.28 12.03 11.93c9.09 2.66 16.27-2.68 16.27-2.68z"/>
				
				
					<path class="st0" d="m-442.83 1675.9s-4.62-6.92-14.32-6.69c-9.72 0.24-15.46 6.44-15.46 6.44s5.61 7.97 15.07 7.73c9.46-0.21 14.71-7.48 14.71-7.48z"/>
				
				
					<path class="st0" d="m-436 1680.6c-9.61 1.41-14.56 8.25-14.56 8.25s6.51 7.24 15.88 5.89c9.38-1.36 13.7-9.19 13.7-9.19s-5.41-6.33-15.02-4.95z"/>
				
				
					<path class="st0" d="m-474.82 1614-4.64-0.18c-0.01 0.51-1.17 50.72 74.6 73.36l1.33-4.44c-72.15-21.56-71.38-66.83-71.29-68.74z"/>
				
				
					<path class="st0" d="m-316.73 1630.1s8.9 1.02 15.45-5.81c6.55-6.84 4.45-16.34 4.45-16.34s-8.45 0.04-15.19 7.05c-6.72 7.02-4.71 15.1-4.71 15.1z"/>
				
				
					<path class="st0" d="m-340.89 1615c1.44 9.37 9.3 13.64 9.3 13.64s6.27-5.45 4.81-15.05c-1.49-9.61-8.37-14.5-8.37-14.5s-7.18 6.56-5.74 15.91z"/>
				
				
					<path class="st0" d="m-343.07 1622.4s-7.98 5.58-7.79 15.03c0.21 9.46 7.45 14.74 7.45 14.74s6.94-4.6 6.74-14.31c-0.22-9.7-6.4-15.46-6.4-15.46z"/>
				
				
					<path class="st0" d="m-367.14 1650.4c-0.68 9.43 6.03 15.35 6.03 15.35s7.33-3.91 8.05-13.61c0.69-9.7-4.92-16-4.92-16s-8.46 4.82-9.16 14.26z"/>
				
				
					<path class="st0" d="m-384.71 1661.1c-3.37 8.85 1.36 16.44 1.36 16.44s8.15-1.65 11.62-10.71c3.46-9.09-0.13-16.76-0.13-16.76s-9.46 2.18-12.85 11.03z"/>
				
				
					<path class="st0" d="m-320.01 1609.4s7.96-4.08 9.62-13.4c1.66-9.33-5.37-16.07-5.37-16.07s-7.01 4.74-8.7 14.29c-1.71 9.57 4.45 15.18 4.45 15.18z"/>
				
				
					<path class="st0" d="m-315.9 1635.4c-8.48 4.71-8.95 13.03-8.95 13.03s8.19 3.6 16.48-1c8.28-4.6 9.07-14.3 9.07-14.3s-8.1-2.45-16.6 2.27z"/>
				
				
					<path class="st0" d="m-327.54 1653.8c-9.32 2.72-11.62 10.72-11.62 10.72s7.19 5.33 16.29 2.68c9.09-2.65 12.03-11.93 12.03-11.93s-7.37-4.19-16.7-1.47z"/>
				
				
					<path class="st0" d="m-340.85 1669.4c-9.7-0.24-14.32 6.69-14.32 6.69s5.23 7.26 14.71 7.49c9.46 0.23 15.07-7.73 15.07-7.73s-5.73-6.21-15.46-6.45z"/>
				
				
					<path class="st0" d="m-362.01 1680.8c-9.61-1.38-15.01 4.93-15.01 4.93s4.32 7.84 13.69 9.2c9.38 1.36 15.88-5.89 15.88-5.89s-4.94-6.83-14.56-8.24z"/>
				
				
					<path class="st0" d="m-318.55 1613.9-4.64 0.18c0.08 1.92 0.85 47.17-71.29 68.73l1.33 4.43c75.77-22.62 74.61-72.83 74.6-73.34z"/>
				
			
			
				<polygon class="st20" points="-398.99 1520.6 -398.99 1520.4 -417.64 1556.5 -458.74 1562 -430.06 1591.1 -435.32 1634 -399.02 1614.2 -399.02 1614.4 -362.68 1634.1 -367.94 1591.3 -339.26 1562.1 -380.37 1556.6"/>
				<path class="st0" d="m-362.68 1637.1c-0.49 0-0.98-0.12-1.43-0.36l-35.02-19.02-34.77 18.89c-0.99 0.54-2.19 0.48-3.12-0.16-0.93-0.63-1.43-1.73-1.29-2.85l5.08-41.4-27.66-28.12c-0.8-0.81-1.07-2-0.7-3.08s1.31-1.85 2.44-2l39.55-5.28 17.94-34.74c0.64-1.23 2.03-1.87 3.37-1.54 1.1 0.27 1.94 1.13 2.2 2.2l17.65 34.21 39.56 5.29c1.13 0.15 2.07 0.93 2.44 2s0.1 2.27-0.7 3.08l-27.66 28.11 5.09 41.4c0.14 1.12-0.36 2.21-1.29 2.85-0.5 0.35-1.08 0.52-1.68 0.52zm-34.28-25.04 30.59 16.62-4.56-37.06c-0.11-0.91 0.2-1.82 0.84-2.47l24.47-24.86-35.15-4.7c-0.97-0.13-1.82-0.73-2.27-1.6l-16-31-15.94 30.87c-0.45 0.87-1.3 1.47-2.27 1.6l-35.15 4.69 24.47 24.87c0.64 0.65 0.95 1.56 0.84 2.47l-4.55 37.05 31.18-16.94c0.93-0.51 2.06-0.48 2.97 0.06 0.2 0.12 0.37 0.25 0.53 0.4z"/>
			
		
	</g>




































</svg>
