<?xml version="1.0" encoding="UTF-8"?>
<svg width="438.4" height="438.4" version="1.1" viewBox="0 0 438.4 438.4" xml:space="preserve" xmlns="http://www.w3.org/2000/svg" xmlns:xlink="http://www.w3.org/1999/xlink">
<style type="text/css">
	.st0{fill:#181825;}
	.st1{fill:#7B2F28;}
	.st2{fill:#E26350;}
	.st3{fill:#F9F6F6;}
	.st4{fill-rule:evenodd;clip-rule:evenodd;fill:#181825;}
	.st5{fill:#E9B31F;}
	.st6{font-family:'Poppins-BoldItalic';}
	.st7{font-size:161.0247px;}
	.st8{fill:none;}
	.st9{font-family:'Poppins-SemiBold';}
	.st10{font-size:28.5436px;}
	.st11{letter-spacing:2.7;}
	.st12{font-family:'Poppins-Regular';}
	.st13{letter-spacing:3.6;}
	.st14{letter-spacing:6.3;}
	.st15{letter-spacing:5.4;}
	.st16{fill:#AA6E00;}
	.st17{font-size:26.1914px;}
	.st18{fill:none;stroke:#AA6E00;stroke-width:3;stroke-miterlimit:10;}
	.st19{font-size:32.8683px;}
	.st20{clip-path:url(#SVGID_2_);}
	.st21{clip-path:url(#SVGID_4_);}
	.st22{font-family:'Bebas-Regular';}
	.st23{font-size:40.8501px;}
	.st24{fill-rule:evenodd;clip-rule:evenodd;fill:#F4D78A;}
	.st25{fill-rule:evenodd;clip-rule:evenodd;fill:#E26350;}
	.st26{fill-rule:evenodd;clip-rule:evenodd;fill:#F5D149;}
	.st27{fill:#F4D78A;}
	.st28{font-family:'Poppins-ExtraBold';}
	.st29{font-size:81.2035px;}
	.st30{letter-spacing:-1;}
	.st31{font-family:'Poppins-Bold';}
	.st32{font-size:102.4911px;}
	.st33{font-size:39.7879px;}
	.st34{fill:none;stroke:#F9F6F6;stroke-width:12;stroke-linecap:round;stroke-miterlimit:10;}
	.st35{fill:#79769E;}
	.st36{fill:none;stroke:#E9B31F;stroke-width:3;stroke-miterlimit:10;}
	.st37{fill:none;stroke:#79769E;stroke-width:3;stroke-miterlimit:10;}
	.st38{font-size:25.9487px;}
	.st39{font-family:'Poppins-Medium';}
	.st40{font-size:77.846px;}
	.st41{font-size:36.1931px;}
	.st42{font-size:50.3301px;}
	.st43{fill:none;stroke:#181825;stroke-width:5;stroke-miterlimit:10;}
	.st44{fill:#FFFFFF;}
	.st45{enable-background:new    ;}
	.st46{fill:none;stroke:#FFFFFF;stroke-width:3;stroke-miterlimit:10;}
	.st47{font-size:36.8147px;}
	.st48{fill:none;stroke:#FFFFFF;stroke-width:8;stroke-linecap:round;stroke-linejoin:round;stroke-miterlimit:10;}
	.st49{font-size:49.3025px;}
	.st50{fill:none;stroke:#F9F6F6;stroke-width:8;stroke-miterlimit:10;}
	.st51{fill:#171825;}
	.st52{fill:#F7F5F5;}
	.st53{font-size:30.2159px;}
	.st54{font-family:'Poppins-Light';}
	.st55{font-size:40px;}
	.st56{clip-path:url(#SVGID_6_);}
	.st57{font-family:'ArialMT';}
	.st58{font-size:8.3009px;}
	.st59{letter-spacing:22;}
	.st60{letter-spacing:25;}
	.st61{letter-spacing:-10;}
</style>


















































































































<g transform="translate(-207.3,-308.8)">
	
		
			<path class="st16" d="m645.7 528c0 121.1-98.2 219.2-219.2 219.2-69.8 0-132-32.6-172.1-83.4-29.6-37.3-47.1-84.5-47.1-135.8 0-121.1 98.2-219.2 219.2-219.2 60.7 0 115.7 24.7 155.4 64.6 39.5 39.7 63.8 94.3 63.8 154.6z"/>
		
		
			<path class="st5" d="m629 509.3c0 121.1-98.2 219.2-219.2 219.2-60.7 0-115.7-24.7-155.4-64.6-29.6-37.3-47.1-84.5-47.1-135.8 0-121.1 98.2-219.2 219.2-219.2 60.7 0 115.7 24.7 155.4 64.6 29.5 37.2 47.1 84.4 47.1 135.8z"/>
		
	
	
		
			<path class="st0" d="m328.6 480.3-5.6 6.7c-1.2 1.5-3 2.4-5 2.6s-3.9-0.4-5.4-1.7c-3.1-2.6-3.6-7.4-1-10.5l5.6-6.7c1.3-1.5 3-2.4 5-2.6h0.7c1.7 0 3.4 0.6 4.8 1.7 1.6 1.3 2.4 3 2.6 5 0.1 2-0.4 3.9-1.7 5.5z"/>
		
		
			<path class="st0" d="m527.8 487.9c-1.5 1.3-3.5 1.8-5.4 1.7-2-0.2-3.8-1.2-5-2.6l-5.6-6.7c-2.6-3.1-2.2-7.8 1-10.5 1.5-1.3 3.5-1.9 5.4-1.7 2 0.2 3.8 1.2 5 2.6l5.6 6.7c2.4 3.2 2.1 7.8-1 10.5z"/>
		
		
			<path class="st3" d="m455.3 416v4.5c-12-1.1-21.9-4.9-30.8-8.2-8-3-15.7-6-23.4-6-5.2 0-10.5 1.4-15.6 5.1 2.2-17.2 17-30.5 34.7-30.5 19.3 0.1 35.1 15.7 35.1 35.1z"/>
		
		
			<path class="st3" d="m455.3 432.5v8.8c0 14.7-22.8 30.3-35 30.3s-35-15.5-35-30.3v-12.7c10.8-14.6 18.5-11.5 35-5.1 9.3 3.5 20.7 7.9 35 9z"/>
		
		
			<path class="st3" d="m452.6 481.2-16.4 15.2-7-14.1c5.4-1.6 11.4-4.4 16.8-8.1z"/>
		
		
			<path class="st3" d="m411.1 482.3-7 14.1-16.5-15.2 6.8-6.9c5.4 3.7 11.3 6.4 16.7 8z"/>
		
		
			<path class="st0" d="m482.5 538.4h-124.7c0.4-30.8 4.9-41.7 20.4-49.9l23.9 22c1.2 1.1 2.6 1.6 4.1 1.6 0.4 0 0.7 0 1.2-0.1 1.8-0.4 3.5-1.6 4.4-3.2l8.8-17.8 8.8 17.8c0.9 1.7 2.4 2.8 4.4 3.2 1.8 0.4 3.8-0.2 5.1-1.5l23.9-22c15 8.3 19.3 19.1 19.7 49.9z"/>
		
		
			<path class="st3" d="m561.6 554.3v10.4c0 2.1-1.7 3.9-3.9 3.9h-275.2c-2 0-3.9-1.8-3.9-3.9v-10.4c0-2.1 1.8-3.9 3.9-3.9h275.3c2.2 0 3.8 1.9 3.8 3.9z"/>
		
		
			
				
					
						
							
								<defs>
									<path id="SVGID_1_" d="m629.5 509.3c0 121.1-98.2 219.2-219.2 219.2-60.7 0-115.7-24.7-155.4-64.6-29.6-37.3-47.1-84.5-47.1-135.8 0-121.1 98.2-219.2 219.2-219.2 60.7 0 115.7 24.7 155.4 64.6 29.5 37.2 47.1 84.4 47.1 135.8z"/>
								</defs>
								<clipPath id="SVGID_2_">
									<use width="100%" height="100%" xlink:href="#SVGID_1_"/>
								</clipPath>
								<g class="st20" clip-path="url(#SVGID_2_)">
									<path class="st0" d="m557.7 538.4h-3v-25.5c0-0.5 0-0.9-0.1-1-0.2-1.1-0.6-2-1.3-2.8l-14-16.7c4.4-6.9 4-16.2-1.6-22.7l-5.5-6.7c-3.4-4-8-6.4-13.2-6.8-5.1-0.4-10.2 1.2-14.2 4.4-8.2 6.9-9.2 19.1-2.4 27.4l5.6 6.7c3.4 4 8.1 6.4 13.2 6.8 0.6 0.1 1.2 0.1 1.7 0.1 2.5 0 4.9-0.4 7.3-1.4l12.5 14.9v23.3h-48.3c-0.4-33.7-5.5-50.4-29.8-62l-9.6-9.9c7.1-7.2 12.1-16 12.1-25.2v-25.3c0-25.9-21.1-47-47-47s-47 21.1-47 47v25.3c0 9.2 5 18 12.1 25.2l-10 10c-24.3 11.5-29.3 28.3-29.8 62h-48.3v-23.3l12.5-14.9c2.2 0.9 4.8 1.4 7.3 1.4 0.6 0 1.2 0 1.7-0.1 5.1-0.4 9.9-2.9 13.2-6.8l5.6-6.7c3.4-4 4.9-9 4.5-14.2-0.4-5.1-2.8-9.9-6.8-13.2s-9-4.9-14.2-4.4c-5.1 0.4-9.9 2.8-13.2 6.8l-5.6 6.7c-5.5 6.6-5.9 15.8-1.6 22.7l-14 16.7c-0.9 1.1-1.3 2.2-1.4 3.5v0.4 25.6h-3c-8.7 0-15.9 7.2-15.9 15.9v10c0 8.7 7.2 15.9 15.9 15.9h7.4l21.1 82.5-0.4 0.1 23.4 91.3 12-3.1v-0.1l-3.4-13.1-16.2-63.4h187.5l-15.8 63.3-3.4 13.1-0.7 2.8 12 3.1 23.1-91.2-0.3-0.1 21.8-85.2h7.4c8.8 0 15.9-7.1 15.9-15.9v-10.3c0.1-8.7-6.9-15.9-15.8-15.9zm-29.9-50.5c-1.5 1.3-3.5 1.8-5.3 1.7-2-0.2-3.8-1.2-5-2.6l-5.6-6.7c-2.6-3.1-2.2-7.8 1-10.5 1.5-1.3 3.5-1.9 5.4-1.7 2 0.2 3.8 1.2 5 2.6l5.6 6.7c2.3 3.2 2 7.8-1.1 10.5zm-216.2-10.5 5.6-6.7c1.3-1.5 3-2.4 5-2.6h0.7c1.7 0 3.4 0.6 4.8 1.7 1.6 1.3 2.4 3.1 2.6 5 0.2 2-0.4 3.9-1.6 5.4l-5.6 6.7c-1.2 1.5-3 2.4-5 2.6s-3.9-0.4-5.4-1.7c-3.3-2.6-3.7-7.2-1.1-10.4zm108.6-96.4c19.3 0 35 15.7 35 35.1v4.5c-12-1.1-21.9-4.9-30.8-8.2-8-3-15.7-6-23.4-6-5.2 0-10.5 1.4-15.6 5.1 2.3-17.4 17-30.5 34.8-30.5zm-35 60.3v-12.7c10.8-14.6 18.5-11.5 35.1-5.1 9.4 3.6 21 8.1 35 9.1v8.8c0 14.7-22.8 30.3-35 30.3-12.4 0-35.1-15.7-35.1-30.4zm67.4 39.9-16.4 15.2-7-14.1c5.4-1.6 11.4-4.4 16.8-8.1zm-41.5 1.1-7 14.1-16.5-15.2 6.8-6.9c5.5 3.7 11.3 6.4 16.7 8zm-33.1 6.2 23.9 22c1.2 1.1 2.6 1.6 4.1 1.6 0.4 0 0.8 0 1.2-0.1 1.9-0.4 3.5-1.6 4.4-3.2l8.8-17.8 8.8 17.8c0.9 1.7 2.4 2.8 4.4 3.2 1.8 0.4 3.8-0.2 5.1-1.5l23.9-22c15.5 8.2 19.8 19.1 20.4 49.9h-125c0.2-30.8 4.5-41.6 20-49.9zm139.1 174.2-194.5-2.7h-0.1l-20.4-79.5h235.8zm44.5-98.1c0 2.1-1.7 3.9-3.9 3.9h-275.2c-2 0-3.9-1.7-3.9-3.9v-10.3c0-2.1 1.8-3.9 3.9-3.9h275.2c2 0 3.9 1.7 3.9 3.9z"/>
								</g>
							
						
					
				
			
			
				
					
						
							
								<defs>
									<path id="SVGID_3_" d="m629.5 509.3c0 121.1-98.2 219.2-219.2 219.2-60.7 0-115.7-24.7-155.4-64.6-29.6-37.3-47.1-84.5-47.1-135.8 0-121.1 98.2-219.2 219.2-219.2 60.7 0 115.7 24.7 155.4 64.6 29.5 37.2 47.1 84.4 47.1 135.8z"/>
								</defs>
								<clipPath id="SVGID_4_">
									<use width="100%" height="100%" xlink:href="#SVGID_3_"/>
								</clipPath>
								<g class="st21" clip-path="url(#SVGID_4_)">
									<polygon class="st3" points="323.3 662.7 323.3 662.7 326.4 674.7 342.6 738.1 497.7 738.1 513.9 674.7 517.1 662.7 517.1 662.7 538 580.5 302.2 580.5"/>
								</g>
							
						
					
				
			
		
	
	
		<path class="st0" d="m345.8 615v22c0 7.9 6.4 14.3 14.3 14.3h120.6c7.9 0 14.3-6.4 14.3-14.3v-22c0-7.9-6.4-14.3-14.3-14.3h-120.7c-7.8 0.1-14.2 6.5-14.2 14.3zm136.6 0v22c0 1-0.8 1.7-1.7 1.7h-120.7c-1 0-1.7-0.8-1.7-1.7v-22c0-1 0.8-1.7 1.7-1.7h120.6c1 0 1.8 0.8 1.8 1.7z"/>
	
</g>


































































</svg>
