<?xml version="1.0" encoding="UTF-8" standalone="no"?>
<svg
   xmlns:dc="http://purl.org/dc/elements/1.1/"
   xmlns:cc="http://creativecommons.org/ns#"
   xmlns:rdf="http://www.w3.org/1999/02/22-rdf-syntax-ns#"
   xmlns:svg="http://www.w3.org/2000/svg"
   xmlns="http://www.w3.org/2000/svg"
   xmlns:sodipodi="http://sodipodi.sourceforge.net/DTD/sodipodi-0.dtd"
   xmlns:inkscape="http://www.inkscape.org/namespaces/inkscape"
   width="1572.5"
   height="505.84"
   version="1.1"
   viewBox="0 0 1572.5 505.84"
   xml:space="preserve"
   id="svg4054"
   sodipodi:docname="talkstl.svg"
   inkscape:version="1.0.2 (e86c870879, 2021-01-15)"><metadata
   id="metadata4060"><rdf:RDF><cc:Work
       rdf:about=""><dc:format>image/svg+xml</dc:format><dc:type
         rdf:resource="http://purl.org/dc/dcmitype/StillImage" /></cc:Work></rdf:RDF></metadata><defs
   id="defs4058" /><sodipodi:namedview
   pagecolor="#ffffff"
   bordercolor="#666666"
   borderopacity="1"
   objecttolerance="10"
   gridtolerance="10"
   guidetolerance="10"
   inkscape:pageopacity="0"
   inkscape:pageshadow="2"
   inkscape:window-width="1346"
   inkscape:window-height="714"
   id="namedview4056"
   showgrid="false"
   inkscape:zoom="2.9685215"
   inkscape:cx="1515.3984"
   inkscape:cy="112.12756"
   inkscape:window-x="10"
   inkscape:window-y="28"
   inkscape:window-maximized="0"
   inkscape:current-layer="g4052" />
<style
   type="text/css"
   id="style3934">
	.st0{fill:#181825;}
	.st1{fill:#7B2F28;}
	.st2{fill:#E26350;}
	.st3{fill:#F9F6F6;}
	.st4{fill-rule:evenodd;clip-rule:evenodd;fill:#181825;}
	.st5{fill:#E9B31F;}
	.st6{font-family:'Poppins-BoldItalic';}
	.st7{font-size:161.0247px;}
	.st8{fill:none;}
	.st9{font-family:'Poppins-SemiBold';}
	.st10{font-size:28.5436px;}
	.st11{letter-spacing:2.7;}
	.st12{font-family:'Poppins-Regular';}
	.st13{letter-spacing:3.6;}
	.st14{letter-spacing:6.3;}
	.st15{letter-spacing:5.4;}
	.st16{fill:#AA6E00;}
	.st17{font-size:26.1914px;}
	.st18{fill:none;stroke:#AA6E00;stroke-width:3;stroke-miterlimit:10;}
	.st19{font-size:32.8683px;}
	.st20{clip-path:url(#SVGID_2_);}
	.st21{clip-path:url(#SVGID_4_);}
	.st22{font-family:'Bebas-Regular';}
	.st23{font-size:40.8501px;}
	.st24{fill-rule:evenodd;clip-rule:evenodd;fill:#F4D78A;}
	.st25{fill-rule:evenodd;clip-rule:evenodd;fill:#E26350;}
	.st26{fill-rule:evenodd;clip-rule:evenodd;fill:#F5D149;}
	.st27{fill:#F4D78A;}
	.st28{font-family:'Poppins-ExtraBold';}
	.st29{font-size:81.2035px;}
	.st30{letter-spacing:-1;}
	.st31{font-family:'Poppins-Bold';}
	.st32{font-size:102.4911px;}
	.st33{font-size:39.7879px;}
	.st34{fill:none;stroke:#F9F6F6;stroke-width:12;stroke-linecap:round;stroke-miterlimit:10;}
	.st35{fill:#79769E;}
	.st36{fill:none;stroke:#E9B31F;stroke-width:3;stroke-miterlimit:10;}
	.st37{fill:none;stroke:#79769E;stroke-width:3;stroke-miterlimit:10;}
	.st38{font-size:25.9487px;}
	.st39{font-family:'Poppins-Medium';}
	.st40{font-size:77.846px;}
	.st41{font-size:36.1931px;}
	.st42{font-size:50.3301px;}
	.st43{fill:none;stroke:#181825;stroke-width:5;stroke-miterlimit:10;}
	.st44{fill:#FFFFFF;}
	.st45{enable-background:new    ;}
	.st46{fill:none;stroke:#FFFFFF;stroke-width:3;stroke-miterlimit:10;}
	.st47{font-size:36.8147px;}
	.st48{fill:none;stroke:#FFFFFF;stroke-width:8;stroke-linecap:round;stroke-linejoin:round;stroke-miterlimit:10;}
	.st49{font-size:49.3025px;}
	.st50{fill:none;stroke:#F9F6F6;stroke-width:8;stroke-miterlimit:10;}
	.st51{fill:#171825;}
	.st52{fill:#F7F5F5;}
	.st53{font-size:30.2159px;}
	.st54{font-family:'Poppins-Light';}
	.st55{font-size:40px;}
	.st56{clip-path:url(#SVGID_6_);}
	.st57{font-family:'ArialMT';}
	.st58{font-size:8.3009px;}
	.st59{letter-spacing:22;}
	.st60{letter-spacing:25;}
	.st61{letter-spacing:-10;}
</style>

































































































































<g
   transform="translate(-177.55 -1410.5)"
   id="g4052"><text
   class="st3 st31 st38"
   transform="translate(204.6 1843.9)"
   id="text3938"><tspan
     font-family="Poppins"
     font-weight="bold"
     id="tspan3936">May 22th 2021</tspan></text><text
   class="st5 st39 st38"
   transform="translate(176.59 1874.2)"
   id="text3942"><tspan
     font-family="'Poppins Medium'"
     id="tspan3940">Online Seminar #1</tspan></text><text
   class="st5 st39 st38"
   transform="translate(257.79 1905.3)"
   id="text3946"><tspan
     font-family="'Poppins Medium'"
     id="tspan3944">FMCG</tspan></text><text
   class="st5 st39 st38"
   transform="translate(437.44 1463.3)"
   id="text3950"><tspan
     font-family="'Poppins Medium'"
     id="tspan3948">Online Seminar #2</tspan></text><text
   class="st5 st39 st38"
   transform="translate(463.94 1494.4)"
   font-family="'Poppins Medium'"
   id="text3952">Nickel Industry</text><text
   class="st3 st31 st38"
   transform="translate(467.97 1526.5)"
   id="text3956"><tspan
     font-family="Poppins"
     font-weight="bold"
     id="tspan3954">May 23th 2021</tspan></text><text
   class="st3 st31 st38"
   transform="translate(733.39 1843.1)"
   id="text3960"><tspan
     font-family="Poppins"
     font-weight="bold"
     id="tspan3958">May 29th 2021</tspan></text><text
   class="st5 st39 st38"
   transform="translate(704.52 1878.2)"
   id="text3964"><tspan
     font-family="'Poppins Medium'"
     id="tspan3962">Online Seminar #3</tspan></text><text
   class="st5 st39 st38"
   transform="translate(706.82 1909.3)"
   id="text3968"><tspan
     font-family="'Poppins Medium'"
     id="tspan3966">Renewable Energy</tspan></text><text
   class="st3 st31 st38"
   transform="translate(1273.6 1843.1)"
   id="text3972"><tspan
     font-family="Poppins"
     font-weight="bold"
     id="tspan3970">Jun 5th 2021</tspan></text><text
   class="st5 st39 st38"
   transform="translate(1232.3 1874.2)"
   id="text3976"><tspan
     font-family="'Poppins Medium'"
     id="tspan3974">Online Seminar #4</tspan></text><text
   class="st5 st39 st38"
   transform="translate(1208.5 1905.3)"
   id="text3980"><tspan
     font-family="'Poppins Medium'"
     id="tspan3978">Diversity and Inclusion</tspan></text><text
   class="st35 st39 st38"
   transform="translate(978.65 1495.3)"
   font-family="'Poppins Medium'"
   id="text3982">Safety Workshop</text><text
   class="st3 st31 st38"
   transform="translate(996.27 1526.5)"
   id="text3986"><tspan
     font-family="Poppins"
     font-weight="bold"
     id="tspan3984">May 30th 2021</tspan></text><line
   class="st37"
   x1="1090.8"
   x2="1090.8"
   y1="1637.3"
   y2="1543.1"
   id="line3988" /><line
   class="st34"
   x1="296"
   x2="1615.9"
   y1="1676.2"
   y2="1676.2"
   id="line3990" />
		<path
   class="st5"
   d="m296 1640c-20.4 0-36.8 16.4-36.8 36.8s16.4 36.8 36.8 36.8 36.8-16.4 36.8-36.8c-0.1-20.4-16.5-36.8-36.8-36.8zm0 64c-15 0-27.3-12.2-27.3-27.3 0-15 12.2-27.3 27.3-27.3s27.3 12.2 27.3 27.3c-0.1 15.1-12.3 27.3-27.3 27.3z"
   id="path3992" />
		
			<circle
   class="st3"
   transform="matrix(.033281 -.9994 .9994 .033281 -1389.9 1916.6)"
   cx="295.8"
   cy="1676.8"
   r="17.8"
   id="circle3994" />
	
		<path
   class="st5"
   d="m560.7 1639.1c-20.4 0-36.8 16.4-36.8 36.8s16.4 36.8 36.8 36.8 36.8-16.4 36.8-36.8-16.5-36.8-36.8-36.8zm0 64c-15 0-27.3-12.2-27.3-27.3s12.2-27.3 27.3-27.3c15 0 27.3 12.2 27.3 27.3-0.1 15.1-12.3 27.3-27.3 27.3z"
   id="path3996" />
		
			<circle
   class="st3"
   transform="matrix(.1602 -.9871 .9871 .1602 -1183.2 1961)"
   cx="560.8"
   cy="1675.8"
   r="17.8"
   id="circle3998" />
	
		<path
   class="st5"
   d="m825.3 1638.2c-20.4 0-36.8 16.4-36.8 36.8s16.4 36.8 36.8 36.8 36.8-16.4 36.8-36.8c0-20.3-16.5-36.8-36.8-36.8zm0 64c-15 0-27.3-12.2-27.3-27.3 0-15 12.2-27.3 27.3-27.3 15 0 27.3 12.2 27.3 27.3s-12.2 27.3-27.3 27.3z"
   id="path4000" />
		<circle
   class="st3"
   cx="825.3"
   cy="1675"
   r="17.8"
   id="circle4002" />
	<path
   class="st35"
   d="m1090 1637.3c-20.4 0-36.8 16.4-36.8 36.8s16.4 36.8 36.8 36.8 36.8-16.4 36.8-36.8c-0.1-20.3-16.5-36.8-36.8-36.8zm0 64.1c-15 0-27.3-12.2-27.3-27.3s12.2-27.3 27.3-27.3 27.3 12.2 27.3 27.3-12.3 27.3-27.3 27.3z"
   id="path4004" /><circle
   class="st3"
   cx="1090"
   cy="1674.1"
   r="17.8"
   id="circle4006" />
		<path
   class="st5"
   d="m1354.7 1636.5c-20.4 0-36.8 16.4-36.8 36.8s16.4 36.8 36.8 36.8 36.8-16.4 36.8-36.8-16.5-36.8-36.8-36.8zm0 64c-15 0-27.3-12.2-27.3-27.3 0-15 12.2-27.3 27.3-27.3s27.3 12.2 27.3 27.3-12.3 27.3-27.3 27.3z"
   id="path4008" />
		<circle
   class="st3"
   cx="1354.7"
   cy="1673.2"
   r="17.8"
   id="circle4010" />
	
		<line
   class="st36"
   x1="296"
   x2="296"
   y1="1713.5"
   y2="1807.8"
   id="line4012" />
		<circle
   class="st5"
   cx="295.6"
   cy="1799.5"
   r="9.1"
   id="circle4014" />
	
		<line
   class="st36"
   x1="559.8"
   x2="559.8"
   y1="1639.1"
   y2="1544.8"
   id="line4016" />
		<circle
   class="st5"
   cx="560.3"
   cy="1553.1"
   r="9.1"
   id="circle4018" />
	
		<line
   class="st36"
   x1="827.1"
   x2="827.1"
   y1="1711.8"
   y2="1806"
   id="line4020" />
		<circle
   class="st5"
   cx="826.6"
   cy="1797.8"
   r="9.1"
   id="circle4022" />
	
		<line
   class="st36"
   x1="1355.6"
   x2="1355.6"
   y1="1710.9"
   y2="1805.2"
   id="line4024" />
		<circle
   class="st5"
   cx="1355.1"
   cy="1796.9"
   r="9.1"
   id="circle4026" />
	<circle
   class="st35"
   cx="1091.3"
   cy="1551.3"
   r="9.1"
   id="circle4028" />
		<path
   class="st5"
   d="m1615.9 1637.3c-20.4 0-36.8 16.4-36.8 36.8s16.4 36.8 36.8 36.8 36.8-16.4 36.8-36.8c-0.1-20.3-16.5-36.8-36.8-36.8zm0 64.1c-15 0-27.3-12.2-27.3-27.3s12.2-27.3 27.3-27.3 27.3 12.2 27.3 27.3-12.2 27.3-27.3 27.3z"
   id="path4030" />
		<circle
   class="st3"
   cx="1615.9"
   cy="1674.1"
   r="17.8"
   id="circle4032" />
	
		<line
   class="st36"
   x1="1616.7"
   x2="1616.7"
   y1="1637.3"
   y2="1543.1"
   id="line4034" />
		<circle
   class="st5"
   cx="1617.2"
   cy="1551.3"
   r="9.1"
   id="circle4036" />
	<text
   class="st5 st39 st38"
   transform="translate(1492.7 1430.5)"
   id="text4040"><tspan
     font-family="'Poppins Medium'"
     id="tspan4038">Online Seminar #5</tspan></text><text
   class="st5 st39 st38"
   transform="translate(1533.3 1461.6)"
   font-family="'Poppins Medium'"
   id="text4042">Challenge in</text><text
   class="st5 st39 st38"
   transform="scale(0.96744129,1.0336545)"
   id="text4046"
   x="1531.4598"
   y="1444.1963"
   style="stroke-width:0.967442"><tspan
     font-family="'Poppins Medium'"
     id="tspan4044"
     style="stroke-width:0.954873">Sustainable Industry</tspan></text><text
   class="st3 st31 st38"
   transform="translate(1534.1 1526.5)"
   id="text4050"><tspan
     font-family="Poppins"
     font-weight="bold"
     id="tspan4048">Jun 6th 2021</tspan></text></g>



















































</svg>
