<?xml version="1.0" encoding="UTF-8"?>
<svg width="93" height="94.4" version="1.1" viewBox="0 0 93 94.4" xml:space="preserve" xmlns="http://www.w3.org/2000/svg">
<style type="text/css">
	.st0{fill:#181825;}
	.st1{fill:#7B2F28;}
	.st2{fill:#E26350;}
	.st3{fill:#F9F6F6;}
	.st4{fill-rule:evenodd;clip-rule:evenodd;fill:#181825;}
	.st5{fill:#E9B31F;}
	.st6{font-family:'Poppins-BoldItalic';}
	.st7{font-size:161.0247px;}
	.st8{fill:none;}
	.st9{font-family:'Poppins-SemiBold';}
	.st10{font-size:28.5436px;}
	.st11{letter-spacing:2.7;}
	.st12{font-family:'Poppins-Regular';}
	.st13{letter-spacing:3.6;}
	.st14{letter-spacing:6.3;}
	.st15{letter-spacing:5.4;}
	.st16{fill:#AA6E00;}
	.st17{font-size:26.1914px;}
	.st18{fill:none;stroke:#AA6E00;stroke-width:3;stroke-miterlimit:10;}
	.st19{font-size:32.8683px;}
	.st20{clip-path:url(#SVGID_2_);}
	.st21{clip-path:url(#SVGID_4_);}
	.st22{font-family:'Bebas-Regular';}
	.st23{font-size:40.8501px;}
	.st24{fill-rule:evenodd;clip-rule:evenodd;fill:#F4D78A;}
	.st25{fill-rule:evenodd;clip-rule:evenodd;fill:#E26350;}
	.st26{fill-rule:evenodd;clip-rule:evenodd;fill:#F5D149;}
	.st27{fill:#F4D78A;}
	.st28{font-family:'Poppins-ExtraBold';}
	.st29{font-size:81.2035px;}
	.st30{letter-spacing:-1;}
	.st31{font-family:'Poppins-Bold';}
	.st32{font-size:102.4911px;}
	.st33{font-size:39.7879px;}
	.st34{fill:none;stroke:#F9F6F6;stroke-width:12;stroke-linecap:round;stroke-miterlimit:10;}
	.st35{fill:#79769E;}
	.st36{fill:none;stroke:#E9B31F;stroke-width:3;stroke-miterlimit:10;}
	.st37{fill:none;stroke:#79769E;stroke-width:3;stroke-miterlimit:10;}
	.st38{font-size:25.9487px;}
	.st39{font-family:'Poppins-Medium';}
	.st40{font-size:77.846px;}
	.st41{font-size:36.1931px;}
	.st42{font-size:50.3301px;}
	.st43{fill:none;stroke:#181825;stroke-width:5;stroke-miterlimit:10;}
	.st44{fill:#FFFFFF;}
	.st45{enable-background:new    ;}
	.st46{fill:none;stroke:#FFFFFF;stroke-width:3;stroke-miterlimit:10;}
	.st47{font-size:36.8147px;}
	.st48{fill:none;stroke:#FFFFFF;stroke-width:8;stroke-linecap:round;stroke-linejoin:round;stroke-miterlimit:10;}
	.st49{font-size:49.3025px;}
	.st50{fill:none;stroke:#F9F6F6;stroke-width:8;stroke-miterlimit:10;}
	.st51{fill:#171825;}
	.st52{fill:#F7F5F5;}
	.st53{font-size:30.2159px;}
	.st54{font-family:'Poppins-Light';}
	.st55{font-size:40px;}
	.st56{clip-path:url(#SVGID_6_);}
	.st57{font-family:'ArialMT';}
	.st58{font-size:8.3009px;}
	.st59{letter-spacing:22;}
	.st60{letter-spacing:25;}
	.st61{letter-spacing:-10;}
</style>























































































































































<g transform="translate(-1520.2 -7618.5)">
		<ellipse class="st3" cx="1566.7" cy="7665.7" rx="46.5" ry="47.2"/>
		
			
				<path class="st51" d="m1594.9 7648.2c-2 1-4.4 1.6-6.7 1.8 2.4-1.5 4.3-3.7 5.1-6.4-2.2 1.3-4.7 2.2-7.4 2.8-2-2.2-5.1-3.6-8.4-3.6-6.4 0-11.5 5.1-11.5 11.5 0 1 0.1 1.8 0.3 2.7-9.6-0.4-18.1-5.1-23.9-12.1-1.1 1.7-1.6 3.7-1.6 5.9 0 4 2 7.6 5.1 9.6-1.9 0-3.7-0.6-5.1-1.5v0.2c0 5.6 4 10.3 9.2 11.4-1 0.3-2 0.4-3 0.4-0.8 0-1.5 0-2.1-0.2 1.5 4.6 5.8 8 10.8 8.1-4 3.1-8.9 4.9-14.4 4.9-1 0-1.9-0.1-2.8-0.2 5.1 3.3 11.2 5.2 17.8 5.2 21.2 0 33-17.7 33-33 0-0.5 0-1.1-0.1-1.5 2.2-1.6 4.1-3.7 5.7-6z"/>
			
		
	</g>





























</svg>
