<?xml version="1.0" encoding="UTF-8" standalone="no"?>
<!-- Generator: Adobe Illustrator 23.0.0, SVG Export Plug-In . SVG Version: 6.00 Build 0)  -->

<svg
   version="1.1"
   id="Layer_1"
   x="0px"
   y="0px"
   viewBox="0 0 594.99597 273.89197"
   xml:space="preserve"
   sodipodi:docname="logo_design.svg"
   width="594.99597"
   height="273.89197"
   inkscape:version="1.1 (c68e22c387, 2021-05-23)"
   xmlns:inkscape="http://www.inkscape.org/namespaces/inkscape"
   xmlns:sodipodi="http://sodipodi.sourceforge.net/DTD/sodipodi-0.dtd"
   xmlns="http://www.w3.org/2000/svg"
   xmlns:svg="http://www.w3.org/2000/svg"><defs
   id="defs139" /><sodipodi:namedview
   id="namedview137"
   pagecolor="#ffffff"
   bordercolor="#666666"
   borderopacity="1.0"
   inkscape:pageshadow="2"
   inkscape:pageopacity="0.0"
   inkscape:pagecheckerboard="0"
   showgrid="false"
   inkscape:zoom="0.559"
   inkscape:cx="297.85331"
   inkscape:cy="-124.32916"
   inkscape:window-width="1362"
   inkscape:window-height="708"
   inkscape:window-x="0"
   inkscape:window-y="0"
   inkscape:window-maximized="1"
   inkscape:current-layer="Layer_1" />
<style
   type="text/css"
   id="style2">
	.st0{fill:#1A3764;}
	.st1{fill:#FFC30C;}
	.st2{fill:url(#SVGID_1_);}
	.st3{fill:#FDD507;}
	.st4{font-family:'Poppins-BoldItalic';}
	.st5{font-size:49.6352px;}
	.st6{fill:url(#SVGID_2_);}
	.st7{fill:#4168B0;}
	.st8{fill:#6AAEDF;}
	.st9{font-size:47.1067px;}
	.st10{fill:#FFFFFF;}
	.st11{font-family:'Poppins-Bold';}
	.st12{font-size:29px;}
</style>


<g
   id="g108"
   transform="translate(-202.5,-624.3)">
	<g
   id="g104">
		<g
   id="g79">
			<path
   class="st1"
   d="m 442.4,710.7 4.7,-21.5 -47.8,5.1 c 3.7,-20.6 21.7,-36.2 43.4,-36.2 23,0 41.9,17.6 43.9,40.1 z"
   id="path59" />
			<polygon
   class="st1"
   points="433.7,624.3 451.7,624.3 447.7,652.8 437.7,652.8 "
   id="polygon61" />
			<polygon
   class="st1"
   points="407.6,632.1 424.5,626 430.5,654.1 421.1,657.5 "
   id="polygon63" />
			<polygon
   class="st1"
   points="385.7,648.3 399.5,636.8 414.7,661.2 407.1,667.6 "
   id="polygon65" />
			<polygon
   class="st1"
   points="370.7,671.1 379.7,655.5 402.4,673.2 397.4,681.9 "
   id="polygon67" />
			<polygon
   class="st1"
   points="368.1,697.7 364.4,697.6 367.5,679.9 394.8,688.7 393.8,695 "
   id="polygon69" />
			<polygon
   class="st1"
   points="490.5,688.7 517.9,679.9 519.5,688.9 491.9,696.7 "
   id="polygon71" />
			<polygon
   class="st1"
   points="505.7,655.5 514.7,671.1 488,681.9 483,673.2 "
   id="polygon73" />
			<polygon
   class="st1"
   points="485.9,636.8 499.7,648.3 478.3,667.6 470.6,661.2 "
   id="polygon75" />
			<polygon
   class="st1"
   points="460.9,626 477.8,632.1 464.3,657.5 454.9,654.1 "
   id="polygon77" />
		</g>
		<g
   id="g102">
			<g
   id="g100">
				<linearGradient
   id="SVGID_2_"
   gradientUnits="userSpaceOnUse"
   x1="243.70061"
   y1="781.29468"
   x2="797.5"
   y2="781.29468">
					<stop
   offset="0"
   style="stop-color:#FFC30C"
   id="stop81" />
					<stop
   offset="1"
   style="stop-color:#F1F1F2"
   id="stop83" />
				</linearGradient>
				<path
   class="st6"
   d="m 706.8,687.3 c -2.8,-2.8 -6.3,-4.2 -10.7,-4.2 -0.8,0 -1.6,0 -2.4,0.1 -17.1,1.9 -34.9,4.2 -54.4,6.9 -0.7,0.1 -1.3,0.7 -1.4,1.4 -8.1,42.6 -16.1,85.3 -24.2,128 -0.1,0.3 0,0.6 0.1,0.7 0.1,0.1 0.3,0.2 0.4,0.2 0.1,0 0.1,0 0.2,0 9.2,-1.4 18.1,-2.7 26.6,-3.9 0.7,-0.1 1.3,-0.7 1.4,-1.4 2.6,-13.9 5.3,-27.9 7.9,-41.8 l 0.3,-1.7 1.7,-0.2 c 3.5,-0.5 7.1,-0.9 10.5,-1.4 0.3,0 0.7,-0.1 1,-0.1 1.3,0 2.3,0.4 3.1,1.1 l 0.1,0.1 0.1,0.1 c 1,1 1.3,2.2 1,3.8 -2.4,12.6 -4.8,25.2 -7.2,37.9 -0.1,0.3 0,0.6 0.1,0.7 0.1,0.2 0.3,0.2 0.5,0.2 0,0 0.1,0 0.1,0 9.1,-1.2 18,-2.3 26.6,-3.3 0.6,-0.1 1.2,-0.6 1.3,-1.3 2.4,-12.4 4.7,-24.9 7.1,-37.3 1.3,-7.1 0.3,-12.9 -3,-17.2 l -1.2,-1.7 1.5,-1.5 c 5.4,-5.3 8.8,-11.7 10.2,-18.8 2,-10.7 4.1,-21.4 6.1,-32.1 1.1,-5.3 -0.1,-9.9 -3.4,-13.3 z m -27.7,29.2 -3.1,16.5 -0.5,2.5 c -0.2,1 -0.7,2.6 -2.7,4.4 -1.6,1.4 -3.2,2.2 -5,2.4 -1.3,0.2 -2.6,0.3 -3.9,0.5 l -1.3,0.2 -3.2,0.4 0.6,-3.2 0.6,-3.3 3.8,-20 0.3,-1.7 1.7,-0.2 c 3.4,-0.4 6.7,-0.8 10.1,-1.2 l 3.2,-0.4 z m -55.5,2.9 c -11.7,1.7 -24,3.6 -37.6,5.8 l -1.6,0.3 -0.3,1.6 -3.5,18.5 -0.6,3.4 3.3,-0.5 c 10.6,-1.7 20.2,-3.2 29.4,-4.6 0.1,0 0.1,0 0.2,0 0.1,0 0.3,0 0.4,0.2 0.1,0.1 0.2,0.4 0.1,0.7 l -4.8,25.7 c -0.1,0.7 -0.8,1.3 -1.4,1.4 -9.6,1.5 -19.6,3.1 -30.8,4.9 l -1.6,0.3 -0.3,1.6 -3.5,18.5 -0.6,3.3 3.3,-0.5 c 13.3,-2.2 25.1,-4.1 36.2,-5.8 0.1,0 0.1,0 0.2,0 0.1,0 0.3,0 0.4,0.1 0.1,0.1 0.2,0.4 0.1,0.7 l -4.8,25.6 c -0.1,0.7 -0.8,1.3 -1.4,1.4 -23.3,3.6 -46.8,7.5 -67,10.9 -0.1,0 -0.1,0 -0.2,0 -0.1,0 -0.3,0 -0.4,-0.1 -0.1,-0.1 -0.2,-0.4 -0.1,-0.7 8.1,-42.8 16.1,-85.7 24.2,-128.5 0.1,-0.7 0.8,-1.4 1.5,-1.5 26.9,-4.4 47.5,-7.7 67,-10.5 0.1,0 0.1,0 0.2,0 0.1,0 0.3,0 0.4,0.2 0.1,0.1 0.2,0.4 0.1,0.7 L 625,718 c -0.1,0.7 -0.7,1.3 -1.4,1.4 z m 167.5,2.6 c -8.7,0.2 -17.6,0.6 -26.6,1 h -0.1 c -0.3,0 -0.5,-0.1 -0.7,-0.3 -0.2,-0.2 -0.3,-0.5 -0.2,-0.8 l 2.8,-14.6 0.6,-3 -3,0.2 c -4.5,0.2 -9.1,0.5 -13.6,0.8 l -1.8,0.1 -0.3,1.8 -3,15.8 c -0.3,1.5 -0.1,2.6 0.5,3.4 v 0 c 0.7,0.7 2.2,1.5 5.6,1.5 0.5,0 1.1,0 1.7,-0.1 1.1,-0.1 2.2,-0.1 3.2,-0.1 9,0 16.2,2.5 21.6,7.4 6.6,6 8.9,14.1 7,24.3 -1.6,8.5 -3.3,16.9 -4.9,25.4 -1,5.2 -3.9,9.8 -8.5,13.6 -4.5,3.7 -9.6,5.8 -15,6.1 -11.5,0.7 -23.6,1.6 -35.7,2.7 -0.7,0.1 -1.4,0.1 -2.1,0.1 -4.5,0 -8.2,-1.5 -11,-4.3 -3.3,-3.3 -4.5,-7.9 -3.5,-13.3 l 4.9,-26 c 0.1,-0.6 0.7,-1.2 1.3,-1.2 9,-0.9 17.9,-1.7 26.5,-2.3 0,0 0.1,0 0.1,0 0.3,0 0.5,0.1 0.6,0.3 0.2,0.2 0.2,0.5 0.2,0.8 l -2.8,14.8 -0.6,3 3.1,-0.2 c 4.6,-0.4 9.1,-0.7 13.6,-1 l 1.8,-0.1 0.3,-1.8 3,-15.8 c 0.3,-1.5 0.1,-2.6 -0.5,-3.3 l -0.1,-0.1 -0.1,-0.1 c -1,-0.9 -2.8,-1.4 -5.5,-1.4 -0.6,0 -1.1,0 -1.8,0.1 -1.3,0.1 -2.6,0.1 -3.8,0.1 -8.8,0 -15.9,-2.3 -21.1,-6.8 -6.5,-5.5 -8.8,-13.7 -6.9,-23.8 1.6,-8.6 3.3,-17.1 4.9,-25.6 1,-5.3 3.9,-10 8.6,-14.1 4.6,-3.9 9.6,-6.1 15,-6.5 12.1,-0.9 24.1,-1.5 35.6,-1.9 0.3,0 0.6,0 0.8,0 5.1,0 9.2,1.7 12.4,5.2 3.4,3.7 4.6,8.4 3.5,13.7 -1.6,8.5 -3.3,17 -4.9,25.5 -0.1,0.4 -0.6,0.8 -1.1,0.8 z m -243.7,-2.4 c -7.5,2.7 -15,5.4 -22.4,8.1 l -8.9,3.2 -1.6,0.6 v 1.7 9 8.9 3.4 l 3.2,-1.1 8.7,-3.2 c 5.5,-2 10.9,-3.9 16.4,-5.9 0.1,0 0.2,-0.1 0.2,-0.1 0.1,0 0.1,0 0.2,0 0.1,0 0.3,0 0.4,0.1 0.1,0.1 0.2,0.4 0.1,0.7 l -1.7,9.4 -3.2,17.4 c -0.1,0.6 -0.6,1.2 -1.2,1.4 l -12.6,4.6 -8.9,3.2 -1.6,0.6 v 1.7 19.2 19.2 0.2 0.2 c 0,0 0,0.1 0,0.1 v 13.1 c 0,0.8 -0.7,1.6 -1.5,1.7 -7,1.2 -16.3,2.7 -25.7,4.3 -0.1,0 -0.1,0 -0.2,0 -0.1,0 -0.1,0 -0.2,0 -0.1,0 -0.1,0 -0.1,-0.1 -0.2,-0.1 -0.2,-0.3 -0.2,-0.5 v -0.7 -0.7 l 0.1,-61.8 0.1,-61.8 c 0,-0.7 0.6,-1.4 1.2,-1.6 12.9,-4.6 26,-9.3 38.6,-13.9 8.7,-3.1 17.5,-6.3 26.2,-9.4 0.1,0 0.2,0 0.2,-0.1 0.1,0 0.1,0 0.2,0 0.1,0 0.3,0 0.4,0.1 0.1,0.1 0.2,0.4 0.1,0.7 l -2.8,14.9 -2.2,11.9 c -0.2,0.5 -0.7,1.1 -1.3,1.3 z M 447.1,847 c 0,0.1 0,0.4 0.2,0.5 0.1,0.1 0.3,0.1 0.4,0.1 0.1,0 0.1,0 0.2,0 8.4,-1.3 17.2,-2.7 26.9,-4.3 0.8,-0.1 1.5,-0.9 1.5,-1.7 l 0.1,-124.5 c 0,-0.2 -0.1,-0.4 -0.2,-0.5 -0.1,-0.1 -0.3,-0.1 -0.4,-0.1 -0.1,0 -0.1,0 -0.2,0 -12.5,2 -23.7,3.8 -34.2,5.4 -0.6,0.1 -1.2,0.6 -1.4,1.2 -17.4,47.6 -33.2,90.5 -48.3,131.3 -0.1,0.4 -0.1,0.7 0,0.9 0.1,0.2 0.4,0.2 0.5,0.2 0,0 0.1,0 0.1,0 8.6,-1.1 17.7,-2.4 26.9,-3.7 0.6,-0.1 1.1,-0.6 1.4,-1.2 3,-8 5.9,-15.9 8.9,-23.9 l 0.5,-1.3 1.4,-0.2 c 4.2,-0.6 8.6,-1.3 13,-2 l 2.7,-0.4 v 2.8 z m -1.6,-50.8 -1.4,0.2 -3.7,0.6 1.1,-3.6 1.8,-6.3 6.4,-21.9 -1.7,22.8 -0.2,3 -0.2,3 -0.1,1.9 z M 328.2,778.4 323.1,793 c -0.2,0.6 -0.4,1.2 -0.6,1.8 -5.5,15.8 -11,31.5 -16.4,47 -4.9,14.1 -9.8,28.1 -14.7,41.8 -0.2,0.5 -0.7,0.9 -1.2,0.9 -15.6,0.9 -30.9,1.4 -45.6,1.5 -0.3,0 -0.6,-0.1 -0.8,-0.3 -0.2,-0.2 -0.3,-0.5 -0.3,-0.8 l 0.7,-29.3 0.3,-12.2 0.2,-6.5 c 11,-2.1 23,-7.2 34.7,-17.7 l -0.9,12.5 5.8,-17.1 0.2,-0.7 c 5,-14.7 10,-29.7 15.2,-44.9 5.9,-17.4 11.8,-35.1 17.7,-52.8 0.2,-0.5 0.7,-0.9 1.2,-1 13.9,-1.1 28.6,-2.6 43.7,-4.3 0,0 0.1,0 0.1,0 0.2,0 0.4,0 0.5,0.2 0.1,0.1 0.2,0.4 0.2,0.6 l -2.5,55.4 v 0.5 l -0.5,10.1 -0.4,8.5 c -10.1,-0.4 -21.4,0.8 -32,5.9 z m -42.9,-60.1 v 1.5 c -0.4,16.1 -1.4,36.9 -3.1,61.8 -0.6,9.8 -1.4,20.2 -2.2,31.2 l -0.5,6.3 c -11.8,10.5 -23.8,15.6 -34.7,17.7 l 0.5,-22 0.9,-41.2 1.2,-54.2 c 0,-0.6 0.5,-1.1 1.1,-1.1 11.6,-0.1 23.6,-0.5 35.7,-1.1 h 0.1 c 0.3,0 0.5,0.1 0.7,0.3 0.2,0.2 0.3,0.5 0.3,0.8 z m 101.6,71.4 c -0.4,-0.3 -6.3,-4.5 -15.4,-8.3 0.6,-1.9 1.2,-3.8 1.8,-5.6 8.6,6.8 13.4,13.5 13.6,13.9 z m 46.4,-87.3 c -22,63.6 -41.8,120.4 -60.4,173.6 -0.2,0.6 -0.8,1 -1.3,1.1 -15.8,1.9 -31.1,3.5 -45.6,4.8 h -0.1 c -0.2,0 -0.4,0 -0.6,-0.2 -0.2,-0.2 -0.2,-0.4 -0.2,-0.6 l 1.8,-59.5 0.8,-27.7 0.1,-2 c 10.7,-5.1 21.9,-6.3 32,-5.9 l -0.7,14.3 -0.3,6.3 -0.9,19 5.5,-18.2 c 1,-3.4 2.1,-6.8 3.1,-10.1 1.1,-3.5 2.1,-7 3.2,-10.3 v 0 c 0.6,-1.9 1.2,-3.8 1.8,-5.7 9.1,3.8 15,8.1 15.4,8.3 -0.3,-0.4 -5,-7.1 -13.6,-14 8.5,-27.3 15.8,-49.7 21.8,-67 l 0.2,-0.5 0.2,-0.5 c 0.2,-0.6 0.8,-1.1 1.3,-1.1 11.4,-1.5 23.1,-3.2 35.9,-5.1 0.1,0 0.1,0 0.2,0 0.1,0 0.3,0 0.5,0.2 0,0.1 0,0.5 -0.1,0.8 z"
   id="path86"
   style="fill:url(#SVGID_2_)" />
				<g
   id="g92">
					<path
   class="st7"
   d="m 245.3,814.9 -0.5,22 c -23.1,4.4 -41.4,-4.7 -42.3,-5.1 12.6,5.6 27.2,-3.5 42.8,-16.9 z"
   id="path88" />
					<path
   class="st7"
   d="m 373.3,775.7 c -0.6,1.9 -1.2,3.7 -1.8,5.6 -3.4,-1.4 -7.2,-2.7 -11.3,-3.8 -19,-4.8 -44.9,-3.4 -66.7,26.1 -3,4.1 -6.1,7.7 -9.2,10.9 -1.6,1.7 -3.2,3.2 -4.9,4.7 l 0.5,-6.3 c 0.8,-11 1.6,-21.5 2.2,-31.2 5.8,-4.8 11.7,-9.2 17.5,-12.8 6.7,-4 13.4,-6.9 20.1,-8 16.4,-2.7 30.1,1 40.8,6.6 5,2.4 9.3,5.3 12.8,8.2 z"
   id="path90" />
				</g>
				<g
   id="g98">
					<path
   class="st8"
   d="m 322.5,794.8 c 1.7,-1.1 3.5,-2 5.3,-2.9 l -0.1,2 -0.8,27.7 c -5.1,4.4 -10.4,9.4 -15.8,15.3 -1.7,1.8 -3.3,3.4 -5,4.9 -20.3,18.2 -43.1,18.6 -61.8,13.8 -21.4,-5.5 -37.3,-17.8 -37.3,-17.8 7.5,2.6 21.6,6.2 37.6,5.6 20.2,-0.7 43.4,-8 60.5,-32.1 5.3,-7.3 11.2,-12.7 17.4,-16.5 z"
   id="path94" />
					<path
   class="st8"
   d="m 392.2,793.2 c 0,0 -9.7,-1.5 -25.6,4.2 -2.3,0.8 -4.8,1.8 -7.4,3 l 0.7,-14.3 c 3.5,0.2 6.8,0.5 9.9,1 v 0 c 13.1,1.9 22.4,6.1 22.4,6.1 z"
   id="path96" />
				</g>
			</g>
		</g>
	</g>
	<text
   transform="matrix(1,-0.1405,0,1,386.6913,897.9612)"
   class="st3 st4 st9"
   id="text106">Summer Course</text>
</g>






</svg>
