<?xml version="1.0" encoding="UTF-8" standalone="no"?>
<svg
   version="1.1"
   id="Layer_1"
   x="0px"
   y="0px"
   viewBox="0 0 1569.755 539.77484"
   xml:space="preserve"
   sodipodi:docname="wafers.svg"
   inkscape:version="1.1 (c68e22c387, 2021-05-23)"
   width="1569.755"
   height="539.77484"
   xmlns:inkscape="http://www.inkscape.org/namespaces/inkscape"
   xmlns:sodipodi="http://sodipodi.sourceforge.net/DTD/sodipodi-0.dtd"
   xmlns="http://www.w3.org/2000/svg"
   xmlns:svg="http://www.w3.org/2000/svg"
   xmlns:rdf="http://www.w3.org/1999/02/22-rdf-syntax-ns#"
   xmlns:cc="http://creativecommons.org/ns#"
   xmlns:dc="http://purl.org/dc/elements/1.1/"><metadata
   id="metadata1080"><rdf:RDF><cc:Work
       rdf:about=""><dc:format>image/svg+xml</dc:format><dc:type
         rdf:resource="http://purl.org/dc/dcmitype/StillImage" /></cc:Work></rdf:RDF></metadata><defs
   id="defs1078">
	
	
	
	
	
	
	
	
	
	
	

	
	
	
	
	
	
	
	
	
	
	
	
	
	
	
	
	
	
	
	
	
	
	
	
	
	
	
	
	
	
	
	
	
	
	
</defs><sodipodi:namedview
   pagecolor="#ffffff"
   bordercolor="#666666"
   borderopacity="1"
   objecttolerance="10"
   gridtolerance="10"
   guidetolerance="10"
   inkscape:pageopacity="0"
   inkscape:pageshadow="2"
   inkscape:window-width="1362"
   inkscape:window-height="708"
   id="namedview1076"
   showgrid="false"
   inkscape:zoom="0.52832032"
   inkscape:cx="741.02772"
   inkscape:cy="82.336413"
   inkscape:window-x="0"
   inkscape:window-y="0"
   inkscape:window-maximized="1"
   inkscape:current-layer="Layer_1"
   inkscape:document-rotation="0"
   inkscape:pagecheckerboard="0" />
<style
   type="text/css"
   id="style10">
	.st0{fill:#181825;}
	.st1{fill:#7B2F28;}
	.st2{fill:#E26350;}
	.st3{fill:#F9F6F6;}
	.st4{fill-rule:evenodd;clip-rule:evenodd;fill:#181825;}
	.st5{fill:#E9B31F;}
	.st6{font-family:'Poppins-BoldItalic';}
	.st7{font-size:161.0247px;}
	.st8{fill:none;}
	.st9{font-family:'Poppins-SemiBold';}
	.st10{font-size:28.5436px;}
	.st11{letter-spacing:2.7;}
	.st12{font-family:'Poppins-Regular';}
	.st13{letter-spacing:3.6;}
	.st14{letter-spacing:6.3;}
	.st15{letter-spacing:5.4;}
	.st16{fill:#AA6E00;}
	.st17{font-size:26.1914px;}
	.st18{fill:none;stroke:#AA6E00;stroke-width:3;stroke-miterlimit:10;}
	.st19{font-size:32.8683px;}
	.st20{clip-path:url(#SVGID_2_);}
	.st21{clip-path:url(#SVGID_4_);}
	.st22{font-family:'Bebas-Regular';}
	.st23{font-size:40.8501px;}
	.st24{fill-rule:evenodd;clip-rule:evenodd;fill:#F4D78A;}
	.st25{fill-rule:evenodd;clip-rule:evenodd;fill:#E26350;}
	.st26{fill-rule:evenodd;clip-rule:evenodd;fill:#F5D149;}
	.st27{fill:#F4D78A;}
	.st28{font-family:'Poppins-ExtraBold';}
	.st29{font-size:81.2035px;}
	.st30{letter-spacing:-1;}
	.st31{font-family:'Poppins-Bold';}
	.st32{font-size:102.4911px;}
	.st33{font-size:39.7879px;}
	.st34{fill:none;stroke:#F9F6F6;stroke-width:12;stroke-linecap:round;stroke-miterlimit:10;}
	.st35{fill:#79769E;}
	.st36{fill:none;stroke:#E9B31F;stroke-width:3;stroke-miterlimit:10;}
	.st37{fill:none;stroke:#79769E;stroke-width:3;stroke-miterlimit:10;}
	.st38{font-size:25.9487px;}
	.st39{font-family:'Poppins-Medium';}
	.st40{font-size:77.846px;}
	.st41{font-size:36.1931px;}
	.st42{font-size:50.3301px;}
	.st43{fill:none;stroke:#181825;stroke-width:5;stroke-miterlimit:10;}
	.st44{fill:#FFFFFF;}
	.st45{enable-background:new    ;}
	.st46{fill:none;stroke:#FFFFFF;stroke-width:3;stroke-miterlimit:10;}
	.st47{font-size:36.8147px;}
	.st48{fill:none;stroke:#FFFFFF;stroke-width:8;stroke-linecap:round;stroke-linejoin:round;stroke-miterlimit:10;}
	.st49{font-size:49.3025px;}
	.st50{fill:none;stroke:#F9F6F6;stroke-width:8;stroke-miterlimit:10;}
	.st51{fill:#171825;}
	.st52{fill:#F7F5F5;}
	.st53{font-size:30.2159px;}
	.st54{font-family:'Poppins-Light';}
	.st55{font-size:40px;}
	.st56{clip-path:url(#SVGID_6_);}
	.st57{font-family:'ArialMT';}
	.st58{font-size:8.3009px;}
	.st59{letter-spacing:22;}
	.st60{letter-spacing:25;}
	.st61{letter-spacing:-10;}
</style>

































































































































<g
   id="g1314"
   transform="translate(-189.63331,-1405.1373)"><text
     transform="translate(204.6036,1843.9265)"
     class="st3 st31 st38"
     id="text597"><tspan
       style="font-style:normal;font-variant:normal;font-weight:bold;font-stretch:normal;font-family:Poppins;-inkscape-font-specification:'Poppins Bold'"
       id="tspan1240">July 23th 2021</tspan></text><text
     class="st5 st39 st38"
     id="text601"
     x="294.02472"
     y="1879.3"><tspan
       sodipodi:role="line"
       id="tspan8458"
       x="294.02472"
       y="1879.3"
       style="font-style:normal;font-variant:normal;font-weight:normal;font-stretch:normal;font-family:'Poppins Medium';-inkscape-font-specification:'Poppins Medium, ';text-align:center;text-anchor:middle">Module #1</tspan><tspan
       sodipodi:role="line"
       x="294.02472"
       y="1911.9894"
       style="font-style:normal;font-variant:normal;font-weight:normal;font-stretch:normal;font-family:'Poppins Medium';-inkscape-font-specification:'Poppins Medium, ';text-align:center;text-anchor:middle"
       id="tspan29170">Sustainable</tspan><tspan
       sodipodi:role="line"
       id="tspan8460"
       x="294.02472"
       y="1944.6786"
       style="font-style:normal;font-variant:normal;font-weight:normal;font-stretch:normal;font-family:'Poppins Medium';-inkscape-font-specification:'Poppins Medium, ';text-align:center;text-anchor:middle">Food Production</tspan></text><text
     class="st5 st39 st38"
     id="text605"
     style="font-style:normal;font-variant:normal;font-weight:normal;font-stretch:normal;font-family:'Poppins Medium';-inkscape-font-specification:'Poppins Medium, ';text-align:center;text-anchor:middle"
     x="561.45239"
     y="1424.4431"><tspan
       sodipodi:role="line"
       id="tspan22216"
       x="561.45239"
       y="1424.4431">Module #2</tspan><tspan
       sodipodi:role="line"
       x="561.45239"
       y="1456.879"
       id="tspan27094">Biogas as a</tspan><tspan
       sodipodi:role="line"
       id="tspan22218"
       x="561.45239"
       y="1489.3148">Renewable Energy Source</tspan></text><text
     class="st3 st31 st38"
     id="text607"
     x="560.3111"
     y="1526.4871"
     style="text-align:center;text-anchor:middle"><tspan
       style="font-style:normal;font-variant:normal;font-weight:bold;font-stretch:normal;font-family:Poppins;-inkscape-font-specification:'Poppins Bold';text-align:center;text-anchor:middle"
       id="tspan1238">July 26th 2021</tspan></text><text
     transform="translate(733.3859,1843.0613)"
     class="st3 st31 st38"
     id="text609"><tspan
       style="font-style:normal;font-variant:normal;font-weight:bold;font-stretch:normal;font-family:Poppins;-inkscape-font-specification:'Poppins Bold'"
       id="tspan1214">July 27th 2021</tspan></text><text
     class="st5 st39 st38"
     id="text611"
     x="823.71179"
     y="1880.1946"
     style="font-style:normal;font-variant:normal;font-weight:normal;font-stretch:normal;font-family:'Poppins Medium';-inkscape-font-specification:'Poppins Medium, ';text-align:center;text-anchor:middle"><tspan
       sodipodi:role="line"
       id="tspan109916"
       x="823.71179"
       y="1880.1946"><tspan
         style="font-style:normal;font-variant:normal;font-weight:normal;font-stretch:normal;font-family:'Poppins Medium';-inkscape-font-specification:'Poppins Medium, ';text-align:center;text-anchor:middle"
         id="tspan1216">Module #3</tspan></tspan><tspan
       sodipodi:role="line"
       id="tspan109918"
       x="823.71179"
       y="1912.6305">Renewable Energy</tspan></text><text
     class="st3 st31 st38"
     id="text615"
     x="1265.6241"
     y="1843.0613"><tspan
       style="font-style:normal;font-variant:normal;font-weight:bold;font-stretch:normal;font-family:Poppins;-inkscape-font-specification:'Poppins Bold'"
       id="tspan1242">July 29th 2021</tspan></text><text
     class="st5 st39 st38"
     id="text617"
     x="1353.3153"
     y="1880.2"
     style="font-style:normal;font-variant:normal;font-weight:normal;font-stretch:normal;font-family:'Poppins Medium';-inkscape-font-specification:'Poppins Medium, ';text-align:center;text-anchor:middle"><tspan
       sodipodi:role="line"
       id="tspan121795"
       x="1353.3153"
       y="1880.2"><tspan
         style="font-style:normal;font-variant:normal;font-weight:normal;font-stretch:normal;font-family:'Poppins Medium';-inkscape-font-specification:'Poppins Medium, ';text-align:center;text-anchor:middle"
         id="tspan1220">Module #5</tspan></tspan><tspan
       sodipodi:role="line"
       id="tspan121797"
       x="1353.3153"
       y="1912.6359">Clean Water Technology</tspan></text><text
     class="st35 st39 st38"
     id="text621"
     style="font-style:normal;font-variant:normal;font-weight:normal;font-stretch:normal;font-family:'Poppins Medium';-inkscape-font-specification:'Poppins Medium, ';text-align:center;text-anchor:middle;fill:#e9b31f;fill-opacity:1"
     x="1092.8754"
     y="1457.3484"><tspan
       sodipodi:role="line"
       id="tspan116572"
       x="1092.8754"
       y="1457.3484">Module #4</tspan><tspan
       sodipodi:role="line"
       id="tspan116574"
       x="1092.8754"
       y="1489.7843">Wastewater Treatment</tspan></text><text
     transform="translate(996.2736,1526.4871)"
     class="st3 st31 st38"
     id="text623"><tspan
       style="font-style:normal;font-variant:normal;font-weight:bold;font-stretch:normal;font-family:Poppins;-inkscape-font-specification:'Poppins Bold'"
       id="tspan1236">July 28th 2021</tspan></text><g
     id="g1212"><line
       class="st37"
       x1="1090.8"
       y1="1637.3"
       x2="1090.8"
       y2="1543.1"
       id="line593"
       style="fill:#e9b31f;fill-opacity:1;stroke:#e9b31f;stroke-opacity:1" /><g
       id="g1174"><line
         class="st34"
         x1="296"
         y1="1676.2"
         x2="1615.9"
         y2="1676.2"
         id="line539" /><g
         id="g545">
		<g
   id="g2372"><g
     id="g2525"><path
       class="st5"
       d="m 296,1640 c -20.4,0 -36.8,16.4 -36.8,36.8 0,20.4 16.4,36.8 36.8,36.8 20.4,0 36.8,-16.4 36.8,-36.8 -0.1,-20.4 -16.5,-36.8 -36.8,-36.8 z m 0,64 c -15,0 -27.3,-12.2 -27.3,-27.3 0,-15 12.2,-27.3 27.3,-27.3 15.1,0 27.3,12.2 27.3,27.3 -0.1,15.1 -12.3,27.3 -27.3,27.3 z"
       id="path541" /></g></g>
		
			<circle
   transform="matrix(0.03328105,-0.9994,0.9994,0.03328105,-1389.8959,1916.5552)"
   class="st3"
   cx="295.79999"
   cy="1676.8"
   id="ellipse543"
   r="17.799999" />
	</g><g
         id="g551">
		<g
   id="g2221"><g
     id="g2528"><g
       id="g2608"><path
         class="st5"
         d="m 560.7,1639.1 c -20.4,0 -36.8,16.4 -36.8,36.8 0,20.4 16.4,36.8 36.8,36.8 20.4,0 36.8,-16.4 36.8,-36.8 0,-20.4 -16.5,-36.8 -36.8,-36.8 z m 0,64 c -15,0 -27.3,-12.2 -27.3,-27.3 0,-15.1 12.2,-27.3 27.3,-27.3 15,0 27.3,12.2 27.3,27.3 -0.1,15.1 -12.3,27.3 -27.3,27.3 z"
         id="path547" /></g></g></g>
		
			<circle
   transform="matrix(0.1602,-0.9871,0.9871,0.1602,-1183.177,1960.9648)"
   class="st3"
   cx="560.79999"
   cy="1675.8"
   id="ellipse549"
   r="17.799999" />
	</g><g
         id="g557">
		<path
   class="st5"
   d="m 825.3,1638.2 c -20.4,0 -36.8,16.4 -36.8,36.8 0,20.4 16.4,36.8 36.8,36.8 20.4,0 36.8,-16.4 36.8,-36.8 0,-20.3 -16.5,-36.8 -36.8,-36.8 z m 0,64 c -15,0 -27.3,-12.2 -27.3,-27.3 0,-15 12.2,-27.3 27.3,-27.3 15,0 27.3,12.2 27.3,27.3 0,15.1 -12.2,27.3 -27.3,27.3 z"
   id="path553"
   style="fill:#e9b31f;fill-opacity:1" />
		<circle
   class="st3"
   cx="825.29999"
   cy="1675"
   r="17.799999"
   id="circle555" />
	</g><path
         class="st35"
         d="m 1090,1637.3 c -20.4,0 -36.8,16.4 -36.8,36.8 0,20.4 16.4,36.8 36.8,36.8 20.4,0 36.8,-16.4 36.8,-36.8 -0.1,-20.3 -16.5,-36.8 -36.8,-36.8 z m 0,64.1 c -15,0 -27.3,-12.2 -27.3,-27.3 0,-15.1 12.2,-27.3 27.3,-27.3 15.1,0 27.3,12.2 27.3,27.3 0,15.1 -12.3,27.3 -27.3,27.3 z"
         id="path559"
         style="fill:#e9b31f;fill-opacity:1" /><circle
         class="st3"
         cx="1090"
         cy="1674.1"
         r="17.799999"
         id="circle561" /><g
         id="g567">
		<path
   class="st5"
   d="m 1354.7,1636.5 c -20.4,0 -36.8,16.4 -36.8,36.8 0,20.4 16.4,36.8 36.8,36.8 20.4,0 36.8,-16.4 36.8,-36.8 0,-20.4 -16.5,-36.8 -36.8,-36.8 z m 0,64 c -15,0 -27.3,-12.2 -27.3,-27.3 0,-15 12.2,-27.3 27.3,-27.3 15.1,0 27.3,12.2 27.3,27.3 0,15.1 -12.3,27.3 -27.3,27.3 z"
   id="path563" />
		<circle
   class="st3"
   cx="1354.7"
   cy="1673.2"
   r="17.799999"
   id="circle565" />
	</g><g
         id="g573">
		<line
   class="st36"
   x1="296"
   y1="1713.5"
   x2="296"
   y2="1807.8"
   id="line569" />
		<circle
   class="st5"
   cx="295.60001"
   cy="1799.5"
   r="9.1000004"
   id="circle571" />
	</g><g
         id="g579">
		<line
   class="st36"
   x1="559.79999"
   y1="1639.1"
   x2="559.79999"
   y2="1544.8"
   id="line575" />
		<circle
   class="st5"
   cx="560.29999"
   cy="1553.1"
   id="ellipse577"
   r="9.1000004" />
	</g><g
         id="g585">
		<line
   class="st36"
   x1="827.09998"
   y1="1711.8"
   x2="827.09998"
   y2="1806"
   id="line581" />
		<circle
   class="st5"
   cx="826.59998"
   cy="1797.8"
   r="9.1000004"
   id="circle583" />
	</g><g
         id="g591">
		<line
   class="st36"
   x1="1355.6"
   y1="1710.9"
   x2="1355.6"
   y2="1805.2"
   id="line587" />
		<circle
   class="st5"
   cx="1355.1"
   cy="1796.9"
   r="9.1000004"
   id="circle589" />
	</g><circle
         class="st35"
         cx="1091.3"
         cy="1551.3"
         r="9.1000004"
         id="circle595"
         style="fill:#e9b31f;fill-opacity:1" /><g
         id="g629">
		<path
   class="st5"
   d="m 1615.9,1637.3 c -20.4,0 -36.8,16.4 -36.8,36.8 0,20.4 16.4,36.8 36.8,36.8 20.4,0 36.8,-16.4 36.8,-36.8 -0.1,-20.3 -16.5,-36.8 -36.8,-36.8 z m 0,64.1 c -15,0 -27.3,-12.2 -27.3,-27.3 0,-15.1 12.2,-27.3 27.3,-27.3 15.1,0 27.3,12.2 27.3,27.3 0,15.1 -12.2,27.3 -27.3,27.3 z"
   id="path625" />
		<circle
   class="st3"
   cx="1615.9"
   cy="1674.1"
   r="17.799999"
   id="circle627" />
	</g><g
         id="g635">
		<line
   class="st36"
   x1="1616.7"
   y1="1637.3"
   x2="1616.7"
   y2="1543.1"
   id="line631" />
		<circle
   class="st5"
   cx="1617.2"
   cy="1551.3"
   r="9.1000004"
   id="circle633" />
	</g></g></g><text
     class="st5 st39 st38"
     id="text637"
     x="1617.6569"
     y="1452.491"
     style="text-align:center;text-anchor:middle"><tspan
       sodipodi:role="line"
       id="tspan135314"
       x="1617.6569"
       y="1452.491"
       style="font-style:normal;font-variant:normal;font-weight:normal;font-stretch:normal;font-family:'Poppins Medium';-inkscape-font-specification:'Poppins Medium, ';text-align:center;text-anchor:middle">Module #6</tspan><tspan
       sodipodi:role="line"
       id="tspan135316"
       x="1617.6569"
       y="1485.1803"
       style="font-style:normal;font-variant:normal;font-weight:normal;font-stretch:normal;font-family:'Poppins Medium';-inkscape-font-specification:'Poppins Medium, '">Green Energy Sources</tspan></text><text
     class="st3 st31 st38"
     id="text643"
     x="1512.1495"
     y="1526.4871"><tspan
       style="font-style:normal;font-variant:normal;font-weight:bold;font-stretch:normal;font-family:Poppins;-inkscape-font-specification:'Poppins Bold'"
       id="tspan1234">August 2nd 2021</tspan></text></g>



















































</svg>
